<?xml version="1.0" encoding="UTF-8" standalone="no"?>
<!DOCTYPE svg  PUBLIC '-//W3C//DTD SVG 1.1//EN'  'http://www.w3.org/Graphics/SVG/1.1/DTD/svg11.dtd'>
<svg xmlns="http://www.w3.org/2000/svg" version="1.1">
<defs>
<font id="ThirstyRoughReg" horiz-adv-x="540">
<font-face units-per-em="1000" underline-thickness="50" panose-1="3 0 5 0 0 0 7 7 0 6" cap-height="841" underline-position="-150" ascent="800" font-family="Thirsty Rough Reg" descent="-200" x-height="522" unicode-range="U+0020-FB02" font-weight="400" bbox="-298 -316 1334 1092"/>
<missing-glyph/>
<glyph d="M733 260l1 -1l2 -16l-4 -15l-16 -28l-12 -20l-7 -5l-2 -7l-19 -25l-6 -7l-9 -18l-4 -2v-4l-7 -5l-1 -6l-8 -5l-1 -6l-14 -11l-2 -7l-11 -9l-7 -9l-13 -9l-5 -6l-7 -3l-6 -7l-7 -3l-5 -6l-14 -9l-6 -1v-3l-14 -5l-3 -3l-12 -4l-20 -3v-3l-31 -4l-32 8l-25 2l-5 6l-12 8 l-12 13l-1 6h-2v4h-3v5l-2 1l-4 26l-3 2v19l-5 6l-8 5l-25 -13l-26 -16l-5 -4l-13 -3l-6 -4l-12 -2l-6 -5l-31 -7l-32 -4l-16 -1l-5 -2l-14 -1l-12 -8l-6 -7l-2 -17l1 -31l-8 -29l-6 -26l-10 -30l-7 -23l-6 -19l-6 -4l-11 -28l-11 -26l-5 -7l-1 -5l-6 -4l-3 -7l-5 -2l-3 -8 l-23 -21l-23 -22l-20 -13l-24 -4l-31 -8h-32l-11 3l-4 3l-8 2l-2 4l-14 9l-11 10l-8 12l-10 31l-2 17l-2 3l1 14l6 32l9 24l4 13h2l9 25l14 32l7 20h2v5h2v5h3v4l8 14l5 20l2 2v7l5 11h2v5h2l5 16h2l6 19l3 1l3 11l8 20l3 12h2v5h2v4h3v5h2v4h2v5h2v4l5 10l8 29l13 26l11 24 l4 15l13 29l3 15l6 9l11 30l8 19l8 16l4 15l3 3l5 16l5 2v7l12 28l11 31l11 25l4 16l3 2l7 22l13 26l6 15l3 14h2l5 16l13 28l7 20l3 2l13 30l9 22h2v4h3l4 11l6 6l3 8l6 4l18 24l10 13l12 10l4 6l7 1l5 5l32 17l12 5l32 2l15 2l34 -5l14 -6l20 -14l10 -16l6 -5l9 -27l5 -34 l1 -15l-8 -30l-8 -33l-2 -15l-5 -5l-1 -8l-9 -19l-3 -13l-3 -4l-2 -12l-10 -25l-6 -6l-4 -19l-5 -6l-1 -6l-13 -22l-2 -11l-9 -25l-3 -3l-1 -6h-3v-4h-2l-1 -6l-16 -27l-4 -12l-3 -3l-1 -7h-2v-4h-2l-1 -6l-16 -27l-8 -17l-5 -2v-5h-2v-4l-16 -25l-24 -25l-12 -9l-7 -9 l-7 -3l-5 -5l-23 -10l-32 -10l-15 -4l-32 -3l-8 -2l-7 -5l-5 -1l-11 -16l-7 -19l4 -12l8 -10l26 -14l12 -3h36l19 -2l30 4l32 8l10 5l14 4v3h4v2l11 3l11 10l17 9l1 4l5 1l3 5h4l22 22l21 24l18 25l15 23l3 3l5 16l14 30l12 29l13 27l11 32l11 29l12 30l11 27l11 22l6 14 l14 9l12 3l34 -5l30 5l15 -2l8 -7l3 -6l-3 -15l-6 -16l-10 -15l-6 -27l-6 -13l-5 -4l-1 -6l-14 -30l-11 -30l-3 -13l-7 -12l-1 -11l-8 -11v-7l-5 -5l-1 -8l-3 -3v-4l-5 -7l-1 -7l-11 -19l-8 -27l-2 -10l-4 -5l-5 -17l-7 -12l-10 -31l-8 -31v-18l4 -14l10 -10l7 -3l16 4l8 4 l2 3h5v3h4v2l8 3l24 21l23 23l19 24l11 11l6 11l6 5l16 24l8 14l8 9v4h3l1 6l19 31l11 8h17zM155 253l1 1l3 6l2 -6v2h4l5 6l4 1l5 6l13 9l20 26l2 7l6 4l6 14l3 2v5h2v4l5 2l2 7l5 5l8 14l3 13l4 7v7l6 6l10 22l7 13l5 15l15 30l12 29v4l9 12l12 29l9 30l12 29l5 13l5 28 l2 2l-1 24l-4 7l-9 5l-2 3l-16 -3l-25 -20l-11 -16h-2v-4h-3l-1 -6l-5 -6l-3 -9l-13 -23l-12 -29l-2 -4h-2v-5h-2l-7 -25h-2v-4h-3v-5h-2v-4h-2l-2 -12l-3 -2l-10 -29l-12 -30l-9 -21l-3 -1l-4 -16h-2l-1 -7l-6 -14l-5 -6l-10 -30l-3 -11l-3 -2l-4 -17l-15 -28l-11 -31 l-6 -14l7 -10l8 -3zM-25 -231l2 1v2l6 1l1 6l5 4l2 7h2v5l14 15l1 6l10 12l2 7l5 5l2 7l4 5l6 19l2 1l8 29l7 23h3l7 32l7 24l4 18v30l-3 11l-11 12l-7 1l-6 -4h-3l-14 -29l-9 -20l-8 -23l-3 -3l-7 -25l-5 -6l-1 -7l-3 -2l-7 -14l-9 -32l-2 -2v-4l-5 -7l-2 -8l-4 -6v-4 l-14 -29l-9 -30v-18l12 -12zM627 703l12 6h8l21 -11l19 -20l1 -7l3 -2l1 -29l-3 -27l-18 -22l-9 -3l-5 -5l-23 -10l-33 5l-26 17l-10 9l-8 28l-2 17l2 15l5 11l21 24l10 6l9 2l16 -4h9zM411 133l-1 -1l5 -16l4 -6l4 -1l2 3l-4 6v5l5 -1l9 5l-1 9l-4 3l-2 -3zM21 153l-1 -1 v-4l6 -9l-1 -5h13l3 2l-5 19h-9zM435 211h-2l2 -7l9 3l4 -9l-6 -10l4 -2l4 5l1 7l7 2l4 7l-3 3l-17 3zM412 193h-2l1 -9l2 -2h6v5l-2 3h-2l-1 3l6 4l1 5l-5 1l-2 -9zM434 161h3l-1 12l-3 2h-5l1 -12zM-98 -172h3l2 3l-1 7l-6 2l-2 -8zM-34 4l2 1l-3 7l-6 2l-2 -2l2 -7l4 -2z M30 118l-1 -2l3 -2l8 1l1 3l-3 7h-2v-2zM450 229l-2 -2v-4l7 -3l4 2l1 3l-6 4h-4zM44 201l-1 -1v-5l5 -4l4 6v5zM521 338h2l-1 10l-6 1l-2 -3l4 -7zM464 254h2l-1 9l-5 2l-2 -3l1 -4zM478 274v-2l13 -2l-1 4l-7 3zM118 338h2l2 3v5l-2 3h-2l-2 -3v-5zM147 404v2l-13 2l2 -4 l4 -2zM-7 36l-2 -4l3 -2l4 1l2 4zM156 444v-6l2 -1l3 2v4l-3 2zM72 227v-7h4v7h-4zM-43 -47l-2 -4l4 -3l3 5zM95 270v-5h5v5h-5zM39 182h4l-3 6l-4 1zM392 148v-5l4 -1v6h-4zM96 284l-1 2l-6 -4v-2h3zM451 142l2 -1v2h2l-1 4l-3 1v-6zM68 238v-4h4v4h-4zM383 177v-4h4v4h-4z M118 59v-4h4v4h-4z" glyph-name="fi" horiz-adv-x="674" unicode="fi"/>
<glyph d="M358 94l-2 2l-8 1l-27 -13l-23 -14l-6 -6l-13 -4v-2l-28 -8l-16 -3l-31 -10h-34l-15 -2l-6 -3l-8 -12v-33h-2l-2 -10l-3 -3l-4 -14l-4 -33l-1 -15l-20 -54l-9 -28l-3 -1v-5h-2v-4h-3v-5h-2v-4h-2v-5h-2v-4h-3v-5l-17 -25l-20 -26l-34 -34l-6 -1l-2 -4l-28 -11l-6 -4 l-15 -5l-28 -3l-25 4v2l-28 7l-24 22l-4 6v4h-3l-6 26l-3 20v24l2 1l5 31l3 10l4 5l1 9l7 11l10 30l10 23l1 12l13 29l5 7l2 12l5 9l3 12l5 5l2 8l5 7l12 42h3l11 27l2 12h3v4l11 25l4 14h3v4h2v5h2l5 16l2 2l1 8l12 28l4 7l1 7h2l11 31l3 14l9 11l6 16l3 16h2l9 29l5 5l2 7 l5 4l2 7l5 5l3 8l3 3v4h3l4 32l10 21l6 6v5l3 2l1 7l5 8l9 34l7 14v5h2v4h2l5 16l12 28l11 31l14 30l7 9l3 11l4 1l11 27l1 8h3l1 6l16 23l18 25l22 23l12 12l10 3l5 5l15 5l13 7l8 2l13 7l32 1l31 -4l12 -2l16 -10l4 -1l10 -13l6 -5v-5l6 -4l2 -7l5 -6l4 -23l4 -31l2 -8 l-2 -22h-3l-1 -15l-3 -6l-8 -30l-10 -31l-3 -2l-3 -11l-2 -2l-1 -17l-3 -2l-11 -24l-12 -26l-8 -15l-3 -16l-5 -14l-7 -9l-7 -18l-3 -11h-3l-1 -6l-5 -8v-3l-5 -8l-2 -7h-2v-5h-3l-5 -14l-3 -2l-15 -29l-3 -3l-3 -8h-2v-5h-3l-1 -7l-18 -25l-1 -6l-5 -3v-4l-6 -5v-4l-12 -9 v-5l-25 -20l-20 -13l-4 -5l-6 -1l-6 -5l-30 -8l-4 -2h-7l-4 -3l-36 -3l-13 -5l-11 -12l-10 -26l3 -14l11 -12l15 -8l14 -4l16 -2l14 -4l14 -1l33 4l24 3l19 8l6 5l30 10l21 15l5 7l8 3l2 5l7 2l2 5l7 2l22 21l4 7l11 10l1 3l5 4l1 6l10 11l16 29l6 5l1 6h2v4l7 15l6 22l5 6 l4 15l6 8l4 16l14 24l1 9l3 1l3 14l10 24l14 30l3 11l2 2l2 12l11 25l2 8l8 12l10 32l13 30l10 30l5 10l4 16l3 2l8 13l9 30l7 14l9 11l14 7l18 2l32 -2l17 -1l13 -4l13 -9l2 -12l-6 -26l-3 -3l-3 -10l-8 -15l-2 -9l-6 -6l-4 -19l-14 -27l-11 -30l-13 -29l-7 -18l-6 -15 l-3 -3l-6 -25h-3v-4h-2v-5h-2v-4l-7 -9l-9 -30l-12 -30l-11 -29l-13 -25v-4l-9 -25l-9 -23l-5 -4v-5h-2l-2 -13l-3 -2l-4 -15l-7 -10l-1 -6l-12 -29l-10 -31l-10 -28l-3 -18l1 -17l6 -16l4 -5l7 -4l8 -1l19 7l23 15l5 7l6 1l2 5l7 2l11 13l21 16l2 7l9 7v4l7 5v4l13 17v4 l5 4v5h2l17 27l12 15l13 22l10 15l6 6l7 3h7l23 -13l1 -6l3 -3l3 -9v-8l-11 -22l-5 -4v-5l-3 -1l-7 -15l-3 -2v-5l-6 -6l-3 -7l-12 -12l-4 -9l-22 -24l-2 -7l-10 -12l-1 -4l-12 -11l-3 -7l-23 -22l-12 -11l-19 -22l-7 -2l-2 -4h-5l-2 -3l-12 -6v-2l-20 -8v-2h-4v-2h-5v-2 l-26 -8l-26 -2l-3 -2l-14 3h-18l-12 4h-5l-15 7l-12 8l-15 17l-1 4l-5 5l-6 25l-1 25zM170 263l2 1l24 22l6 6v3l10 12l11 18l10 22l6 5l1 6l6 7l1 5h2v5h3l1 8l12 28l6 6l11 28l15 29l4 12l3 2l1 7l8 9l6 22l3 3l4 15l4 6l11 28l6 22l10 31l9 33l2 14l-2 6l-17 14l-8 -1 l-8 -5h-4l-3 -5h-4l-22 -25l-3 -9l-7 -5l-9 -13l-2 -8l-5 -8v-4l-5 -7l-2 -8l-8 -14l-10 -28l-11 -30l-13 -28l-3 -14l-5 -7l-11 -25l-3 -15l-6 -8v-4l-14 -28l-10 -32l-13 -27l-11 -29l-7 -15l-1 -7l-5 -5v-7l-4 -6l-3 -11l3 -8l4 -3h11l15 7zM-30 -227l1 1h4v3h5l2 4l7 3 l20 24l9 14l8 25l4 2l18 58l7 14l11 30l2 18l6 26l2 17l-1 16l-6 16l-6 6l-6 3l-7 -1l-11 -10l-12 -27l-1 -6l-3 -4l-1 -7l-10 -22v-5l-6 -6l-9 -21l-2 -12l-2 -1l-4 -18l-9 -13l-9 -29l-5 -15l-13 -24l-5 -21h-2l-5 -25l2 -7l5 -7l8 -2zM385 117v-5l13 1l3 -3l-2 -3l1 -8 l4 -1l8 7v17l-4 3l-5 -6l-13 1zM434 166l1 -2l-7 -3l-7 1v-5l4 -6l8 -3l7 5l1 4l-3 11l-5 5l-4 1l-3 -3zM439 176v-5l7 3l5 6l7 20l-7 5zM476 278v-3l18 -2l-4 12l-6 5l-4 1l-5 -9zM476 273v2l-5 -1l-2 -3l2 -14h9l6 4l1 5h-5zM482 319l-2 -1l4 -7l3 -13h2l7 18l-6 4z M56 197l-1 1l-6 4h-4l-4 -6l1 -4l8 -3h8l3 2v4zM394 191v-9l3 -2h9l2 -7h4l-1 8l-6 9zM591 524l-2 2v2l-8 3l-5 -1l-1 -4l3 -7l9 -4zM426 96v-2h13l3 2l-1 14h-4l-3 -7l-6 -3zM38 169h-2l-1 -4l-10 -6l12 -1l9 3l2 3zM410 132h2l1 8l-4 8l-3 2l-2 -3v-9zM408 82v-2h7l2 2h8 v6l-4 1l-9 -2zM390 131l2 -1l-1 4l-4 4l-11 1l1 -4zM188 509l-2 -1l-1 -7l5 -2l-1 3l2 4l8 6l-2 3v-2zM45 243v-11h4l3 3l-1 7zM458 53h2l4 6v3l-6 2l-2 -3v-5zM510 420v-2l11 2v4l-7 2l-3 -2zM207 581h2l2 3v5l-5 3l-2 -3v-5zM54 221h-2l3 -7h6l-1 8l-5 1zM236 628h6l-1 4 l-10 5v-4zM428 130v2l-9 3l1 -5l3 -2zM73 291v-2h4l2 3l-1 4l-3 2zM372 151v-3l4 1l2 3l-2 5h-2zM73 221v-7h6v4zM57 130v2l-6 2l-1 -4l4 -2zM240 678v-5h5v5h-5zM421 189v2l-5 2l-1 -4l3 -2zM591 553l-2 -4l7 -2l-1 4zM250 649h4l-1 4l-6 2zM447 135h4l-1 4l-6 2zM519 332 v-5l4 -2v6zM23 85v-5h4v5h-4zM82 233l2 -1v2h2l-1 4l-3 1v-6zM70 232v2l-6 2v-4h6z" glyph-name="fl" horiz-adv-x="674" unicode="fl"/>
<glyph glyph-name="space" horiz-adv-x="250" unicode=" "/>
<glyph d="M451 708l2 -1l-1 -16l-11 -28l-8 -13l-5 -4l-1 -7l-5 -6l-3 -1v-4h-2v-5h-2l-6 -28l-10 -25l-2 -4h-2l-14 -30l-8 -18v-5l-6 -3l-3 -12l-6 -6l-4 -14l-15 -28l-1 -6l-5 -7v-4h-2l-1 -12l-9 -12l-13 -27l-2 -8l-5 -7l-2 -7l-5 -6l-2 -8l-7 -13l-5 -16l-15 -27l-7 -21 l-15 -21l-4 -15l-12 -20h-5v-2l-12 -4l-18 -2l-8 1l-2 3h-7l-17 16v14l13 28l8 30l5 9l2 14l5 13l5 7l6 20l2 9l3 3l6 29l7 14l11 31l6 15l3 3l4 23l4 14l4 6l9 25l4 20l3 1l-1 8l10 26l1 7l6 6l3 16l10 28l6 14l3 3l7 30l8 13l12 12l30 2l33 2l16 -2l17 1l15 -3zM121 147h2 l2 3h16l20 -7l16 -5l11 -6l5 -7l7 -5l11 -24l5 -15l2 -16l-2 -22l-3 -6l-3 -2l-1 -5h-2v-5h-3l-3 -7l-17 -15h-5l-6 -6l-7 -1l-5 -5l-29 -5l-18 1l-18 6l-3 5h-4l-23 23l-7 9l-6 30l4 33v5h2l3 14l23 23l14 7z" glyph-name="exclam" horiz-adv-x="353" unicode="!"/>
<glyph d="M85 382l-2 1l-1 15l4 15l1 12l3 5v8l4 7l2 20l11 28l7 31l8 29l6 30l7 32l7 31l10 30l4 18l7 7v3l5 6l11 6l2 3l7 4l11 1l3 3l15 3l33 -6l12 -6l12 -12l8 -13l5 -17v-17l-4 -20h-2l-10 -25l-2 -2l-1 -7l-6 -6l-6 -14l-9 -11v-5l-10 -13l-14 -27l-7 -9l-1 -7l-5 -5v-5 l-3 -2l-9 -18l-10 -11l-9 -14l-7 -21l-13 -21l-6 -12l-17 -25l-7 -2l-4 -4l-19 -3l-7 1zM419 728h2l2 2h25l19 -8l20 -15l2 -7l4 -2l3 -11l2 -2l3 -30l-3 -17l-18 -26v-4h-3v-5h-2v-4l-13 -29l-16 -28l-1 -4l-3 -2l-3 -10l-17 -26l-2 -8l-6 -4l-6 -14l-3 -2l-2 -7l-15 -27 l-5 -6l-7 -19l-7 -5v-4l-5 -2l-1 -8l-17 -20h-7l-7 -3l-19 3l-12 9l-4 11l7 33l1 7l6 12l8 33l2 18l3 2l3 22l3 6l2 15l3 2l7 32v9h2l8 27l7 33l8 31l3 12l5 10l10 12l27 17zM410 633v-5h6l-1 3zM428 623v-4l4 -2v4z" glyph-name="quotedbl" horiz-adv-x="444" unicode='&quot;'/>
<glyph d="M428 704l1 -1l-3 -17l-7 -14l-2 -15l-9 -20l-3 -7l-6 -6l-2 -8l-5 -7l-9 -29l-5 -11l-2 -16l2 -4l15 -9l7 2l31 -2l31 1h32l8 2l12 10l8 10l1 11l6 10l9 29l12 26l10 29l10 26l8 13l5 5l28 5l12 3h20l16 -3l13 -14l-2 -15l-9 -30l-11 -29l-9 -13l-5 -16l-2 -15l-6 -14 l-4 -16l3 -8l7 -3l4 -4l33 3l16 1l15 -2l15 -5l19 -15l3 -14l-2 -8l-17 -30l-11 -12l-14 -3l-34 1l-35 1l-33 -2l-12 -5l-9 -7l-4 -14l-7 -12l-11 -32l-12 -31l-3 -3l-1 -6l-6 -13l-3 -3l-1 -6h-2l-1 -11l-6 -7v-7l-3 -3l-1 -9l-5 -4l4 -15l5 -5l12 -5h11v-2l25 2l2 2l13 -2 l14 3l17 -1l17 -11l-2 -23l-8 -21l-3 -7l-5 -3l-2 -7l-14 -10l-24 -1l-16 -3l-32 3h-33l-14 -5l-11 -10l-12 -25v-6l-5 -11h-2l-11 -32l-5 -4l-1 -6l-14 -29l-3 -15l-9 -21l-20 -11l-32 -2l-11 -2l-3 2l-20 2l-6 6l-1 5h-2l-2 11l11 33l4 9l5 6l2 12l8 25l4 4v4l13 28l7 12 l-1 7l-4 7l-13 8l-32 -2h-36l-31 -1l-12 -3l-2 -3l-12 -7l-1 -6l-14 -31l-11 -30l-1 -8l-7 -7l-1 -7l-8 -11l-4 -22h-3l-3 -16l-12 -17l-16 -8v-2l-15 -1l-32 5l-6 2l-11 -2l-7 3l-8 12l1 16l12 26l5 4l2 13l6 12l5 16l5 5v4l10 13l7 23l1 9l-4 11l-6 4l-32 1l-34 -1h-16 l-14 7l-10 8l4 31l1 3h2l2 9l9 11v5h3l9 8l33 5l29 -2l33 2l17 1l13 4l11 9v4l4 7v5h2l6 22l14 29l10 29l7 8l3 14l5 11l8 9v7l3 3l4 17l-2 8l-6 8l-13 4h-35l-34 -2l-12 1l-6 3l-7 7l-4 14l5 19l9 24l14 14l32 4l32 3l34 -2h16l14 4l10 11l13 30v4l3 2l10 30l7 14l3 11l5 4 l4 23l10 22l10 13l7 6l14 4l33 -2l16 -1l16 -6zM289 257h2l33 -1l33 2l29 2v2l8 1l14 20l8 24l2 2v5l5 4v7l8 15l10 30l14 30l11 27l4 19l-5 7l-10 7l-31 -1h-83l-2 -4l-7 -3l-2 -7l-9 -12l-9 -23v-6l-6 -6l-10 -28l-3 -4l-2 -12l-15 -28l-10 -29l-5 -15v-16l2 -4l7 -4z M317 475l1 -1l4 2l15 -4l9 16l-9 3l-7 -1l-2 -3v-6h-3l-1 7l-2 2l-5 -1v-14zM186 224l1 -1l10 1l2 2l-1 6l-6 5h-5l-2 -3zM176 195l2 -1l2 3l1 10l-3 5l-5 -3l-1 -8zM148 226l-2 -1l1 -4l4 -3v-4l-5 -5v-2l7 3l2 15l-3 2zM411 180v2l-6 3h-7l1 -4l7 -3zM292 511h2l2 3v5 l-5 3l-2 -3v-5zM426 226l-3 6h-7v-4l3 -3h5zM189 246v-3h9v5l-3 2l-4 -1zM525 488h2l-3 8l-4 3l-2 -3l3 -6zM201 196l4 -2l5 6l-4 3l-4 -2zM154 173l-1 -2l9 -2v7h-4zM278 517v-6h6v4l-2 2h-4zM440 235l-2 -1v-4l2 -1l3 2v4l-2 2zM476 219h3l-1 4l-3 2l-3 -5zM547 495v-5h5 v5h-5zM455 230l-1 2l-6 -4v-2h3zM278 465v-4h4v4h-4zM313 505l1 -1v7l-2 -3zM429 228v2l-3 -4z" glyph-name="numbersign" horiz-adv-x="703" unicode="#"/>
<glyph d="M122 263l1 -2l-3 -16l-6 -14l-5 -29l-2 -2v-8l-2 -6l2 -17l8 -15l7 -5l7 -1l12 11l2 7l5 4v6l4 8v4l13 29l2 8l6 6l9 25l10 28l10 25l2 8l3 3l2 6l-1 17l-7 16l-8 8l-1 6l-8 6v3l-12 12h-2l-1 6l-8 11l-1 5l-3 1l-1 6l-7 13l-2 9l-4 6l-3 28l-2 19l-4 16l2 15l5 15l4 27 l5 5l1 8l3 3v4l3 2l15 27l12 12l5 11l24 19l33 18h4l6 5h7l11 7l14 4l25 2v2h9v2h8l27 12l7 6l6 14l5 5l11 29l10 13l12 5h17l8 -2l10 -8l3 -12v-9l-11 -19l-8 -25l-1 -4l2 -7l11 -12l27 -19l21 -24l6 -13l5 -6l7 -28h2l3 -15l-2 -32l-6 -33l-3 -22l-3 -2v-4l-5 -7l-2 -7 l-13 -11l-13 -2h-18l-17 -3l-17 1l-15 5l-9 12l1 13l10 33l5 16l1 20l-3 17l-5 9l-12 3l-9 -3l-4 -11l-6 -6l-2 -13l-8 -22l-3 -3l-4 -14l-6 -9v-5h-2l-11 -30l-10 -30l-6 -15l-5 -4l-2 -15l3 -16l18 -24l19 -26l10 -12l13 -28l7 -13l3 -11l2 -2l2 -32l2 -14l-1 -35l-2 -16 l-10 -23l-9 -18v-5h-2l-7 -14l-21 -24l-10 -11l-26 -17l-17 -11l-28 -10l-15 -6l-30 -5l-33 -2l-16 -4l-10 -11l-7 -14l-5 -17l-7 -8l-1 -7l-8 -15l-12 -11l-17 -4l-9 1l-12 8l-3 5l1 21l3 2l9 26l5 17l-1 14l-4 2l-3 6l-21 13l-6 1l-2 5l-7 2l-21 24l-5 5l-9 27l-8 34l2 16 l3 8l-3 31l4 15l14 32l4 6l10 4l3 3l15 3l15 -2l17 2l16 -1l14 -4zM223 140l2 1l15 7l5 6h5l17 26l4 5l8 32l-2 33l-5 16l-7 7l-7 2l-6 -1l-6 -5l-3 -6l-2 -11h-3l-9 -30l-10 -24l-12 -28l-4 -6l-1 -18l8 -9zM307 599l-1 2h-7l-13 -10l-4 -1l-9 -10l-9 -6l-3 -7l-4 -2l-1 -5 h-2v-5h-2v-4h-2l-5 -18l-3 -28l-3 -8l8 -21l4 -5l8 -2l6 4l15 28l1 4l6 5l3 11l3 3l9 29l4 10l1 8l7 11l1 7zM274 306v-2l3 -2l15 10l-2 3l-14 -5zM102 88l3 -1l4 6l-4 3l-5 -5zM195 526v-7h4v7h-4zM247 417v-4h7l-1 3zM361 653v-5h4v5h-4z" glyph-name="dollar" horiz-adv-x="475" unicode="$"/>
<glyph d="M318 510l2 -1l2 -11h3v-5h2l1 -6l3 -3l3 -11h2l3 -29v-33l-2 -16l-3 -7v-8l-4 -6l-3 -12l-20 -24l-23 -24l-25 -16l-29 -10l-34 -3l-25 2v2l-16 2l-18 6v2l-16 4l-23 18l-4 7l-15 12l-1 6l-5 2l-1 6l-8 15l-8 29l-4 30l1 25l7 24l6 15l7 10v5h3v4l21 23l12 12l7 2l7 5 l7 1l4 5l10 2l6 6l30 5l34 -2h16l12 -3l10 -6l14 -4l2 -3l6 -2l18 -19l6 -1l9 -12zM533 285h2l3 2l32 -3l4 -1l2 -3l23 -6v-3h4v-2l6 -1l6 -6h3l14 -11l22 -24l10 -23l12 -29l4 -14v-14l-2 -2v-28l-7 -27l-4 -9h-2l-18 -27l-8 -14l-5 -5l-6 -1l-4 -7l-26 -11l-29 -11l-12 -3 l-34 -1l-24 1l-2 2l-14 2l-2 3l-14 6l-2 3h-4v2l-7 3l-25 20l-6 5l-4 9l-16 25l-8 15l-4 30l-1 9l3 13l-3 2l5 32l2 2l2 9h3l1 6l7 11l10 22l4 2v5l23 16l2 4l6 1l14 8l3 5l16 4l14 6zM625 560l1 -1l-1 -8l-6 -15l-7 -4v-5l-3 -1l-19 -27l-20 -20l-3 -8l-21 -24l-21 -23 l-20 -26l-20 -18l-2 -7l-21 -23l-20 -24l-21 -24l-1 -6l-6 -4l-1 -4l-23 -25l-19 -24l-22 -23l-2 -1l-2 -7l-4 -2l-3 -7l-4 -2l-1 -6l-21 -25l-21 -24l-20 -26l-20 -23l-20 -25l-22 -25l-18 -20l-2 -8l-7 -4l-11 -10l-13 -3l-38 -1l-7 2l-5 4l-5 8l-1 12l5 4v4l23 23l4 7 l4 1l1 6l7 4l1 6l21 20l3 1l1 6l11 12l4 7l6 5v4l5 3v4l6 5l12 18l5 2v4l22 24l9 12l22 24l10 11v4l23 23l13 20l5 2l1 6l19 19l1 6l13 10l9 14l7 4v5l4 2v5l21 24l2 1v4l23 21l6 6l2 7l9 9l3 7l9 9l2 7l5 2l2 7l21 23l22 24l16 16l3 7l7 5l8 14l11 13l19 6l31 3l9 -2z M168 483l-2 -1l-9 -8l-7 -3l-6 -10l-5 -15l-1 -17l3 -22l3 -2l7 -15l10 -11h4l11 -8l33 -2l1 3l9 1l14 8l15 15l2 7l4 5l1 32l-1 7l-5 10l-23 24l-11 5l-33 3l-2 -3l-9 -1zM515 199h-2l-14 -9h-3l-7 -5l-8 -13l-5 -14v-33l5 -10v-4l9 -11l5 -2l6 -6l14 -6l15 -3h17v3l13 2v2 h5l12 11l9 12l6 15l2 15l-4 17l-6 12l-8 9v4l-14 11l-11 5l-23 2l-2 -2zM450 201l1 -2h8l4 4l-1 9l-4 4l-4 1l-4 -6v-10zM506 228h2l2 3l9 -3l-3 7l-10 7l-2 -3zM269 353l1 2l-2 1l-1 4h-3l-1 -5zM283 380h3v5l-3 2l-3 -3z" glyph-name="percent" horiz-adv-x="682" unicode="%"/>
<glyph d="M311 183l-2 -2l-15 -3l-14 1v2l-21 3l-5 5l-1 8l-3 5l6 31l5 17l11 21l6 5v5l11 11l9 13l16 16h4l12 9l28 16l58 18l33 5l31 7l32 6l22 3l2 2l30 3l29 10l13 3l19 16l6 15v39l26 17l29 8h15l10 -7l6 -12l8 -32l1 -8l3 -2l2 -15l-1 -15l-11 -27l-2 -9l-21 -22l-25 -19 l-13 -7l-32 -10l-15 -5l-14 -2l-13 -5l-15 -2l-15 -5l-8 -8l-3 -7l-5 -31v-14l-6 -32l-9 -22v-4l-3 -2l-3 -12l-8 -11l-7 -15l-3 -2l-2 -6l-5 -6l-1 -5l-5 -4v-5l-4 -2l-2 -7l-9 -7l-16 -24l-15 -13l-8 -3l-2 -5l-6 -1l-10 -12h-5l-8 -8l-12 -6l-29 -11l-29 -12l-15 -4 l-33 -4l-31 -3l-34 2l-27 8l-13 1l-2 3l-29 7v2l-12 2l-14 10l-6 1l-17 16h-3l-25 19l-6 5l-9 13l-6 4l-2 7l-4 2l-16 26l-12 30l-18 62l2 32l1 17l-3 10l6 31l9 29l3 3v7l3 2l2 7l3 3l1 6h3l4 16l7 9v3l14 15l1 6l14 9l9 14l24 17l22 15h4l7 5l14 6l7 5l29 8l30 5l6 5l7 2 l3 12l-1 34l-2 31l2 30l9 23v2l6 6l3 16l5 7l2 7l5 2v5l4 2v4l7 5l2 7l22 23l26 18l19 14l6 1l12 9l31 8l31 5l34 1l12 -2h25l2 -2h9v-2l15 -3l5 -5l15 -4l19 -12l23 -24l11 -12v-4h2l3 -7l4 -2l4 -10l5 -4l10 -31l3 -6l4 -29l-3 -34l-1 -14l-9 -20l-17 -27l-3 -7l-11 -11 l-15 -12l-6 -2l-6 -6l-27 -14l-29 -4l-35 2l-9 2v2l-18 5l-4 6l-7 3l-17 22l-7 13l-5 15l-2 18l1 14l3 2l1 8l4 7l3 2l3 7l11 12l7 1l3 3l6 1v2l15 1l25 -4l19 -17v-5l5 -2l1 -6l8 -5l10 1l6 6l6 14l2 23l-2 8l-5 9l-6 6l-1 8l-6 5l-3 6l-6 6h-4l-5 6l-7 1l-12 8l-13 4h-35 l-23 -7l-10 -7l-7 -1l-25 -20l-16 -19l-1 -5l-13 -25l-3 -18h-2l-3 -32l5 -32l11 -29l14 -20l7 -5v-5h2v-4l3 -6v-13l-6 -12l-6 -5l-4 -8l-10 -12l-1 -4l-6 -1l-5 -6l-9 -4l-17 1l-24 11l-17 4l-15 1l-32 -5l-3 -2h-7l-20 -11l-8 -2l-5 -6l-11 -6l-19 -21v-4h-2l-1 -6l-8 -9 l-13 -26l-8 -33l-1 -36l1 -16l5 -16l12 -29l17 -25l24 -22l15 -13h4v-2h5v-3l31 -6h7l2 -3h14l28 -4l5 3l30 5l23 8l11 9l6 1l26 17l5 7h4l15 19l9 7l3 8l8 10l12 29l9 29l3 17l-2 16l-4 6l-6 4h-17l-3 -3l-11 -2l-29 -12l-18 -14l-6 -2l-3 -3l-2 -7l-11 -11l-9 -31z M467 160l1 -2l4 1l5 6l2 7l-8 -2l-5 -4zM492 329l-1 -1v-4l2 -2l9 -1v5l-6 4zM470 308v-3l12 4l2 3l-3 2l-8 -1zM262 455v-7h7v7h-7zM83 285h2l-1 8l-6 1v-5zM490 507l1 2l-9 2l1 -4l4 -2zM531 509l-2 -4l5 -3l2 5z" glyph-name="ampersand" horiz-adv-x="707" unicode="&amp;"/>
<glyph d="M91 378l-7 7l-2 8l5 31l7 31l10 28l7 10l3 13l-1 26l3 3l1 8l5 6l5 29l9 29l5 32l9 31l5 24l15 21h5l11 12l31 2l14 1l21 -8l2 -5h4l16 -18l4 -1l2 -7l3 -3l4 -30l-9 -30l-1 -3l-5 -3v-4l-7 -14l-4 -13l-6 -5l-3 -7l-10 -12l-14 -28l-9 -14l-2 -6l-7 -6l-9 -15l-12 -28 l-3 -2l-5 -11l-6 -9l-5 -4l-1 -6l-10 -13v-4l-11 -25l-9 -14l-9 -8l-6 -2h-17z" glyph-name="quotesingle" horiz-adv-x="230" unicode="&apos;"/>
<glyph d="M191 281l-1 -1l-5 -32l-9 -24l-14 -28l-13 -30l-10 -29l-6 -5l-7 -15l-5 -23l-8 -15l-8 -30l-6 -14l-3 -13l-4 -34l2 -15l11 -24l13 -28l2 -8l-3 -11l-11 -11l-29 -18l-11 -9l-18 -11h-17l-13 8l-10 13l-11 32l-11 16l-3 23l-5 14l-3 17l-3 3l3 11l-2 30l6 33l12 30 l11 31l12 24l12 31l2 8l6 5l10 30l4 11l3 3l10 29l11 31l5 16l13 28l13 31l14 29l10 29l11 31l4 6l9 26l12 29l8 14l11 30l4 15l8 20l5 5l10 30l1 8l14 23l12 26l4 10l6 4l3 7l4 2l12 14l5 12l35 35l8 12l26 18l16 23l6 1l8 10h4l7 10l23 12l2 3l7 2l6 6l8 2l6 6l4 1l7 -2 l18 -16l1 -7l9 -12l16 -30l5 -14v-7l-9 -14l-25 -18l-24 -20l-4 -2l-2 -4l-7 -3l-7 -9l-7 -2l-20 -23l-21 -23l-13 -15v-5h-2v-4h-3v-5h-2v-4h-2v-5h-3l-12 -19l-1 -6h-2v-4h-3v-5h-2v-4h-2l-10 -28l-11 -30l-13 -30l-9 -30l-2 -2v-5l-6 -6l-2 -6l-3 -3l-2 -6l-5 -6l-1 -7 l-3 -3l-8 -29l-12 -31l-12 -29l-12 -21l-2 -15zM413 794h3l-1 10l-10 1v-5l4 -5zM343 735h5l-1 8l-2 3l-6 2l-1 -8zM41 5l2 -2h5l4 6l-1 4l-6 2zM370 744l1 -2h4l3 9l-8 -2v-5zM79 112v2h-9l1 -4l3 -2zM256 593l2 4l-9 2l2 -6h5z" glyph-name="parenleft" horiz-adv-x="400" unicode="("/>
<glyph d="M366 345l-1 -2l-1 -16l-10 -30l-8 -13l-8 -26l-3 -15h-2l-5 -15l-10 -17l-12 -26l-9 -28l-9 -27l-8 -16l-4 -15h-2v-5h-2v-5h-2v-4h-3v-5h-2v-4h-2v-5h-2v-4h-3v-5h-2v-4h-2l-9 -21l-4 -3l-1 -6l-10 -7l-2 -7l-4 -2l-3 -7l-6 -6v-5h-2l-1 -7l-23 -22l-20 -24l-12 -11h-4 l-22 -22l-6 -9l-7 -2l-9 -9l-7 -2l-5 -5l-4 -1l-5 -6h-4l-25 -17l-11 -6l-8 2l-7 5l-4 6l-4 15l-11 13l-12 10l-1 7l-9 14v14l11 12l25 18l23 22l25 20l22 25l22 24l19 26l6 15l5 4v5h2l1 11l5 6l12 28l5 6l2 12l11 25l10 30l1 6h3v5h2v4h2l1 6l6 9l9 24l3 4l1 12l5 9l5 4 l1 6l7 12l9 34l5 14l15 27l11 30l1 6h3l33 90l6 19l12 24l3 3l1 6l12 29l5 15l9 13l6 14l3 16l5 9l8 31l-3 33l-8 30l-4 10l-5 5l-4 15l2 16h2l3 7l24 18l28 19l16 9l15 -5l12 -11l7 -14l8 -9l11 -31l8 -22l2 -4v-31l2 -16l-3 -31l-4 -31l-3 -6l-3 -21h-2l-1 -5l-3 -2 l-13 -28l-5 -18l-10 -26l-5 -4l-8 -27l-3 -5v-7l-16 -27l-3 -17l-11 -29l-7 -10v-7l-12 -30l-5 -7l-1 -7l-3 -3l-1 -8l-7 -7v-4l-4 -2zM298 248h-8l-9 7h-4l-8 -4l-2 -3l3 -2h10l3 2l7 -11l7 3l4 6zM306 354v-2l8 -1l8 3l-1 9l-4 4l-4 1zM331 373v-3l11 3v8l-2 3h-7l-3 -7z M263 234h-2v-5l13 -10l2 3l-6 10v5zM312 315l3 1v5l-5 7l-3 1l-3 -2l4 -11zM250 246l-1 -3l5 -6h2v2l5 5v2h-11zM318 403l-1 -1v-4l11 -3v5l-2 3h-8z" glyph-name="parenright" horiz-adv-x="400" unicode=")"/>
<glyph d="M291 583l-1 -2l8 -10l15 -2l15 1l31 7l34 -2l15 -3l2 -3l7 -2l10 -12l8 -15l-2 -30h-2l-18 -26l-9 -4l-3 -4l-21 -4l-33 9l-29 7l-14 5l-16 2l-5 -7l-2 -12l2 -2l1 -7l8 -16v-3l8 -9v-4l6 -4v-4h2l7 -21l2 -31l-4 -14l-3 -2l-3 -7l-6 -7h-4l-2 -4l-14 -3v-2h-25l-9 5 l-7 1l-17 16l-8 30l-2 29l-1 34l-1 12l-12 9h-4l-25 -20l-3 -7l-11 -10l-7 -10l-8 -3l-4 -5l-4 -1l-13 -10l-14 -3l-15 1l-23 10l-8 13l-10 27l3 18l7 13l12 13l10 4l7 5l29 10l23 8l13 8l5 9l-10 13l-25 12l-15 8l-7 8h-4l-2 3l-5 1l-2 4l-7 3l-9 12l-4 1l-2 7l-3 3l-2 16 l1 9l3 4l4 16l16 18h5l2 4l7 2l27 -2l12 -7l6 -2l14 -12l8 -13l18 -23l12 -13l4 -7l6 -4h8l6 4l3 5l3 34l8 30l2 17l16 25l3 3l6 1l5 4l29 4l15 -7l13 -11l14 -20v-7l2 -2l-3 -17l-5 -13l-18 -26l-1 -6l-9 -11z" glyph-name="asterisk" horiz-adv-x="423" unicode="*"/>
<glyph d="M409 503l2 -2l2 -17l-3 -15l-13 -29l-12 -29l-12 -30l-10 -29l3 -6l11 -6l35 -2l34 -1h48l13 -7l5 -6l2 -7l-4 -17l-6 -9v-7l-5 -4l-3 -14l-8 -14l-10 -8l-1 -3l-11 -4l-34 -3l-31 2l-31 -2h-35l-14 -2l-6 -3l-7 -8l-12 -28l-12 -32l-7 -8l-6 -25l-3 -2l-6 -23h-3 l-14 -29l-11 -8l-14 -3l-35 -1l-14 -2l-2 2h-9l-13 6l-8 10l8 32l12 27l14 31l11 28l5 22l-14 16h-29l-34 -1l-31 3l-15 -2l-12 2l-10 10l-3 12l5 15l4 6l4 16l8 12l5 15l11 11l30 3l11 3h40l32 -1l32 -2l13 6l10 11l11 30l6 9l4 16l8 21l5 5l1 7l7 10l9 30l5 14l6 4l3 7 l14 5h31l28 2l2 -3l14 -1zM311 308v-8l9 1l7 3l-1 5l-5 5h-6zM314 339v-3h8l3 2l-1 8l-6 1zM258 253l1 -1l5 1l3 3l-1 6l-4 2l-4 -1v-10zM304 274l-2 -4l6 -4l10 -2l-3 7zM363 305l-2 -1v-4h2v-2h5l2 2l-2 7h-5v-2zM260 241l-1 -2l9 -3v5l-3 2zM205 278l2 -1l2 9h-6z M262 288v-2h4l2 4l-4 3zM282 311l-2 -4l4 -3l2 5z" glyph-name="plus" horiz-adv-x="590" unicode="+"/>
<glyph d="M117 147l3 1l2 2h15l14 -5l18 -3l12 -6l11 -10l17 -22l5 -30l3 -26l-5 -16l-1 -17l-4 -11l-9 -15l-4 -2l-1 -7l-7 -12l-3 -2v-4l-5 -2v-4l-4 -3v-5l-10 -8l-2 -6l-36 -33l-5 -8l-24 -18l-9 -8h-5l-1 -3l-4 -1l-11 -9l-4 -1l-5 -6l-16 -9l-10 -2l-8 1l-11 9l-7 3l-6 10 l-3 17l13 19l10 4l12 8l4 5l25 18l12 12l4 10l17 17l3 7l-4 15l-23 24l-3 1l-1 6l-3 3l-2 9l-5 7l-4 32l8 32l5 6l2 7l24 19l6 6zM137 50l1 -2h6l3 7l-3 7h-4l-4 -7z" glyph-name="comma" horiz-adv-x="291" unicode=","/>
<glyph d="M421 318l1 -2v-16l-10 -30l-6 -12l-12 -13l-15 -4h-16l-8 2l-30 -3l-64 2h-31l-15 1l-32 -3l-32 3l-10 4l-6 5v21l8 12l8 31h2l10 11l15 5l29 3h36l16 -2l9 -3l5 4l7 -3h31l32 -2l14 4l18 1l27 -4l13 -6z" glyph-name="hyphen" horiz-adv-x="500" unicode="-"/>
<glyph d="M105 147l2 1l18 -2l30 2l11 -2l9 -4l1 -3l19 -13l2 -7l5 -2l1 -6l8 -13l2 -9h3v-29l-3 -2l-1 -16l-5 -14l-12 -15l-9 -7l-21 -10l-13 -9l-15 -4l-15 7l-32 7l-19 15l-4 10l-6 5l-8 29v27l2 2l2 16l5 5l3 7l25 21l2 4zM157 58v-5h4v5h-4z" glyph-name="period" horiz-adv-x="291" unicode="."/>
<glyph d="M385 717v2l5 7l4 2l6 14l8 31h2v5h3l2 11l4 2l9 25l16 18l12 3h17l7 -3l8 -11v-13l-13 -33l-13 -27l-10 -30l-14 -29l-3 -16l-12 -29l-13 -29l-9 -27l-8 -13l-11 -32l-9 -18l-3 -3l-3 -16l-3 -3l-3 -13l-8 -17l-2 -12l-17 -28l-12 -30l-7 -15l-6 -21l-1 -8l-9 -16 l-11 -31l-12 -29l-12 -30l-9 -31l-3 -8l-8 -10l-9 -19l-3 -16l-6 -10l-1 -6l-3 -2l-10 -30l-7 -14l-3 -11l-8 -12l-8 -31l-5 -14l-14 -27l-12 -28l-11 -31l-6 -15l-3 -14l-5 -7l-1 -7l-8 -14l-23 -22l-17 -3l-11 3l-11 16l7 26l6 18l5 6v5h3v4h2l7 29l10 30l14 30l8 20 l13 29v3h2v4l12 30l5 11l1 7l14 29l4 7l1 7h2l4 16h2l10 27l3 4l3 16l16 27v5h3v4h2l4 27l5 10l2 11h2v4h3v5h2v4h2v5h3l8 29l10 16l11 30l2 8l8 11l11 27l2 8l7 12l6 17l8 29l13 30v3h2l6 23l9 12l3 10l5 6l6 17l5 4l5 12l2 18l4 13h2v5h3z" glyph-name="slash" horiz-adv-x="452" unicode="/"/>
<glyph d="M3 185l1 2l-3 15l2 30l6 29l5 28l6 30l2 2l3 15l12 30l10 30l12 30l11 29l14 29l16 28l9 12l11 23l18 25l3 3l1 6l6 5l8 13l5 4l6 10l7 5l1 4l6 5l8 14l23 22l7 4l11 11l14 9l2 3h5v2h4v3h5v2l6 1l15 11l6 1v3h5v2h4v2h5v3l31 6l31 5l32 -3l26 -6v-2l20 -9l7 -2l9 -8 l2 -4h5l4 -7l7 -4l2 -7l5 -2l2 -7l5 -5l1 -7l7 -15l10 -30l2 -32l2 -5v-10l3 -3l-3 -32l-2 -31l-6 -32l-7 -30l-5 -31l-4 -7l-5 -17l-4 -16l-7 -13l-8 -32l-1 -8l-3 -2l-12 -28l-5 -15l-14 -29l-7 -19h-2l-16 -29l-18 -28l-17 -28l-6 -10l-6 -4l-3 -7l-5 -2v-5l-4 -2v-5 l-7 -4l-2 -7l-23 -23l-24 -20l-25 -19l-23 -17l-30 -11l-27 -10l-15 -3h-36l-32 4l-29 8l-27 19l-10 13l-3 7l-4 2l-9 14v4h-3v5h-2v4l-5 12l-7 34l-4 32l4 32zM333 628l-1 -1h-4l-3 -5l-7 -2l-22 -23l-7 -3l-7 -6l-15 -27l-7 -9v-5l-16 -20v-4l-5 -7l-2 -7l-16 -20l-1 -6 l-14 -27l-14 -30l-4 -12l-3 -2l-1 -7l-5 -6l-3 -10l-9 -11l-8 -31l-11 -30l-10 -30l-9 -31l-4 -15l-6 -11l-7 -31v-4l-2 -2l1 -8l-3 -2l-3 -34l2 -32l6 -7l1 -7l11 -13l13 -9l16 -4l15 2l15 8l23 22l11 12l16 25l21 25l3 3l2 7l5 4l2 7l5 6l4 12l9 9l2 7l5 4l9 25h2v5h2v4 l5 7v5h2v4l7 16h2l10 29l4 5l10 30l3 2v4l5 7l7 27h2v5h2v4h2l1 7l7 16l1 10l8 28l6 23h2l5 30l4 32l2 31l-9 31l-16 15l-18 4zM382 276v-3l-4 -6l-7 -3h-5l-4 -18l16 5v9l4 7h14l-1 4h-8l-2 14l-16 2l1 -6l11 -2zM457 488v-2l5 -6l-3 -10h5l4 5l-2 6l5 17l-6 4h-3zM411 368 l1 -2l4 1l3 4h9l4 4l-3 -1l-7 3l-6 9l-9 1v-9zM99 296h2l3 8l-2 7l-7 3l1 -16zM395 342l1 -1l7 -10l4 -1l-7 16l-11 2l-1 -4zM412 414l-5 -5l7 -4l1 4l13 12zM155 487l1 -1l4 1l5 6l-3 2h-8zM109 383l-1 -1l-5 -2l1 -2l11 3l2 6zM161 461l-1 -2l4 -2l5 2v2l-3 2zM441 350 l1 2l3 3l-1 3l-6 -2zM143 461l-1 -2l7 -2l-1 4l-4 3zM455 516v-5l4 -2v6z" glyph-name="zero" horiz-adv-x="513" unicode="0"/>
<glyph d="M164 -1l-1 -1l-64 2l-21 2l-8 11v7l5 14v16l12 28l3 2l2 7l5 4v4h3l3 14l7 15l3 15l3 5l1 9l3 1v5h2v4l8 11l5 26l10 16l9 27l9 28l14 29l8 15l11 28l2 9l4 4l1 11l5 7l5 16l8 15l5 15v11l-2 4l-16 -4l-22 -23l-2 -7l-24 -21l-67 -67l-18 -16l-9 -2l-8 1l-12 9l-5 6l-5 2 v4l-8 14l-1 6l6 15l22 23l24 19l21 24l24 23l3 3l1 6l17 15v4l23 22l10 11v4l8 6l2 7l23 22l22 25l1 6l7 4l19 26l11 11l2 6l11 13l6 11l14 16l2 7l12 12l18 26l12 10l13 3l35 1h35l11 -5l6 -6l3 -11l-2 -17l-10 -20l-1 -7l-5 -9l-4 -3l-6 -28l-11 -25l-8 -21l-9 -22l-1 -7 l-11 -27l-5 -2v-5h-2v-5h-2v-4l-13 -28l-5 -8l-5 -28l-14 -29l-4 -7l-3 -12l-8 -15l-1 -8l-6 -10v-5h-2l-2 -12l-12 -19l-7 -13l-8 -32l-8 -21l-4 -2v-5l-5 -4l-9 -30l-6 -18l-5 -4v-5l-5 -4l-7 -29l-12 -28l-10 -27l-10 -24l-7 -13l-2 -8l-3 -3l-5 -18l-5 -7v-4zM292 425 l-2 -1l-4 6l-5 1l-3 -3h-6l4 -9l-3 -6v-4l5 -5l5 -1v4l-4 5l1 4l21 1l1 3l-5 6zM304 482l2 -2l8 3l17 2l-2 8h-7l-7 -4l-11 5l-3 -4zM323 532l1 -2l6 3l1 15l-7 -3l-3 -7zM304 575v-2h9l6 3v2l-3 1l-3 6h-3l1 -3zM293 462l1 -2l-4 -6v-3l7 3l2 4l-2 7l-5 2zM254 334l2 1v4 l-3 3h-6v-5l2 -3h5zM365 602l4 -2l5 7l-2 2h-4l-3 -3v-4zM351 558l2 -1v7h-4l-2 -2z" glyph-name="one" horiz-adv-x="404" unicode="1"/>
<glyph d="M-73 16l-1 1l2 16l8 13l24 60l6 12l13 12l16 10l6 7l7 2l6 6l14 8l2 3l7 2l7 9l4 1l26 20l26 17l21 18l9 8l4 1l5 6l13 8l8 9l6 2l22 23l17 14h3l26 21v4l34 34l13 9l20 23l23 25l6 6l18 24l17 26l14 25l1 7l5 6l7 30l3 32l-2 17l-6 18l-6 3l-3 8l-8 6l-7 2l-5 5l-15 3 l-17 -2l-18 -5l-14 -6l-10 -8l-6 -1l-21 -24l-5 -5l-2 -9l-5 -4l-1 -7l-5 -6l-3 -10l-3 -3l-1 -6l-7 -14l-6 -32l-12 -22h-5v-2l-13 -2l-35 -1l-32 -2h-4l-9 7l-1 3l-6 5v30l5 32h2l8 28l14 29l7 16l15 21l9 14l23 22l3 3l5 1l11 11l14 9l6 1l5 6l30 11l2 3l19 6l35 3l30 4 l18 -1l30 -7l30 -4l16 -5l8 -8h4l25 -20l15 -23l12 -20l1 -7l6 -11l4 -36v-31l-3 -33l-8 -28l-11 -29l-10 -16v-5l-4 -1v-5h-2l-1 -7l-6 -4v-4l-3 -2l-1 -5l-5 -3v-4l-4 -2v-5l-7 -4v-5l-5 -2l-1 -6l-10 -8v-4l-23 -23l-20 -25l-23 -23l-22 -21l-24 -21l-15 -14h-4l-7 -10 l-13 -12l-6 -2l-24 -19l-3 -4l-11 -3l-24 -22l-24 -20l-4 -5l-13 -7l-7 -7h-5l-5 -8l-2 -8l6 -9l31 -2l32 -2l31 2l30 1l34 -1l16 1l10 -2l11 -8l3 -8l-1 -17l-8 -22l-13 -27l-8 -15l-11 -12l-13 -5l-18 -1l-16 4l-15 1l-62 -4h-14l-2 2l-30 1h-33l-33 -1l-31 -1h-32l-31 3 h-25l-8 -3l-15 4zM54 120l-4 -8l4 -2l3 -5l15 8l6 12l-18 -1zM56 83l1 -3l3 -1l11 3l-3 8l-8 4l-4 -7v-4zM439 614l1 -2l10 6l1 8l-9 -1l-3 -2v-9zM72 131l1 -1l11 2v4l-2 2l-11 1zM308 321l-2 -1v-4l3 -3h4l2 7l-2 2zM50 33h3v4l-5 5l-2 -4l1 -4zM113 87l-1 2l-2 1l-4 -2 l-1 -3l2 -2l4 1zM167 537l-1 -2l3 -2l4 1l2 4l-3 1zM94 104l-1 -1l5 -3l2 5l-4 2zM439 589l-1 -2l4 -2l2 5l-4 2zM105 58v2h-7l2 -4h4zM300 323l2 -1l2 3l-2 4h-2v-6z" glyph-name="two" horiz-adv-x="490" unicode="2"/>
<glyph d="M372 384l-2 -1l7 -16l17 -15l3 -8l5 -2v-5l11 -11v-4h3l4 -11l5 -35l2 -11l-3 -31l-5 -29l-9 -32l-11 -29l-3 -3l-13 -27l-9 -13l-1 -6l-7 -4v-5h-3l-2 -7l-7 -5l-10 -14l-24 -18l-29 -18l-14 -8l-6 -6l-6 -2l-3 -3h-5v-3l-31 -7l-10 -2l-2 -2l-20 -3l-33 -2h-33l-32 4 l-31 8l-8 3l-2 3l-27 16v2l-4 1l-20 25l-10 13l-8 29l-5 17l-5 31l2 33l4 32l3 19l3 2v7l2 5l5 5l3 7l6 6l15 6l16 3l22 -6h9l13 4l17 1l15 -5l7 -10l-9 -30l-1 -4l-3 -2v-7l-6 -14l-4 -28l2 -37l4 -15l19 -20l17 -8l25 -5l35 9l28 12l20 13l19 26l11 10l2 8l14 22v4l8 14 l1 9h2l7 27v38l-2 14l-13 26l-7 7l-23 10l-27 5l-5 3h-35l-8 8l-2 6l6 33l5 6l1 7l9 14l1 9l4 2l7 10l12 5l34 3l31 7l26 8l26 16l17 14l1 6l12 10l4 8l11 11l1 6h2l7 25l4 16l1 18l-4 14l-7 14l-10 13l-13 10l-15 5l-32 -5l-26 -8l-25 -22l-20 -24l-4 -7l-5 -4v-4l-9 -18 l-2 -11l-16 -23l-24 -3l-35 1l-33 1l-8 5l-4 20l3 5l3 21h2l10 21l10 26l6 5v4h2v5h2v4l5 3v4l6 5l3 6l7 6l3 7l25 18l24 19l15 12l15 5l5 5l32 2l9 2l10 6l28 4l35 -1h8l30 -5l28 -9l13 -5l24 -17l23 -26l1 -4l3 -2l1 -5l9 -12l8 -24l1 -34l-2 -30l-2 -2l-2 -16l-3 -2v-7 l-6 -10v-4l-9 -22l-20 -25l-21 -25l-24 -20l-3 -3l-7 -2l-5 -5l-11 -4l-5 -5l-14 -5l-8 -6l-7 -2zM307 368v-3l3 -2l7 5v4l-3 2zM51 156v-6h6l1 2l-2 2l2 5zM386 254v2l-9 2l2 -6z" glyph-name="three" horiz-adv-x="509" unicode="3"/>
<glyph d="M399 296l1 -2l12 -4l30 8l12 1l8 -3l21 -22l9 -14l3 -11l-3 -3v-4l-9 -13l-6 -5l-4 -1l-3 -4h-4v-2l-12 -4l-5 -6l-18 -9l-2 -3l-11 -2l-29 -11l-16 -3l-2 -3l-16 -2l-16 -11v-5h-2l-8 -13l-1 -12h-2l-2 -10l-5 -7l-2 -9l-3 -3l-10 -28l-11 -30l-12 -31l-3 -2l-4 -7 l-6 -5l-13 -4l-33 5l-32 -4l-12 2l-9 7l-3 8v16l4 11l4 1v4l5 7l1 7l6 6l11 31l6 15l3 14l13 31l-3 11l-7 4h-15l-14 3l-35 -2l-32 3l-31 -3l-15 -2l-31 2h-35l-15 3l-9 10v16l9 25v3h2v4h2l2 12h2l7 22l5 5l8 13l11 11l9 13l23 22l22 23l8 13l11 10l8 13l22 23l24 23l20 23 l21 22l21 23l23 24l19 19l1 6l12 11l20 25l22 22l11 10l20 25l19 24l23 23l11 10l14 9l31 5l30 -1l34 2l2 -2l33 -3l9 -7l3 -7l-1 -15l-12 -31l-2 -10h-2v-4h-3v-5h-2l-4 -16l-3 -2l-10 -30l-15 -29l-22 -58l-12 -28l-10 -29l-10 -21l-9 -29l-2 -5l-3 -2l-6 -17l-13 -29 l-7 -22l-5 -16zM368 561h-4l-44 -48l-19 -23l-24 -23l-5 -5l-2 -6l-13 -13l-19 -23l-7 -5l-2 -6l-23 -23l-24 -25l-7 -11l-24 -23l-20 -26l-3 -7l5 -8l7 -3l33 -1l32 -6l32 2l17 2l10 3l2 4l6 1l3 8h3v5h2l3 15l11 28l2 2v5h2v4h2v5h3l1 8l15 31l4 14l5 10l5 22l4 3l1 7l5 7 l2 7l5 6l3 10l3 3l9 30l4 9h2l5 20l-2 8l-6 4v2zM305 205v3l-15 14l-6 2l-6 -5v-6l4 -6l-3 -8l-1 -23l7 -2l8 1l3 2v2l-14 13l5 5h13l12 -14l2 4v19l-4 -1l-2 -6h-5zM355 260v-7l-15 -6l-3 -3l2 -13h20l3 6v8l18 13l-5 2l-8 -2zM429 641h-2l-6 5l-5 -1v-7l13 -4l5 -11l7 -3 l4 5v5l-3 6l-1 9h-7zM108 233v-2l8 -7h5l3 2l2 8l-5 12l-4 1zM311 259l1 -3l3 -2h8l11 4l-1 9l-5 4h-5l-3 -6l-7 -2zM82 235l1 -2l-7 -8v-3l11 -5l6 4l-8 23h-7v-5zM431 542l1 -3l11 -5l7 2l-2 1l-1 8l-6 7l2 3l-2 2l-6 -4zM322 241l-1 -1h-12l-2 -5l5 1l13 -8h7l5 3l-10 9z M321 287h-3v-4l4 -6l6 -1l4 11l-5 2zM340 204l1 2l-16 12l2 -9l5 -7l3 -1zM255 223v-8l6 3l1 6l4 1l4 5l-4 3zM290 248l-1 -1v-5l8 -2l3 2v5l-4 2zM346 303h2l5 -6l3 1l1 3l-9 7h-5l1 -4zM248 176h3v9h-7v-7zM130 204h5v9l-5 -1l-2 -3zM291 267v4h-9v-5l4 -1zM260 248l2 -1 v7l-7 4v-5zM461 659v-5h6l-1 5h-5zM430 570l-1 -2l5 -2l2 4l-4 3zM467 591h3v4l-5 2l-1 -4zM441 584v-5h4v5h-4z" glyph-name="four" horiz-adv-x="536" unicode="4"/>
<glyph d="M253 534l-3 -3l-6 -23l3 -4l8 -3l15 3l30 9l33 2l31 -5l15 -5l27 -17l13 -16l12 -11l13 -22l8 -33l6 -31v-16l-3 -13l-1 -34v-16l-8 -30l-9 -31l-16 -40l-12 -29h-3v-4h-2l-3 -10l-5 -5l-16 -26l-14 -18v-5h-3l-2 -7l-6 -4l-3 -7l-27 -27l-6 -1l-3 -5l-15 -8l-12 -11h-5 l-2 -5l-6 -1l-2 -3l-29 -13l-15 -6l-13 -3l-4 1l-20 -6l-5 -3l-31 -5l-11 1l-2 2h-7l-7 3l-27 -3l-2 3l-14 3l-9 7l-31 11l-4 7l-13 9l-2 6l-23 20l-1 7l-5 7l-8 32v16l3 16v15l-6 12l-2 11l1 13l2 3l-1 8l10 32l7 17l9 12l11 5l33 -2l31 3l16 -1l15 -7l3 -7l-1 -16l-6 -23 l-4 -8v-5l-2 -2l-3 -31l-2 -31l7 -13l2 -9l18 -20h5l4 -5l30 -3l16 3v3h4l7 4l4 6l7 3l5 6l6 3l11 13l7 2l3 3l1 6l7 4l3 8l5 5l2 7l18 27l5 5l15 29l5 11l3 13l2 1l5 14l5 6l7 22l9 30l4 30l1 20h3l-1 32l-5 15l-9 12l-13 9l-14 5l-16 1l-25 -7l-3 -6l-7 -2l-5 -6l-4 -1 l-23 -24l-5 -4l-4 -8l-5 -2l-1 -6l-6 -4l-8 -13l-12 -13l-7 -5l-15 2l-31 11l-24 5l-2 5l-7 2l-8 10l-2 8l1 11l12 25l1 12l14 23v4l3 2l3 16l12 29v3h3v4l11 11v5h2v4l3 6l8 31l12 31l9 26l4 5l10 31l12 28l3 3l3 13l12 12l4 2l30 -3l29 -7l17 -3h21l2 -2l31 -4l15 -4 l33 -2l31 -4l31 2h4l2 2h12l27 16l7 3l14 -4l2 -3h4l7 -9h3l12 -12l12 -19l-4 -13l-20 -24l-12 -14h-5l-2 -4h-4v-3h-5v-2l-25 -9l-23 -7l-20 -7h-64l-11 1l-2 2l-32 2l-31 5h-16l-7 -2l-20 -19v-4l-5 -5zM365 249l-2 -1l4 -8l6 -5l4 -1l4 5l-3 7l-8 3h-5zM178 412v-1 l-18 -8l-1 -4l9 1l12 8l3 -2l4 1l2 6zM407 303l-1 -3h5l3 2l1 4l-3 7l-8 5l-1 -6zM235 626l-1 -2l3 -2v-4l4 -4l3 7l-1 7zM359 187h2l-1 7l-6 2v-7zM205 445v-3l6 2l-2 7h-2zM55 134l-2 -4l7 -5l1 4zM346 222l-1 -2l5 -2l2 5l-5 2zM359 286v-4h4v4h-4z" glyph-name="five" horiz-adv-x="518" unicode="5"/>
<glyph d="M397 515l-1 2l7 31v5h2l3 21l2 2l-1 16l-11 29l-5 7l-7 5l-15 3l-25 -4l-4 -4l-10 -3l-3 -5l-5 -1l-2 -4l-6 -1l-21 -24l-20 -26l-17 -24l-16 -26l-16 -28l-14 -25l-2 -8l1 -6l11 -5l30 11l14 7l14 4l29 3h35l25 -8l12 -3l2 -4h4l23 -22l18 -22l2 -13l3 -2l2 -13l6 -15 l1 -31l2 -3l-1 -31l-5 -31l-8 -32l-4 -19l-4 -6l-5 -16l-6 -6l-1 -6l-5 -4v-7l-3 -3l-11 -20l-11 -23l-19 -25l-21 -24l-14 -19l-13 -8l-5 -7l-7 -2l-4 -6l-5 -1l-19 -13l-17 -12h-4l-5 -5h-5v-2h-4v-2l-13 -3l-7 -4l-21 -3l-33 -3l-31 -1l-16 3l-22 8l-22 11l-21 22l-19 14 l-1 6l-9 7v4l-10 29l-6 12l-3 14l1 32l-1 16l-2 3l5 32l-2 16l2 2l4 31l6 30l7 31l9 30l11 30l5 19l13 26l10 31l12 30l4 7l3 2l1 8l4 6l4 2l4 13l9 15l3 2l1 7l6 6l15 27l8 11l11 11l16 25l14 11l16 18l3 6l6 1l22 23l9 9l6 1l2 5h5l2 4h5v2h4l5 5l7 2v2l15 3l21 9l10 5 l9 1l13 6h32l8 -1l6 3l6 -1l2 -2l17 -1l6 -3h4l28 -14l12 -7l12 -12l7 -4l18 -25l6 -13l2 -16l7 -14l3 -27v-36l-1 -17l-6 -22l-3 -3l-1 -6l-14 -9l-31 -3l-33 -1l-15 1l-13 8zM234 373l-1 -1h-4l-25 -19l-2 -3l-7 -3l-2 -4l-7 -2l-10 -13l-15 -12l-1 -6l-4 -1l-15 -25 l-6 -28l-4 -4l-7 -31l-5 -32l-6 -31v-32l5 -23l11 -12l12 -4l13 -7l18 -4l2 2h7l11 11l7 3v2l7 4l2 3l7 1l23 21l21 24l13 15v4l4 2l12 27l14 27l12 30l10 30l2 4l2 18l4 8l-5 36l-3 6v5l-23 22l-14 7h-11l-2 -2l-16 -3zM88 326l-2 -1l-9 2l-4 -7v-4l4 -2l8 1l18 15l4 1 l-3 7l-7 3l-4 -1zM137 408l-1 -2l5 -6l-2 -16l2 -5l6 2l1 8l-3 10l2 4l6 5l3 7l-7 4l-6 -3zM161 486v-3l9 1l7 3l2 5l-16 7l-3 -6zM137 335l1 1l-7 3l-2 4l-6 -2l-5 2v-4l7 -6l8 -1zM153 433l1 -2h4l3 11h-7l-2 -4zM360 166h-7l-4 -11l10 4zM120 365h2v5l-11 5v-5l2 -3z M110 317l-1 -1l1 -4l3 -1l7 3v4zM102 298v-7h7v7h-7zM187 522l-1 2l-2 1l-4 -2l-1 -3l2 -2l6 2v2zM377 230h6l-1 4l-4 2l-2 -3zM79 302v-7h4v7h-4zM143 429v2l-6 2l-1 -4l3 -2zM97 413v-5h5v5h-5zM366 374l-1 -2l6 -2v4l-4 3z" glyph-name="six" horiz-adv-x="510" unicode="6"/>
<glyph d="M165 18l-18 -18h-32l-11 -3l-16 3l-2 2l-31 -2h-17l-7 2l-7 5l-6 12l8 24l6 4l1 7l5 9l2 8l3 1v5h2l2 9h2l18 26v4l3 1l5 18h2v5l10 16l2 1l3 9l3 1v5h2v4l5 2v5h2v4h2l5 13l19 27l16 26l4 7l4 2l1 7l8 9l4 11h3v5l11 16l5 2l1 6l21 26l5 2v4l7 5v5h2v4l18 26l21 26l6 5 v4l5 2v5h2v5l19 24l14 15l1 6l9 7l1 5l24 24v5l4 2v4l21 25l16 24v8l-5 7l-31 4l-31 2l-33 1l-32 3l-15 -2l-7 -4l-9 -13l-4 -11l-3 -1v-4l-13 -29l-5 -14l-5 -7l-4 -12l-10 -15l-12 -8l-32 -2h-31l-17 3l-13 8l-4 10l10 31l13 30l15 28l6 6l8 27l10 31l12 33l8 14l9 9l13 4 l35 -4l32 -2l32 -3l30 -6l31 -5l14 -6h15l23 3l4 -2l33 -1l31 2l29 11l14 5l13 2l9 -1l14 -7l12 -12l10 -18l-2 -12l-7 -14l-22 -28l-21 -24l-2 -7l-10 -13l-16 -27l-6 -10l-20 -25l-8 -14l-6 -6l-2 -7l-20 -25l-13 -18l-5 -14l-7 -6l-2 -7l-5 -5l-8 -13l-1 -5l-18 -27 l-5 -4l-2 -7l-11 -12l-16 -27l-5 -16l-3 -3l-1 -6l-6 -6l-16 -27l-3 -3v-4h-2l-16 -28v-4l-8 -13l-3 -2l-2 -6l-4 -3l-1 -6h-3l-3 -7l-3 -2l-3 -8l-5 -6l-1 -6l-4 -5l-10 -31l-2 -7h-3l-2 -7l-4 -2l-6 -12l-6 -6l-5 -16l-1 -14l-3 -2l-13 -27l-3 -7h-2v-4zM174 151h2l5 7 l-18 2zM259 630l1 -1l2 -5h3l-1 5l-6 5l-4 7l-3 -1l-1 -4zM161 130l2 -1h7l2 4l-1 2l-4 1l-5 -2zM199 664l2 1l-3 7l-6 2v-5l3 -4zM186 639v-3l7 1l2 3l-7 5zM140 116l3 -1l1 7l-4 2l-2 -3zM213 630l2 -1l2 3l-1 4l-3 2l-2 -3zM197 233h-2v-5l4 1v6h-2v-2zM152 77v-5h4v5h-4 zM437 638v-4h4v4h-4z" glyph-name="seven" horiz-adv-x="460" unicode="7"/>
<glyph d="M336 729h21l2 3l33 -1l31 -4l16 -2l31 -12l5 -5l4 -1l24 -19l13 -13v-5h2l1 -4l6 -5l8 -29l4 -17l1 -15l3 -7l-3 -20l-3 -7l-5 -33l-8 -25l-17 -28l-14 -20v-5l-12 -9l-5 -9l-24 -20l-7 -3l-7 -9l-8 -3l-9 -9l-5 -1l-15 -10l-3 -6l-1 -8l8 -13l4 -2v-4l4 -2v-5l4 -1l1 -6 l5 -2l1 -7l5 -7l5 -15l5 -27v-34l-5 -35l-7 -27l-9 -30l-11 -20h-2l-15 -27l-3 -7l-12 -11l-2 -7l-22 -22l-12 -11l-25 -15l-7 -4l-5 -6l-7 -2l-4 -5h-4v-3h-5l-1 -3l-17 -3l-2 -3l-29 -8l-32 -5l-32 -3l-32 1l-32 5l-18 4l-4 3l-16 3l-10 6h-4l-4 6l-12 5l-3 3l-5 1v2 l-13 8l-16 17l-1 4l-5 4l-6 15v4l-5 5l-5 30l-3 31l1 31l2 17l9 31l4 16l4 4v8l18 26l6 10l3 11l4 2v5l5 2v4l23 22l24 22l23 17l27 12l20 11l9 11l2 7l-1 5h-2l-2 8l-9 10l-2 7l-6 6l-2 14l-3 6l-1 34l3 33l8 22l2 16l10 28l18 28l4 7l3 2l1 5l23 23l23 21l6 6l20 11l19 5 l6 5l30 10zM206 327l-1 -1h-4l-25 -18l-12 -8l-23 -24l-17 -22l-5 -14l-15 -29v-5l-3 -2l-5 -33l-4 -19l3 -29l1 -3l5 -4v-5l5 -2l4 -7l27 -17l21 -6l35 4l19 5l5 5h4v2l6 1l26 21l17 16l3 7l5 3v4l8 10l15 27l2 2l5 29l6 21l2 2v11l3 2l1 4l-4 15l-1 16l-8 13l-12 13 l-25 16l-35 5h-14l-4 -3zM341 632h-2l-15 -6l-25 -20l-13 -16l-17 -25l-8 -13l-5 -14l-4 -35v-16l3 -14l3 -4v-7l12 -12l12 -8l13 -3l18 -1l11 2l1 2l14 5l14 8l19 17l17 26l16 26l8 33l2 32l-3 16l-6 13l-7 9l-6 3v2l-32 5l-6 -1l-2 -2zM238 407l-1 -2l11 -4l7 -16h8l5 -5 l5 -2l7 14l-11 -2l-12 11l-2 4v16l-6 3h-7zM250 369h-2l-2 2l-7 -4l6 -4l19 2l-3 6zM54 119l2 -1l2 5l-3 6l-8 3l-5 -1l4 -7zM365 317l1 -2h4l5 6v4l-5 6h-2l-4 -11zM62 149l-4 -4l-4 -9l11 2l2 3v9zM245 627l-1 -2l16 -3l2 3l-14 9zM467 595l1 -2l7 3l4 9l-6 2l-5 -7z M27 165v-15l6 4l2 6l-1 4zM274 355l-1 -2l8 -2l6 5v4l-8 -1zM369 334l2 -1l2 3l-1 4l-4 2l-2 -5zM353 188v-2l9 -2v6zM380 195h2l2 9h-6zM459 614v-7h5l2 4zM203 411l2 -1l2 3l-1 4l-3 2l-2 -3zM169 559v-6l2 -1l3 2v4l-3 2zM458 516l-1 -2l4 -2l3 4l-5 3zM205 435v2l-5 2 l-1 -4l3 -2zM384 283v-4h5v4h-5zM47 174v-4h4v4h-4zM317 102l-1 -2l5 1l2 3z" glyph-name="eight" horiz-adv-x="512" unicode="8"/>
<glyph d="M3 213l2 2l31 3l35 2l17 -1l13 -5l7 -9l1 -15l-2 -2l-5 -32l-2 -33l2 -21l16 -18l15 -2l8 -3l17 4l7 5l9 2l5 7h4l17 17l3 7l11 12l7 4l2 6l6 4v5l4 2l2 7l4 1l1 5l5 3v4l4 2v4l5 3v5l4 2l7 14l7 9l1 7l15 27l8 15l1 12l-13 4l-15 -6l-1 -4l-3 -2h-6l-7 -5l-31 -7l-31 -4 h-14l-34 6l-21 7l-20 23l-23 26l-3 5v4l-5 12l-6 30v35l2 34l4 31l2 6h2l12 30l7 31l9 13l1 7l6 5l12 29l13 20l9 12l10 14l7 7l17 10v2l4 1l16 21l13 14l7 3l3 5h4l9 7h5v2l14 5l13 8h4l3 3l11 2l2 2l29 4l30 4l18 2l16 -1l2 -2h7v-2h5v-3l30 -11l29 -16l22 -20v-5h3l3 -7 l5 -5l6 -22l11 -30l3 -14v-34l-4 -31l-1 -31l-5 -33l-7 -32l-6 -33l-6 -25l-11 -17l-7 -30l-11 -31l-14 -28l-3 -11l-8 -13l-15 -30l-14 -27l-5 -5l-1 -7l-6 -4v-5l-4 -2v-4h-2v-5l-19 -25l-3 -3l-1 -6l-3 -1l-19 -25l-6 -5l-6 -9l-24 -20l-24 -22l-4 -6l-7 -2l-4 -6l-7 -1 l-2 -5l-14 -4l-27 -15l-7 -4l-31 -5l-16 -5l-16 -1l-30 3l-25 7l-15 4h-10l-25 21l-23 24l-1 7h-3v4h-2l-5 15l-4 19l-6 16l-3 14l-1 16l2 16l3 6l3 21l2 18zM324 634h-7l-5 -5l-7 -3l-26 -20l-23 -22v-4l-10 -8l-4 -8l-7 -5l-6 -14l-2 -1l-6 -15l-16 -26l-8 -21v-7l-5 -5 l-7 -27l-5 -15l-1 -27l-2 -3l3 -25l3 -15h3v-5l4 -2l2 -7l14 -8l9 -3l2 -3l30 3l14 3l18 9l2 4h4l24 19l12 10l22 24l9 9l2 6l7 7l9 31l6 20h2l8 30l3 32l2 34l-4 29l-4 16l-5 9l-7 4l-2 3l-13 3l-2 2l-28 -1zM368 278l1 -2h9l3 8l-3 7l-7 3l-3 -8v-8zM454 539h-3l-3 -4 l-1 -7l6 -5l8 6l1 5zM141 371h2l2 4l-3 10l-8 2v-9l3 -6zM345 303l-1 -2l2 -2l7 2l7 -7l2 7l-4 7h-5zM425 378h-4l1 -8l2 -3h4l4 12l-2 4zM129 418l-2 -4l13 -8l3 1l-3 8zM374 320l2 1l-1 4l-6 3h-4v-4l6 -5zM133 451l-2 -1v-4l7 -2l2 2l-2 7h-4zM470 562l1 -1l4 6l1 6h-4 l-3 -4zM342 172h2l2 9h-6zM396 403v-2l8 2l1 4l-7 -1zM399 340v-3l4 1l1 8l-4 -1zM400 383h3l-1 4l-3 2l-3 -5zM358 269v-4h4v4h-4zM315 180l2 -1l2 5l-2 2z" glyph-name="nine" horiz-adv-x="495" unicode="9"/>
<glyph d="M139 -15l-1 -2l-32 7l-16 8l-15 15l-7 4l-11 20l-4 15l-1 17l3 17l5 15l8 14l21 22h4v2l6 1l14 7l15 4h20l15 -7l4 -1l5 -6l6 -1l23 -23l8 -7l4 -7l2 -16l3 -2l2 -10l-11 -33l-2 -15l-8 -11l-14 -10l-22 -5l-18 -11zM247 454h2l3 2l31 -7l7 -2v-2l16 -7l13 -8l7 -7v-7 l5 -5v-4h2l9 -21l-2 -32l-14 -28l-12 -16l-6 -2l-4 -6l-21 -6h-6v-3l-33 -1l-7 1l-25 15l-13 10l-11 12l-6 12l-4 16v34l6 15l19 27l5 6l5 1v2l27 10zM115 97l-1 -1l-1 -9l-6 -15l5 -3l11 5v5l-5 8l6 10l-1 3l-3 1zM150 77l2 -1l5 -4l4 4l-3 7l-15 2v-4zM108 47l-1 -3l5 -6 h6l2 6l-7 4z" glyph-name="colon" horiz-adv-x="324" unicode=":"/>
<glyph d="M116 145h3l2 3l31 -4l15 -2l9 -4l20 -15l1 -6l7 -4l2 -3l1 -8l4 -3l6 -25l-2 -37l-4 -23l-3 -3l-4 -15l-16 -27l-6 -5v-4l-20 -26l-22 -23l-25 -22l-25 -20l-3 -3l-6 -1l-5 -6l-5 -1l-4 -7l-7 -2l-15 -10l-14 -4l-10 3l-9 6l-15 22v7l9 14l26 20l6 3l10 13l28 28h5l17 24 l1 8l-7 12l-22 25l-15 26l-2 16l1 19l5 14l19 27l10 12zM230 452l2 1h32l8 4l10 -6l7 -1l9 -7l4 -1l7 -9l6 -1l8 -8v-5l4 -2l2 -7l5 -6l3 -31l2 -7v-10l-3 -14l-8 -9l-2 -7l-11 -11l-12 -7l-5 -6l-20 -7v-2l-32 2l-16 2l-13 5l-19 16l-3 7l-7 5l-1 6l-8 11l-3 32l2 15l5 12 h2v4h2l1 6l22 23l6 3l3 5h4zM250 390h-2l1 -4l7 -3l8 3l-1 5l-6 1z" glyph-name="semicolon" horiz-adv-x="324" unicode=";"/>
<glyph d="M579 507h2l2 2l8 1l8 -2l6 -4l5 -7v-13l-13 -32l-9 -23l-16 -28l-15 -17l-12 -1l-2 -3l-30 -8l-29 -8v-2l-20 -6l-1 -3l-11 -2l-2 -2l-15 -3l-31 -12l-25 -8l-31 -12l-15 -2l-17 -8l-7 -1l-5 -3l-32 -9l-6 -1l-2 -3l-14 -5l-14 -11l-1 -6l5 -10l29 -15l28 -14l30 -13 l13 -5l10 -7h5l2 -4l9 -2l2 -3l14 -4l13 -9l7 -2l5 -5l28 -10l15 -8l12 -10l4 -15v-7l-9 -23l-5 -6l-12 -28l-3 -3l-6 -2l-2 -3l-11 -3l-30 12l-29 15l-58 28l-15 5l-6 6l-12 3l-6 6l-16 5l-12 8l-2 3l-6 1l-7 5l-23 9l-16 5l-7 4l-2 3l-14 5l-6 5l-7 2l-8 5l-6 1l-22 11 l-21 9l-2 3l-25 14l-13 12l-4 7v14l5 16l10 16l1 7l4 7v4h2v5h2v4h2l4 8l7 2l14 8l24 10l30 11l31 9l22 6v2l31 10l25 9l7 5l29 11l30 8l30 11l30 10l29 11l26 8v2l31 10l30 10l15 6l11 2l30 12zM172 257l-1 -1h-4l-5 -5l5 -9l20 9l2 9l-4 3l-8 -2zM146 275l-2 -1v-13l2 -3 l9 1l5 4l2 4v11zM214 328v-7h-7l-2 -7l5 -4l6 10l2 7zM178 235v-2l3 -2l4 1l4 6v4l-7 -2zM130 281v-3l10 4l4 -1v4l-3 2h-6l1 -3zM145 310l1 -2l1 7l-4 7l-6 2zM168 298l-1 -1l4 -5l5 7l-3 2l-4 -1zM191 269h1l2 8l-5 4z" glyph-name="less" horiz-adv-x="640" unicode="&lt;"/>
<glyph d="M90 339l-2 1l-4 13l4 17l5 11h2v4l14 31l7 13l17 8h48l7 3l31 -4l32 1l15 1l3 2l32 -3h31l66 2l31 1h31l31 -3l34 3l15 -2l6 -3l4 -7l5 -4v-15l-13 -29l-12 -31l-10 -12l-24 -7h-38l-38 2l-20 -3l-28 3l-34 1l-34 -2h-95l-32 2l-31 -2l-31 1l-16 3zM6 144l-2 1l1 16l4 12 l5 6l2 12l8 21l4 7v4l6 4l4 7l7 2v2l14 2l7 3l31 -5l30 3h31l33 -1l31 -1l32 -1l31 1l32 1l33 -1l31 -1l35 2h30l15 -4l12 -11l2 -13l-4 -18l-13 -29l-10 -13l-24 -14l-15 -2l-4 -2l-30 -1h-59l-31 3l-32 -2l-32 2l-62 -4l-32 2l-31 1l-15 1l-29 -3l-20 -1l-14 2zM326 175 h-2v-5l2 -2l7 2v5l-7 2v-2zM274 196l2 -1l3 12l-3 4l-4 -13zM473 385v-2h4l3 11l-5 3l1 -3zM401 381h2l-2 8l-7 3l2 -7zM351 206v-6h4l3 9zM367 402v-3h4l5 5l-4 2zM377 171l-1 2l-9 -3l3 -3l7 2v2zM303 365v-5h5v5h-5z" glyph-name="equal" horiz-adv-x="606" unicode="="/>
<glyph d="M-2 61l-13 5l-4 4l-2 8l8 30l3 11l5 4l4 16l3 2l1 6l14 23l3 3l7 2l3 6l15 3v2l29 7v3l6 1l24 11l18 8h11l25 9l30 11l31 10l29 11l30 8l27 11l16 3l18 7l14 12v6l-9 12l-6 1l-12 10l-6 1l-5 4l-32 12l-19 10l-2 3h-4l-13 8l-29 12l-10 2v2l-12 3l-2 4h-5l-2 5h-4l-2 3 l-6 2l-2 3l-30 12l-12 9l-7 12l7 24l3 3l10 29l7 13l13 10h8l21 -6l7 -5l8 -2l6 -5h5l5 -6l14 -5l19 -14l30 -10l13 -5l29 -16l29 -12l28 -14l19 -7l6 -5l7 -1l2 -3l7 -2l27 -16l16 -7l9 -6l22 -10l14 -4l14 -7l11 -9v-4l4 -2l3 -10l-1 -18l-10 -18l-7 -27l-4 -2l-5 -10 l-9 -8h-5v-3h-4v-2l-11 -2l-3 -3l-11 -2v-2l-6 -1l-15 -7l-27 -5l-29 -12l-30 -12l-29 -10l-32 -10l-31 -7l-28 -14l-9 -1v-3l-11 -1l-20 -8v-2h-5v-2l-31 -7l-12 -2l-5 -6l-29 -10l-24 -9l-25 -12l-30 -10l-30 -7zM423 273h2l2 5l-2 4l2 2l-4 2l-2 -3zM432 262l2 -1l2 8 l-6 1zM409 300v-2l8 1l1 3h-8zM405 266v-5h4v5h-4z" glyph-name="greater" horiz-adv-x="638" unicode="&gt;"/>
<glyph d="M148 224l-2 1l4 16l15 27l14 23l19 26l2 6l19 24l12 12l7 12l10 8l3 7l24 22l23 23l20 24l23 22l4 7l5 4l3 6l9 10l14 23l9 27l5 11l1 17l-3 17l-6 17l-8 14l-11 9l-13 4l-16 -1l-32 -9l-12 -8l-25 -22l-10 -11l-7 -13l-11 -31l-8 -29l-3 -13l-6 -13l-10 -10l-17 -3 l-40 1l-16 1l-20 12l-2 17l4 31l1 10l7 15l1 16l3 2l7 21l5 6l2 12l6 6l3 6l6 6l8 14l21 24l6 6l9 4l5 7l19 8l29 15l14 6l14 2l2 2l29 1l30 1l6 3l32 -8l30 -2l27 -15l2 -3l7 -1l5 -4l2 -4l13 -9l9 -13l9 -9l1 -6l8 -12v-3l5 -5l3 -30l1 -33l-4 -31l-2 -12l-6 -6l-9 -27 l-7 -13l-16 -18l-2 -7l-15 -19l-11 -12v-4l-23 -22l-23 -21l-4 -2v-2l-9 -5l-10 -13l-24 -21l-22 -23l-12 -10l-13 -15v-4l-6 -5l-1 -4l-7 -5l-2 -7l-7 -4l-2 -7l-7 -5l-11 -18v-4l-5 -2l-2 -7l-12 -8l-12 -4l-9 1l-2 -2l-32 -1l-16 1l-5 3zM135 148h2l3 2l17 -1l13 -4 l23 -18l3 -8l6 -4l3 -12l5 -5l5 -32l-8 -31l-2 -8l-9 -13l-11 -11l-13 -8l-26 -9l-13 -1l-3 2l-17 1l-21 9l-22 23l-1 4l-4 2v4l-5 5l-4 27l-3 7l1 16l5 13l19 27v3l8 8l6 1l2 4l27 6zM443 585v-2h14l2 6l-1 8l-13 2l1 -5zM439 517v-2l8 3l1 6h-5l-3 -2zM447 620l-2 -1l3 -6 l6 -1l-1 8h-6zM432 558v-2l9 -3l-1 5l-3 2zM418 655l-2 -4l7 -3l-1 4z" glyph-name="question" horiz-adv-x="470" unicode="?"/>
<glyph d="M521 72l-2 1l-9 -1l-24 -18l-6 -5l-4 -1l-6 -5l-7 -1l-5 -5l-29 -10l-14 -3l-35 3l-16 5l-11 8l-12 12l-9 13l-12 29l-1 27l2 34l5 33l8 31l5 15l1 14h3l3 15l7 14l3 15l7 19h2v5h3l4 16h2v4h3l1 6l16 29l9 14l9 8l4 10l8 6v3l7 6l18 23l7 1l12 11l26 13l5 1l2 3l32 6h16 l22 -6l5 -4l14 -5v-2l6 -5l6 -1l21 -26l5 -6l11 -6l7 1l16 8l5 5h4l7 4l6 1l15 7l14 4l8 -2l7 -5l4 -11l-4 -16l-5 -7l-2 -16l-12 -29l-12 -30l-12 -28l-12 -29l-13 -31l-2 -11h-3l-4 -16l-6 -5l-3 -13l-3 -3l-10 -31l-9 -32l-2 -33l8 -23l13 -10l29 -5l8 1l9 4l4 5l6 1 l26 18l24 23l22 22l10 11l2 9l5 6l6 15l10 15l6 15l3 3l6 15l3 3l9 29l7 32v5h2l5 31l3 31l-1 33l-2 15l-9 32l-9 30v4l-14 18l-4 12l-5 2v5l-4 2v4l-5 5v2l-25 19l-11 11l-7 1l-13 10l-7 2v2l-6 1l-27 13l-33 9h-4l-16 9l-10 1l-25 -3l-16 3l-32 -3l-33 -3l-30 -11l-29 -12 l-29 -13l-3 -3l-6 -1l-1 -3l-8 -2l-24 -18l-17 -10l-2 -3l-6 -1l-3 -5l-6 -2l-24 -26l-21 -26l-11 -10l-3 -7l-5 -4l-18 -28l-17 -28l-4 -8v-5h-2v-4l-5 -12h-2v-4h-2l-1 -6l-3 -3l-1 -7h-2l-4 -16l-4 -6l-1 -10l-6 -13l-8 -32l-6 -32l-4 -29v-34l2 -35l5 -33l5 -23h2l3 -16 l12 -29l16 -29l20 -23l2 -7l7 -2l15 -18l14 -8l5 -6l9 -4l3 -6l12 -3l5 -5l7 -1l14 -8l31 -6l32 -8h32l31 -2l32 3l16 2l2 2h15l17 3l29 11l23 8l24 10l28 14l4 1l5 5l8 1l8 -2l13 -10l14 -20l3 -22l-21 -23l-9 -4l-13 -9l-26 -12l-15 -6l-7 -6l-10 -3l-3 -3l-28 -6l-29 -10 l-16 -4l-31 -3h-4l-2 -2l-30 -3h-34l-28 3l-33 5l-8 1l-2 2l-15 1l-30 7l-3 3l-30 9l-9 6l-8 2l-5 6l-8 4l-8 7l-6 1l-12 9l-14 7l-24 21l-24 22l-4 8l-5 4l-16 27l-2 7l-10 12l-14 28l-3 8v5h-2l-8 30l-8 29l-4 33l-1 33l-1 15l-3 3l3 32v27l2 2l1 16l2 2l6 25l9 48l11 29 l9 29l9 21l6 6l3 12l6 6l3 12l6 6l2 8l12 19l2 6l20 25l22 24l2 7l5 2l2 7l11 9v3l25 20l12 9l23 24l3 1l7 9l7 2l18 14l6 3h4l4 6l13 6l3 3h4l14 8l7 1l14 7l15 5l32 6l16 7l18 6l62 8l16 -1l16 2l32 -2h12l2 -2l22 -4l26 2l2 -3h7v-2l11 -2l13 -6l21 -5v-3h5v-2l15 -5 l19 -12l11 -3l1 -4l6 -1l11 -11h3l9 -9h3l13 -12l19 -24l11 -11l3 -8l6 -5l12 -27l3 -2l9 -29v-2h2l1 -6l8 -15l5 -15l6 -33l6 -30v-33l-2 -35l-4 -29l-4 -22l-3 -5l-6 -22v-7l-4 -5l-10 -33l-11 -18v-5h-3v-4h-2v-5h-2l-2 -11l-3 -2l-2 -7l-4 -2v-4l-6 -4l-1 -6l-6 -3 l-4 -11l-19 -25l-22 -24l-23 -22l-12 -9l-7 -3l-2 -5l-6 -1l-3 -6h-5l-2 -4l-28 -13l-23 -8l-29 -7l-36 -3l-20 1l-2 3l-24 4l-25 15l-14 11l-15 19l-2 8zM537 385l-2 -1l-6 -6l-7 -1l-5 -6l-4 -1l-21 -26l-8 -12l-11 -12l-3 -7l-3 -2l-10 -31l-14 -28l-6 -15l-1 -7l-3 -3 l-2 -15l-11 -30l-5 -32l-3 -5l3 -17l10 -13l14 -9h15l15 7l27 21l23 23l3 7l10 11l3 12l8 14l4 11h2l9 29l4 11l3 3l10 28l3 3v3l3 2l4 16l6 14l2 32l-5 14l-11 16l-14 6l-7 1zM891 430v-8l9 1l4 6l-6 4h-5zM558 73v-2h4l3 7h-5zM592 137v-5h7l-1 4zM191 239v-5h5v5h-5z" glyph-name="at" horiz-adv-x="1016" unicode="@"/>
<glyph d="M689 147v-2l9 -12l6 -2h17l27 7l16 6l6 6l7 2l25 20l19 24l6 6v4l11 12l4 7l6 4l3 7l12 13l8 14l13 14l15 -1l14 -9l10 -13l2 -11l-4 -15l-8 -13l-6 -5l-3 -8l-6 -5l-3 -7l-5 -4v-5h-2l-6 -14l-14 -17l-1 -6l-4 -2l-4 -7l-3 -2l-3 -7l-21 -25l-11 -7l-3 -6l-6 -1l-26 -19 l-14 -5l-7 -5l-30 -5l-31 -4l-19 -1l-14 -3l-6 -3l-12 -30l-9 -21l-3 -2l1 -23l-3 -7v-7l-9 -30l-7 -32l-9 -24l-10 -13l-6 -5l-14 4l-26 15l-10 5l-22 24l-7 4l-6 12l-2 15l6 33l6 15l7 30v2l3 2l4 21l8 17l3 15l-2 13l-10 12l-9 7l-17 3l-2 3l-7 4h-4l-5 5l-14 3l-6 5 l-5 1v2h-5v2h-4v3l-14 6l-11 7h-5v3h-4v2l-27 9l-13 -6l-22 -23l-7 -8l-8 -15l-7 -5l-2 -7l-11 -9l-7 -11l-7 -3l-8 -10l-6 -1l-22 -20l-7 -7l-11 -4l-4 -5l-13 -3l-2 -3l-22 -7l-5 -5l-15 -7l-14 -4l-16 -2l-2 -2l-33 -2l-16 1l-16 -2l-29 8l-24 5l-18 7h-2l-5 7l-9 2l-2 3 l-7 3l-4 4l-8 1l-15 12v3l-12 12l-14 22l-6 6l-9 30l-4 13l-5 36l1 14l4 16l1 16l2 2l7 32l7 13l1 4l6 5l1 6l23 24l11 11l22 16l14 9l31 7l9 7l29 5l16 1l6 -2l33 3l15 1l33 -4l18 -4l2 -3h8l8 -4l16 -3l22 -9l31 -10l1 -3h5v-2h4v-3h5v-2h4v-2l12 -3l12 6l12 13l6 11l9 9 l1 7l3 2l12 25l8 14l5 4l1 6l8 10l4 11l6 5l16 28l13 27l1 4l6 4l5 14l3 2l4 11l6 5l1 4l6 5l1 4l8 8l1 8l5 5l6 16l5 4v5h2l3 8l5 6l1 6l6 5l3 8l13 20l3 3l1 6l6 6v4l6 6l15 28l16 27l11 23l10 13l4 10l6 4l5 12l24 21l23 24l14 7l11 2l2 2h7l14 6l26 -1l17 -6l17 -3l7 -5 l12 -12l13 -9l11 -12l5 -12v-5l5 -4l2 -29l-3 -32l-8 -23l-1 -10l-2 -1l-5 -28l-6 -24l-2 -3v-9h-2l-8 -33l-8 -30l-2 -6v-10l-3 -2v-7h-2l-8 -30v-12l-11 -30l-6 -28l-2 -2l-2 -11h-3v-5h-2l-4 -32l-2 -11l-4 -7l-8 -31l-9 -30l-2 -16h-2l-6 -30l-6 -15l-2 -16l-3 -2l-1 -7 l-4 -6l-6 -32zM705 673h-5l-11 -3l6 -3l-13 -17l-1 -7l-12 -19l-3 -1v-5l-4 -2l-6 -15l-12 -17v-4l-5 -2v-5l-4 -2v-5l-6 -4l-2 -7l-16 -28l-17 -26l-13 -20l-3 -10l-16 -27l-10 -13l-1 -5l-7 -5l-3 -11l-19 -27l-5 -7l-8 -21l-4 -2l-6 -13l-7 -9v-5l-9 -11l-5 -11l-18 -25 l-8 -16l-5 -15v-6l5 -12l4 -1l4 -7l29 -15l28 -13l29 -16l18 -7l9 3l10 14l5 25l10 31l8 31l10 31l8 31l6 28l10 26l2 3l5 31l6 26l9 29l4 10l6 32l4 15l7 15l1 7l3 3l1 16l10 30l7 31h2l5 22zM98 245h-2l-5 -5l-7 -2l-4 -5l-7 -1l-14 -8l-9 -8l-3 -6l-6 -6l-2 -7l-5 -7 l-1 -30l3 -17l11 -28l13 -12l9 -4l5 -5l13 -3v-3l31 -6l32 4l31 9l22 12l12 8l7 7l6 1l12 12l8 13l22 24l9 13l7 15v6l-3 7l-13 9l-15 4l-13 7l-33 9l-30 6l-34 2l-29 -3zM390 251v-2l4 -4l3 2l7 -2v5l-5 5l1 4l8 1l7 -2l1 4l6 8l-9 -5l-5 1l-6 4h-5zM650 184h-11l-4 7l-5 1 l-2 -2l1 -4l8 -6l1 -6l-7 -7l-1 -4l8 2l9 7zM671 714l-2 -1l2 -8l11 -7l2 15l-2 5h-5zM657 245v-3l4 -2l12 2l2 3l-1 3l-8 3l-6 -1zM741 745h-2l-8 9l-4 -2l3 -7l13 -7h5v9zM608 141l-5 -5h-7v-9l9 1l4 5l3 8h-4zM596 73v-3l3 -1l8 3l4 8l-4 4zM686 308h3l1 5l-2 3l-6 2 l-7 -1l1 -4l4 -4zM719 410h2l6 5l-3 7l-6 2l-2 -3v-8zM664 299v-2l4 -1l5 5l-1 7l-2 2h-4zM638 119l-1 -1v-4l7 -3h6v5l-2 3h-10zM365 260l-4 -2v-4l3 -3l8 -2v7zM774 744l-1 1l-8 4l-1 -4l13 -7h5l-1 4zM709 717l-2 -1v-4l3 -3l8 2v7zM317 211h5l2 7l-2 4h-4l-3 -7z M338 171l-2 -1l1 -4l3 -1l8 2l1 3l-3 2zM556 530h2v9h-7l1 -8zM347 186h4l1 4l-3 7l-3 -1l-1 -4zM372 222v-2l3 -2h5l3 2v2l-3 2h-5zM590 109h2v5l-2 3l-5 1l1 -8zM368 193h2l2 9l-5 -1l-2 -3zM723 720v-2l3 -2l4 1l2 3l-4 2zM580 30v-7h7l-3 6zM596 52v-7h4v7h-4zM748 693 v2l-6 2l-1 -4l3 -2zM707 430v-4h5v4h-5zM322 138v-4h5v4h-5zM659 86v2l-5 2l-1 -4h6z" glyph-name="A" horiz-adv-x="862" unicode="A"/>
<glyph d="M697 -8l-1 -1l-7 -5l-5 -7h-4l-8 -7l-5 -1l-1 -3h-4l-11 -6l-30 -8l-2 -2h-7l-29 -8l-33 -1h-17l-31 6l-15 1l-28 9l-28 16l-7 1l-6 5l-15 5l-11 9l-12 4l-12 9l-8 9l-7 2l-6 8h-4l-5 7l-6 1l-5 4h-18l-19 -14l-5 -6l-8 -4l-2 -3l-6 -2l-21 -18l-8 -1v-2l-45 -21l-23 -5 l-15 3l-30 -4l-16 1l-11 3l-32 4l-16 9l-16 4l-6 4l-2 4l-11 5l-11 12l-13 18l-10 27l-12 31l-3 14l3 17v16l9 23l9 13l6 15l21 24l6 1l11 12l19 14l31 9l14 4h35v-2l33 -2l23 -5l29 -11l28 -18l12 -7l17 -4l12 6l10 12l15 31l11 29l5 12l6 9l9 27l6 10l9 30l3 8l3 2l4 13 l3 4l3 12l5 6l11 30l11 31l4 5l11 29l11 27l10 27l8 14l1 6l7 13l6 5l1 7l12 20l5 5l2 7l13 10l22 22l10 8h5v3l15 8l9 7l9 2l3 3l18 2v3h16l2 -3l6 -2l12 -13l11 -30l1 -7l-6 -14l-12 -13l-23 -19l-19 -26l-8 -14l-6 -6l-3 -10l-5 -5l-6 -26l-12 -25l-2 -7l2 -7l10 -10 l14 -5h33l34 2l32 12l14 6l24 18l11 9l3 6l13 12l2 7l5 2v5h2v4l3 5l2 9l2 2v7h2l5 30l-3 35l-10 33l-5 14l-7 11l-22 23l-6 5l-1 3l-6 1l-4 6h-4l-2 4h-5v2h-4l-8 6l-29 9l-16 5l-29 4l-35 1l-31 -3l-31 -10l-31 -9l-15 -5l-39 -27l-8 -9l-6 -1l-22 -23l-16 -18l-1 -6 l-4 -1l-3 -10l-8 -12l-14 -29l-9 -30l-7 -33l-1 -15l8 -64l1 -7l7 -19l-3 -7l-3 -2l-2 -7l-10 -10l-4 -1l-5 -6l-14 -7l-12 -10l-6 -1l-4 -4h-12l-11 8l-2 9l-5 2l-1 7l-8 14l-7 29l-4 33l-3 33v16l3 20l2 2l-1 32l3 7v7l8 15l3 2l1 5h2l5 23l2 2l1 9l15 27l19 26l19 27 l9 12l24 21l23 21l14 11l9 2l10 8l6 1l12 10l15 8l22 7l14 7l30 7l31 5l32 3l30 2l34 1l30 -5l29 -1v-2l30 -11l18 -7l6 -5l7 -2l7 -5l9 -2l4 -5l6 -1l12 -10l7 -3l22 -23l19 -20v-4l11 -11l11 -29l9 -17l11 -30l4 -29v-33l-1 -33v-11l-2 -2v-7l-6 -6l-5 -23l-5 -5l-3 -12 l-6 -3l-4 -10l-4 -2l-4 -10l-24 -21l-5 -5h-3l-6 -7h-4l-2 -3l-5 -1l-2 -5l-6 -1l-13 -9l-16 -9l-12 -4l-8 -9l-2 -8l8 -12l25 -26l11 -11l13 -17l2 -7l4 -2l12 -29l9 -28l3 -34l1 -33l-6 -48l2 -3l-5 -27l-11 -30v-2l-6 -6l-2 -12l-6 -6l-8 -14l-10 -11l-2 -7l-12 -11 l-11 -7zM493 383l-1 -1l-14 -18v-7l-3 -3l-1 -8l-5 -4v-7l-3 -3l-6 -15l-2 -12l-6 -6l-8 -27l-2 -7l-5 -5l-13 -29l-10 -28l-1 -6l-16 -24l-4 -7l-1 -6h-2v-4l-5 -5l-4 -13h-2l-1 -13l6 -13l12 -11l4 -1l1 -3h5l11 -8l5 -1l4 -6l5 -1l2 -4l7 -3v-2h4l3 -3l16 -4l29 -10 l31 -6h8l8 3l15 -3l27 8l8 4l7 1l9 7l8 2l24 21l16 25v3h2v4l4 2l1 6l6 10l8 32l2 32l2 16l-2 23l-13 32l-7 14l-20 25l-12 13l-8 3l-3 6l-30 17l-27 15l-21 8l-12 1l-6 6l-12 2zM103 157l-1 -1l-12 -3l-11 -10l-7 -14l-4 -16l-2 -2l-1 -9l6 -15l25 -20l11 -6l14 -2l17 1 l14 3l4 3l28 6l6 6l7 3l20 24v14l-10 11l-29 19l-32 12l-18 2l-5 -3zM261 92v-2l3 -2l19 2l-1 -8l6 -3l2 23l-14 6l-13 3v-12zM505 542l-2 1l-7 4l-11 -2l-5 3l-2 -5l13 -7l1 -2l9 4l7 -2zM482 460l-2 -1l4 -7l6 -5l4 -1l5 4l-1 4l-7 5zM414 407l-1 -2l7 -4l4 1l4 5l-2 9 l-5 -1l-6 -4zM312 139l1 -1l11 2l-3 7l-3 2l-1 7h-6zM458 421v-2l4 -1l6 -5l6 -1l3 4l-7 4l-5 6l-5 2zM420 354l2 -1l8 6l1 5h-2l-5 5l-3 -1l-4 -8v-4zM483 488v-11h11v9l-5 5h-4zM418 430h6l4 -6l5 -1l2 7l-6 4l-14 3v-4zM465 486h2l2 8l-5 6h-4l-2 -7l2 -4zM421 331l1 -3 l9 1l3 3l-1 6l-2 1l-8 -4zM739 183v-2l7 -2l4 2v5l-3 3l-6 -2zM297 96l-2 -1v-4l3 -3h6l2 7l-4 2zM340 129v-3h5l3 2l1 5l-7 2zM411 285h2l2 3v5l-5 3l-2 -3v-5zM342 166l-2 -1l3 -6l6 -1v5l-2 3h-5zM612 412h2l2 3l-1 4l-3 2l-2 -4zM305 158l-1 2l-2 1l-4 -2l-1 -3l5 -1z M411 334l-1 -2l5 -2l2 5l-4 2zM750 158v2l-6 2l-1 -4l4 -2zM143 -9v-5h7l-4 5h-3zM367 271l-2 -4l4 -2l3 4zM486 558l1 -1l3 2l-1 3l-4 1z" glyph-name="B" horiz-adv-x="845" unicode="B"/>
<glyph d="M323 277h-2l-14 -19l-6 -33l-6 -30l-2 -15l1 -34v-39h2l1 -16l4 -14l22 -24l12 -11l12 -5l35 -6l32 2l30 7l22 8h5v3h4v2l14 3l4 6l13 3l12 8l4 1l2 3l5 1v2l6 1l2 4l7 3l6 6l11 5l5 6l7 3l20 19h3l18 17l21 24l21 23l20 24l18 26l18 28l12 8h7l25 -16v-4l5 -9v-12 l-14 -27l-2 -7l-6 -6l-1 -5l-7 -5l-1 -4l-6 -5l-6 -10l-3 -1l-1 -6l-16 -22l-23 -23l-22 -24l-20 -25l-24 -20l-23 -20l-22 -18l-5 -1l-2 -4l-16 -11l-7 -2l-7 -5h-4l-30 -13l-23 -11l-29 -10l-27 -5l-2 3l-32 -5l-5 3l-33 -4l-11 -1l-17 2l-30 8l-6 1l-26 13l-9 4l-5 7 l-6 3l-20 27l-4 7l-5 3v4l-5 7l-9 28l-11 30v3h-2l-1 32l-1 33l1 32l5 31l6 30l2 12l2 2v7h2v14l-8 13l-27 16l-31 14l-13 6l-2 3l-7 3l-8 9l-6 1l-42 46l-18 26l-14 24l-3 15l-2 2l-7 32l-4 31l-3 16l3 30l1 16l6 13l4 23l12 25l1 7l10 13l8 14l6 17l5 2l1 6l4 2l1 6l23 22 l23 21l13 6l10 -1l18 -13l3 -7l16 -21l13 -20v-4h3l-2 -8l-3 -1l-1 -8l-22 -21l-12 -12l-17 -29l-14 -27l-5 -14l-1 -11h-3v-32l3 -23l2 -2l2 -13l12 -28l19 -26l24 -22l9 -6l2 -5h4l13 -10l8 -3l14 -1l10 4l10 13l9 30l7 15l5 6l8 26l5 5v4l10 23v4l16 27l12 20l5 5l8 22 l36 54l9 10l1 4l19 24l20 25l23 22l10 14l6 2l8 11h4l8 9l4 1l5 6l8 3l7 8h5l5 7h4v2l7 2l4 6l15 4l1 2l6 1l3 3l10 3l6 5l15 4l31 3l13 3h34l31 -7l28 -15l8 -4l20 -23l12 -11l2 -6l3 -2l2 -9l6 -6l2 -12l3 -3l10 -28l2 -32l-2 -30v-16l-7 -32l-8 -31l-12 -29l-9 -28h-2 l-7 -13l-10 -11l-1 -8l-14 -17l-6 -6l-2 -6l-7 -5l-7 -13l-11 -11l-4 -7l-17 -16l-10 -4l-25 -21l-27 -18l-7 -4l-1 -4l-6 -2l-4 -6h-5l-2 -4l-9 -2l-6 -6l-8 -2l-27 -14l-27 -9l-14 -6l-32 -7l-29 -4l-62 -8l-16 -2zM401 383h2l30 9l29 11l26 11l21 12l14 9l5 6l7 3l23 22 l20 19l6 5l2 7l12 10l2 8l13 16l2 7l7 9v4l9 14l11 30l9 31l2 19l-6 35l-5 14l-8 10l-15 10l-18 2l-16 -2l-15 -5l-28 -16l-16 -16l-7 -3l-23 -23l-19 -27l-8 -9l-2 -7l-18 -25l-3 -7l-6 -6l-15 -25l-11 -16l-4 -2l-1 -6l-5 -6l-11 -30l-8 -20l-5 -5v-4l-3 -1l-11 -26 l-11 -28l-1 -5l3 -13l15 -4l16 1zM294 390h-7l-3 -7l-13 -2l-11 7l-2 -2l1 -4l8 -2l12 -9l4 -1l10 11zM663 714v-2l6 1l8 8l-2 12l-5 4v-5zM213 330l-1 -1v-4l4 -6l6 -1l2 3l-2 10zM267 323v-3h16v4l-6 5l-8 -1zM349 516l2 -1l2 -3l4 1l5 6l-5 2l-9 -2l-2 7h-4v-5zM714 716 l1 -2h9l-1 8l-2 2l-6 1l-2 -4zM318 440l-1 -2l6 -4l7 -1l-1 8l-8 4zM414 625v-2l3 -2h8l4 2l1 3l-3 2h-8zM250 337l-1 -1l2 -7l11 2v5l-4 2zM255 296v-3l7 -2l4 1v8l-4 2zM319 308l2 -2l4 1l5 8l-5 3l-6 -4v-6zM247 352h2l-5 15l-4 1l2 -13zM703 580l-1 -2l6 -2l4 1l3 8h-5z M244 75v-2l6 -2l2 10l-6 1zM213 354l-1 -2l3 -2l8 1l1 3l-7 4zM304 400l5 -3h7l-1 3l-7 4h-5zM281 358l-1 -2l8 -2l3 2l1 5l-9 -1zM283 401h2v4l-3 3h-6v-4zM351 553h2v7l-7 2l1 -7zM249 279v-11l2 -1l3 6l-3 7zM650 733l2 -1l2 3l-1 4l-6 2v-4zM281 295h2l2 9l-5 -1l-2 -3z M450 670l2 -1l1 2l7 1l-3 4l-5 -1zM693 721v-2l3 -2l4 1l2 3l-4 2zM607 790l-1 -1l5 -3l2 5l-4 2zM695 756l2 -1l5 7h-4l-4 -5zM217 345v-5h5v5h-5zM672 773v-5h5v5h-5zM292 343v-5h4v5h-4zM335 433v-4h4v4h-4zM292 315v-4h4v4h-4zM501 707l-1 -2l5 1l2 3h-4zM246 53v-2h4 l3 4z" glyph-name="C" horiz-adv-x="699" unicode="C"/>
<glyph d="M297 179l2 -1l4 1l11 11l13 28l5 7l5 15l3 2l7 21l2 1l1 6l3 3l7 23l3 3l10 29l3 2l8 23l5 6l3 13l6 17l3 2l1 6l5 7l8 26l6 16v4l5 5l4 14l12 29l5 7l6 15v6l14 30l2 8l8 13l6 15l9 13l11 11l8 13l25 21l19 12l4 5h5v3h4l13 6l33 8l15 -3l10 -7l8 -23l5 -16l-3 -16 l-9 -12l-24 -22l-21 -26l-2 -7l-9 -13l-4 -10l-6 -6l-10 -30v-4h-3l-1 -12l-6 -12l-6 -6v-4h-2v-5h-3v-4h-2l-8 -29l-3 -8l-3 -2l-3 -16l-12 -25h-2l-10 -28l-13 -32l-1 -8l-13 -27l-12 -29l-13 -30l-11 -29l-8 -10l-1 -6l-6 -6l-5 -10v-4l-5 -5v-4l-6 -5l-8 -14l-2 -9l1 -7 l9 -14l27 -17l3 -4l10 -4l7 -5l27 -8l14 -4l31 -3l32 4l12 3l4 3l20 4l27 16l7 1l25 19l23 24l21 19l2 6l11 10l3 10l14 17l14 19l3 2l1 7l11 25l6 6l5 15l5 5l4 15l16 29l1 16h2l3 16l9 20l4 32l4 30l3 33l3 31l-5 32v33l-2 15l-8 32l-13 29l-15 30l-7 11l-20 20l-13 8 l-19 17l-7 2v3h-5v2h-4v2l-27 9l-32 10l-27 4l-34 1l-34 -2l-28 -7l-31 -9l-29 -13l-26 -15l-29 -16l-20 -23l-17 -21l-18 -21l-1 -8l-4 -2l-4 -10l-4 -5l-2 -8l-5 -4l-2 -7l-5 -6l-2 -12l-2 -2v-8l-10 -29l-2 -32l3 -31l9 -31l5 -15v-15l-9 -13l-26 -18l-8 -8l-6 -1l-5 -4 l-17 -4l-10 5l-5 7l-4 1l-3 11l-8 15l-1 7l-7 10l-3 16l-3 35l-2 31v33l6 30l7 32l6 28h3v4h2v5h2l4 14l12 22l3 3l1 6l11 13l5 10l7 2l10 12l6 4v4l8 9l3 7l12 11l7 2l23 23l13 11l27 16l29 14l5 5l29 10l7 1v2l31 11l31 6l31 4l28 4l35 1l32 -3h7l8 -3l16 -1l28 -9l27 -7 l2 -3l11 -3l3 -3l18 -3v-2l22 -10l5 -6l7 -2l7 -10l7 -3l4 -5l6 -1l6 -9l14 -9l6 -11l18 -22l11 -12l18 -27v-4h3v-5h2v-4l11 -25l12 -30l4 -31l5 -13l3 -31l1 -33l2 -15l-4 -16l2 -31v-17l-4 -26l-3 -2l-3 -32l-8 -31l-9 -31l-9 -30l-11 -30l-8 -15l-11 -28l-5 -6l-1 -8 l-9 -13v-5l-4 -1l-1 -5h-2v-5h-2v-4l-4 -2l-2 -6l-4 -2l-3 -7l-15 -16l-1 -7l-5 -3l-1 -7l-6 -5l-4 -1l-1 -6l-9 -7v-3l-21 -25l-23 -22l-25 -19l-14 -8l-5 -6h-5l-2 -5h-4l-5 -6l-14 -8l-29 -11l-33 -10l-30 -10h-14l-10 -3h-9l-1 3l-16 2l-32 -4l-2 2l-32 6l-16 5l-2 3 l-16 3l-27 15l-9 7l-12 3l-4 6l-6 1l-2 4l-6 1l-7 10l-7 3l-4 7l-11 3l-8 5l-15 -6l-22 -15h-3l-3 -3l-6 -1l-5 -5l-15 -9l-28 -10l-8 -3h-7l-2 -2l-28 -5l-17 -5l-32 -2l-33 3h-16l-6 4l-15 3l-12 6h-4l-15 8l-22 20l-26 26l-11 27l-9 32l-1 25l11 23l2 16l9 20l20 25 l24 20l4 1l18 13l30 8l14 5l32 1l31 -3h11l2 -2h7l27 -14l16 -7l8 -6l1 -3l7 -1l27 -17l14 -9zM85 72h1l24 -11l14 -2l33 3l22 1v2l7 1l26 16l17 14l2 6l-1 6l-12 15l-10 8l-7 2l-5 6l-7 2l-6 6h-4v2h-5l-1 3l-33 9l-16 1l-14 -3l-16 -6l-18 -12l-8 -13l-2 -24l1 -13z M361 155l-1 1l-17 10l-1 -4l9 -8l9 -3l7 -10l4 -1l3 5l-1 4zM474 454l-1 -2l3 2l16 2l2 3l-1 4l-13 7zM297 103l2 -2l6 1l9 16l-4 4l-14 -13zM338 95h2l-2 8l2 12l-7 2l-5 -10l4 -11zM822 688v-2l6 -5l7 -1l5 5l-1 4l-14 1zM394 222l-2 -1l1 -4l9 -8h4l1 3l-3 8l-6 3z M308 140v2l-8 2l-6 -4l3 -5l-8 -1l1 -3l12 2zM306 59v-3h13v5l-5 6l-6 -2l2 -2zM305 129l1 -1l7 -2l4 2v7l-5 2l-7 -3v-5zM360 131v-3l7 -4l2 3v8l-5 3zM435 306l2 -1l3 6l1 8l-7 -4l-1 -4zM276 126v-2l7 1l2 3v5h-5l-3 -2zM510 462l-1 -1l3 -6h4l2 3v6zM772 123v-6h4l3 9 h-4zM866 593l-1 -3l3 -2l4 1l2 4l-3 2zM313 41l-1 -1l3 -1l3 2l3 8l-4 -1zM532 518v2l-6 2l-1 -4l4 -2zM860 319v-5h5v5h-5zM483 432l-1 -2h5l1 4l-4 2zM319 151v-4h5v4h-5zM423 264v-4h5v4h-5z" glyph-name="D" horiz-adv-x="941" unicode="D"/>
<glyph d="M396 788l1 -2l16 2l29 14l13 8l26 7l30 8l30 5h35l31 -6l21 -2l4 -3l10 -3l13 -13l7 -1v-3h4v-2l21 -11l2 -4l11 -5l9 -12l7 -6l2 -7l6 -6l10 -28l7 -31v-17l-2 -14l-7 -31l-12 -29l-12 -19l-20 -23l-27 -18l-11 -8h-4l-14 -7l-15 -2l-24 -7l-30 -3l-35 1l-23 4l-9 5 l-15 4l-15 7l-13 9h-4l-9 9l-7 2l-14 14l-8 4h-5l-9 -7l-4 -12l4 -32l4 -30l9 -25l6 -4l1 -7l19 -26l9 -14l2 -8l-4 -15l-8 -15v-4l-6 -5l-6 -13l-18 -17l-14 -1l-27 14l-30 8l-35 5l-32 3l-14 -1l-31 -10l-21 -9l-7 -7l-9 -4l-24 -22l-19 -25l-11 -24l-15 -48l-1 -32l3 -32 l7 -31l16 -28l9 -11v-4l21 -22l12 -13l18 -14l32 -8l30 -8l35 1l29 5l31 11l15 7l24 18l15 13l2 6l9 11l9 17l3 8l4 3l3 15l9 24l3 31l2 15l-5 30l-1 5l5 16l13 9l30 9l31 8l11 -1l15 -17l4 -14l2 -32l3 -34v-15l-7 -32l-4 -32l-14 -27l-13 -29l-5 -3v-4l-10 -14l-1 -4 l-6 -5l-3 -7l-6 -4l-3 -7l-26 -19l-26 -20l-28 -16l-29 -12l-7 -1v-2l-14 -2l-32 -12l-30 -3h-30l-33 1h-10l-2 2l-31 8l-17 6v2l-14 4l-17 9l-3 3h-4l-10 6l-11 10l-21 15l-23 20l-20 26l-13 14l-15 27l-6 14l-4 5l-6 31l-5 12l-2 35l-5 32l3 34l5 30l1 8l10 26l1 5l14 27 l2 6l6 6l2 7l6 5l17 26l21 24l24 23l3 3l28 11l6 7l7 3l3 5h4l7 4l7 1l26 11l33 4l5 3l32 1l19 7l2 6l-1 15l-6 34v34l4 33l7 30l8 28l6 15l5 7l8 30v15l-4 17l-2 1l-4 16l-3 20l-4 20l2 8l-2 2l-2 31l7 22l12 11l13 4h15l3 -2h5l22 -16l3 -14l2 -33l1 -8l4 -7zM526 721 l-2 -1l-23 -4v-3l-7 -1l-29 -12l-5 -6l-8 -3l-11 -18l-1 -9l2 -9l9 -13l24 -18l27 -17l15 -7l19 -3l35 3l13 2l14 5l20 15l14 25l3 24l-5 15l-11 15l-9 8l-22 9h-7l-33 9zM372 618l2 -2l9 1l4 4l1 4l-5 6l-7 -1l-5 -6zM317 446v-2l-7 -3l-4 -4l16 -4l2 13l-4 5zM315 415v-3 l3 -2h8l3 2l-1 9l-2 2l-6 1zM345 621v-3h4l3 3l3 8l11 2l1 4l-4 4l-17 -14zM340 453v-2l5 -3l2 -5l4 -1l-1 7l-4 6l1 5l7 -3l-2 4h-7zM386 689l-1 -1l3 -7l4 -4l5 6v5l-3 2zM365 597l-2 -1l2 -9l6 -1l3 10l-4 2zM384 666l-1 -2l10 -5l4 1l2 4l-6 4zM69 183l4 -2l4 6v3l-6 3z M544 766v2l-9 2l1 -5l3 -2zM365 650v-7h4v7h-4zM82 107v-5h7l-4 5h-3zM324 516l-2 -4l5 -2l2 4zM413 718v-7l4 1v4z" glyph-name="E" horiz-adv-x="624" unicode="E"/>
<glyph d="M630 424l-1 -2l11 -14l4 1l15 -3l17 2l15 -2l6 -7h2l2 -17l-4 -16l-8 -13l-5 -5l-29 -4l-33 1h-16l-7 -3l-13 -15l-9 -30l-7 -18l-5 -4l-2 -16l-5 -14l-15 -27l-7 -23l-5 -4l-10 -29l-6 -16l-3 -2l-2 -6l-3 -3l-5 -28h-3l-6 -14l-17 -25l-6 -6v-5h-2l-7 -14l-19 -25 l-7 -7l-1 -6l-22 -23l-21 -17l-7 -3l-10 -10l-6 -1l-9 -8l-4 -1v-3l-6 -1l-8 -5h-3l-14 -7l-10 -1l-13 -5l-17 -3l-7 2l-28 -11l-14 -2l-36 2l-31 2h-8l-23 8l-5 2l-6 6h-6l-20 8l-8 8l-6 3l-8 8h-4l-2 5l-6 1l-11 13l-10 7l-1 6l-9 11l-17 30l-4 11l-5 6l-6 29l-5 29l-1 15 l2 32v7l2 2v7l13 28l6 15l2 11h2l3 10l20 23l13 12v5l7 4l5 7l4 1l5 6l16 8l6 5l12 4l6 6l23 4l16 1l24 10h16l14 -4l10 -9l2 -31l2 -19l-2 -20l-4 -2l-2 -7l-14 -8l-32 -4l-15 -5l-6 -5l-4 -1l-24 -19l-1 -6l-3 -2l-15 -29l-4 -16l-1 -17l-2 -4l1 -16l11 -29l7 -13l11 -13 l23 -17l14 -9l31 -11h32l16 3l19 7l17 5l13 6l26 20l21 23l20 24l4 7l5 4v5l7 4v5l6 4l1 7l14 26l14 30l10 28l7 11l2 7l5 7l5 25l4 6v5h2l4 16l13 27l2 5l-1 8l-6 7l-13 4l-35 1l-10 6l-2 6l-3 1l-1 4l10 29l15 15l6 2h52l13 4l12 9l9 14l10 30l8 13l8 22l12 30l8 21l3 2 l3 15l12 27l11 30l10 28l-7 9l-7 4l-32 2l-6 3l-16 1l-13 4l-34 4l-30 8l-31 9l-62 12l-13 1l-34 7l-16 1l-33 -3l-15 -1l-29 -13l-13 -9l-12 -12l-9 -12l-12 -29l-2 -14l2 -16l14 -27l1 -4l6 -7l11 -5l5 -6l28 -9l35 3l20 11l13 7h16l12 -9l15 -22l6 -6v-5h2v-4h2v-5h2 l2 -8l-4 -14l-10 -11l-15 -9l-27 -12l-31 -9l-26 -3l-37 2l-16 2l-24 12l-16 6l-13 10l-19 13l-13 12l-2 7l-8 8l-1 6h-2l-9 15l-2 8l-5 6l-1 7l-4 7v4h-2l-3 31v31l4 29l2 4h2l2 16l11 17v4l5 4l1 7l9 12l3 8l23 21l16 13h4v3l7 2l2 4l13 6l3 3l16 5l18 5l14 7l30 2l13 2 h18l4 -2l31 -2l10 -1l2 -2h9l28 -5l13 -3l18 -1l3 -2h9v-3l30 -7l31 -6l24 -6l30 -7l32 -3l29 -4l35 -1l31 5l7 1l25 17l9 7h4l14 8l7 1l3 3l15 6h9l2 2l21 -6l11 -9l4 -10l3 -2l3 -30l-1 -8l-8 -12l-24 -23l-12 -11l-14 -20l-1 -5l-5 -2l-1 -7l-4 -5l-5 -14l-3 -3l-3 -13 l-6 -5l-1 -6l-3 -3l-9 -28l-13 -29l-4 -14l-2 -2l-3 -15l-9 -24l-6 -9l-2 -9h-2l-10 -21l-11 -30zM649 676v-3l7 -4l6 11l-4 4zM677 698l-1 -2l7 -3l7 3h-2l-7 7zM532 358l1 -2l5 1l2 7l-2 3h-2zM643 711l-8 -8l8 1l4 8zM618 558h2l-1 4l-6 5l1 -8zM668 703l-1 -3l3 -2l4 1 l2 4h-8zM602 539l-1 -2l5 -2l2 4l-4 3zM693 707l-1 -2h4l3 3l-3 4zM626 680v-5l5 -2v4zM441 142l2 -1l2 2l-2 3l-4 -1l-1 -2zM599 503v-2l4 1l3 4l-6 -1z" glyph-name="F" horiz-adv-x="703" unicode="F"/>
<glyph d="M604 67l1 -2h4l2 -2h5l7 7h5l1 3l25 19l24 21l23 21l22 22l7 2l11 13l13 11l1 6l10 11l5 11l7 5l2 7l19 22l1 7l10 14l11 10l8 1l10 -2v-3h5v-2h4v-2l6 -1l11 -20l-6 -16l-16 -27l-15 -21l-10 -11l-17 -26l-20 -23l-22 -24l-18 -18l-8 -3l-3 -5l-20 -11l-22 -23l-20 -17 l-5 -1l-3 -5l-7 -1l-19 -11l-5 -1l-5 -7h-4l-2 -3l-5 -1l-4 -6l-7 -1l-26 -17l-21 -14l-8 -12l-13 -28l-9 -22l-3 -2l-2 -15l-9 -26h-2v-5h-3l-1 -6l-15 -30l-11 -21v-4l-9 -9v-4l-21 -23l-11 -13l-25 -20l-27 -17l-14 -4l-33 -5l-32 -2l-32 7l-8 3l-3 3l-7 2l-13 10l-20 23 l-3 2l-12 30l-4 15l4 30l4 18l1 4l3 2l8 14l3 7l4 2v4l23 21l25 19l14 8l6 6l14 6l9 6l10 3l3 3l17 8l11 3l13 8l16 5l7 4l14 4l15 8l14 11v4l5 3v4h2l1 7l6 4l7 24l-3 8l-4 3l-8 1l-13 -8h-4v-3l-23 -15l-7 -2l-4 -5h-5v-3h-4v-2l-16 -3l-3 -3l-8 -1l-7 -5l-16 -1v-2 l-29 -1l-35 1l-7 1l-26 16l-20 13l-2 6l-16 17l-1 5h-2l-3 7l-4 2l-2 14l-3 2l-1 7l-7 16l-4 31v32l1 32l5 32l6 31l5 33l-1 6l-9 11l-29 18l-12 4l-6 5h-4v2h-5v3h-4l-9 7h-3l-6 6l-7 3l-7 8l-9 5l-11 13l-7 3l-6 6l-2 7l-11 11l-8 17l-18 25l-6 18l-1 18l-2 2v9l-3 3 l-4 21v8h-3l-1 31l4 33l7 32l5 15l15 27l5 17l5 9l7 4l1 6l6 5l1 4l7 5l2 7l23 20l4 6l7 3l2 5l6 1l15 8l15 -4l10 -10l19 -26l13 -19l1 -13l-8 -13l-23 -24l-21 -23l-2 -2v-4h-2l-10 -14l-2 -7l-4 -5l-3 -30l-1 -33l6 -31v-5h2v-4h3l3 -14l4 -2v-5h2v-4h2v-5h2v-4h3l1 -6 l21 -22l7 -2l9 -9h5v-2l13 -8l5 -1l6 -6l25 -5l6 2l6 6l10 29l2 8l5 6l4 11l4 3l1 6l4 3l7 13l7 24l13 22l14 28l16 27l18 27l2 4l4 2l7 14l20 26l19 25l25 20l7 12l21 23l13 8l23 22l26 18l9 2l2 5h4l2 3l28 13l14 6l25 8l31 8l31 4l24 -4h29l25 -9l11 -9h4l12 -9l4 -1 l5 -6h4l23 -23l5 -4v-4h2l13 -28l9 -30l2 -6l1 -36l2 -15l-5 -30l-5 -28l-2 -3l-1 -9l-12 -30l-5 -14l-9 -13l-2 -8l-3 -2l-16 -27l-3 -7l-12 -11l-2 -7l-15 -13l-2 -6l-4 -2l-2 -6l-22 -24l-13 -8l-8 -10l-7 -2l-18 -17l-26 -14l-19 -11l-6 -6l-28 -13l-15 -8l-29 -10 l-31 -10l-12 -2l-5 -3l-12 -2l-2 -3l-30 -4l-33 -4l-31 -4h-51l-12 -3l-9 -11l-9 -33l-6 -33l-4 -35l1 -33l3 -15l14 -25l4 -6h4l6 -5l14 -4l35 2l22 6l6 5l6 2l6 6l7 2l21 16l8 3l25 21l45 45l9 13l9 9l2 6l7 9l9 26l6 15l8 13l11 8l30 9v2l32 5l14 5l20 3l7 -4l5 -6l1 -15 l-12 -30l-2 -7l-5 -6l-11 -31l-7 -14l-5 -18l-3 -2l-1 -8l-9 -13l-11 -29l-12 -30l-7 -24zM383 380h2l30 3l31 4l23 9v2h7l7 4l15 4l29 13l21 10l10 5l16 13l7 2l6 6l4 1l12 9l22 24l20 24l20 25l5 6l9 17l13 29l10 31l3 15l-1 36l-2 11l-3 4l-1 6l-10 8v3l-3 3l-6 2l-2 3 l-15 4l-17 1l-31 -4l-15 -3l-23 -15h-5v-2h-4v-3l-6 -1l-25 -20l-22 -21l-23 -22l-3 -3l-2 -7l-12 -9l-16 -23l-5 -5l-18 -26l-16 -28l-13 -20l-1 -6l-6 -6l-9 -15l-10 -22l-9 -20l-5 -6l-12 -30l2 -15l7 -6zM388 -120h-12l7 -3l-20 -4l-24 -11l-26 -17l-24 -22l-7 -13 l-2 -16l1 -7l11 -11l13 -7l15 2l13 7l13 11l6 11l9 7l1 6l4 3l15 24l3 5l1 7l6 5l1 7l2 2zM278 361l-1 -1l-7 -3v-6l3 -2l10 4h5l3 -2l4 -7h4l3 8l-5 6l-10 7l-5 1zM312 330l1 -2l5 -14l13 3l-9 13l-4 9h-12l-1 -3zM314 493l-1 -2l3 -2l5 -12l6 -2v7l5 5l1 4l-6 4l-6 1z M524 6l-3 -6l-2 -7l2 -3v-15h5l-1 4l5 14v8l-2 4zM565 108h2l-8 14l-1 7h-7l-2 -4l3 -11zM473 -87l1 -2l8 1l3 2v4l-6 5l-10 4v-5zM276 381l-2 -1l1 -4l6 -5l7 -2l2 3v8l-3 2zM232 119l-1 -2l7 -4l9 2v7l-3 2l-8 -1zM579 174l1 -2l7 3l-4 17h-3l-2 -10zM568 135l3 1l2 9 l-6 4l-4 -1l-1 -9l2 -3zM306 405v-2h4l10 11h-2l-5 5h-2zM444 -92l-2 -1v-7l14 -2l-2 7l-6 4zM288 326v-3l10 5l1 7l-6 2l-4 -1zM277 291l2 1l-1 4l-13 9v-5l4 -7l3 -2h5zM491 97l-1 -2l10 -3l7 3l1 4l-12 1zM529 26l1 1v4l-6 3h-5v-7l6 -3zM559 55l-1 -1l1 -8l3 -1l4 2l3 9 zM442 612l2 1l-3 7l-10 5l1 -4l6 -8zM249 139l-2 -1l1 -4l4 -2l7 1l-1 5l-3 2zM687 760v-2l6 -4h5v5l-6 4l-4 -1zM528 120v-3h5l6 7l-9 2zM560 209l-2 -1l3 -7l6 -2v7l-4 3h-3zM297 438l2 1v4l-9 3v-5l2 -3h5zM528 147v-2l7 2l2 9l-7 -4zM322 458v-3h7l-1 4l-6 5l-2 -2z M691 485l2 4l-3 2h-7l-1 -2l6 -4h3zM695 781h3l1 4l-6 5l-2 -3l1 -4zM347 312v-2h7v7h-5zM608 753l-1 -2l7 -4l2 4l-6 5zM472 -48l-1 -2l12 1v3h-9zM555 165v-7h7l-3 6zM308 433l3 -1l2 7l-5 2v-8zM270 391v-6h4l3 4zM275 336l-1 -1l5 -3l2 5l-4 2zM517 10l2 -1l7 4l-1 2 l-8 -3v-2zM478 677v-5h5v5h-5zM343 473h4l-3 6l-4 1zM753 705l2 -1v2h2l-1 4l-4 1zM770 665v-4h5v4h-5zM587 224v-5h4v5h-4zM610 185v-4h4v4h-4z" glyph-name="G" horiz-adv-x="799" unicode="G"/>
<glyph d="M494 262l-1 -2l5 -11l25 -16l7 -3l13 -10l18 -7v-3h4l19 -12l6 -1v-3h5v-2h4l11 -8l9 -4h8l12 11l12 31l10 26l13 29l4 17l13 28l13 30l10 31l12 24l11 30l6 11l2 16l4 4v4l14 30l12 30l10 30l12 29l1 4l3 2l4 14l6 9l10 30l11 29l3 2v3l3 4l4 14l11 16l14 5l29 4h9 l14 -3h20l9 5l8 -2l8 -5l4 -8l-1 -7l-6 -11l-9 -33l-9 -13l-8 -31l-11 -29l-7 -18l-5 -6l-1 -6l-6 -6l-11 -17l-1 -5h-2l-2 -16l-7 -24l-4 -8v-4l-7 -14l-8 -26l-3 -3v-5h-3l-11 -29v-3l-6 -6l-11 -30l-1 -4l-5 -5l-1 -11l-6 -14l-5 -6l-10 -30v-4l-7 -14l-5 -5l-1 -8l-3 -3 v-7l-5 -4v-7l-3 -3l-1 -6l-3 -2l-1 -12l-3 -9l-5 -5l-1 -10l-7 -12l-6 -24l-5 -7l-1 -7l6 -11l6 -4l29 -3l9 1l6 4l33 10l26 13l23 24l21 24l13 14v5l3 1l15 28l14 19l11 6l15 -2l7 -3l13 -14l4 -7l-5 -23l-9 -10v-4l-3 -2l-1 -5h-3v-5h-2v-4h-2v-5h-3v-4h-2l-1 -8l-30 -36 l-5 -11l-9 -6l-1 -6l-24 -22l-23 -22l-15 -8l-9 -7l-6 -2l-6 -5l-28 -6l-33 -5h-33l-33 2l-6 -2l-11 -12l-8 -13l-9 -25l-1 -9l-11 -27l-11 -21l-6 -9l-7 -31l-8 -15l-3 -11l-5 -5l-1 -8l-7 -12l-9 -8h-15l-14 10l-19 20l-1 6l-23 21l-8 10l-2 7l3 16l13 31l11 31l4 10l3 2 l3 12l13 28l4 14h2l1 6l8 16v7l-10 13l-24 15h-4l-14 9h-4l-6 6l-10 5l-2 3l-7 4h-4l-8 7h-4l-11 9l-16 6h-17l-7 -3l-5 -6l-1 -4l-5 -6l-1 -7l-18 -25l-19 -25l-9 -9l-1 -6l-12 -10l-14 -16l-7 -2l-9 -12l-7 -2l-27 -18l-4 -5l-17 -3l-7 -3h-8v-3l-23 -4l-2 -2h-7l-6 -4 l-31 -4l-34 2l-32 5l-30 10l-14 8l-7 2l-12 10l-13 7l-23 25l-5 6l-1 5l-5 2l-2 7l-4 2l-3 7l-4 2v5h-2l-8 27l-4 32l-2 15l1 16l7 33l12 29l11 21l23 23l21 23l7 1l2 4l9 2l5 5l29 13l27 9h16l7 3l29 2h25l5 -2l34 -1l32 -8l24 -5l27 -11l16 -5l14 -2l7 2l11 14l2 14h2v4h3 l1 6l7 11l11 29l5 16l3 4l4 16l3 2l3 17l8 12l1 5l3 2v5h3v4h2v5h2l7 31h2v5h3v4h2v5h2l10 30l11 23l11 29l5 14l4 6l2 14l-5 7l-13 6l-32 2l-31 6l-32 5l-30 5l-29 5l-18 2l-22 5l-35 3l-36 -1l-12 -2l-30 -11l-13 -7l-20 -16l-13 -28v-4h-3v-32l5 -20l5 -15l17 -18l26 -10 l16 -3h18l31 11l14 7l9 1l15 -6l11 -12l3 -7l9 -11l9 -20l-2 -15l-11 -12l-5 -1l-11 -9l-16 -5l-2 -2l-14 -2l-2 -3l-48 -9l-31 3l-31 5l-14 3l-12 6l-27 19l-14 8l-18 24l-3 2l-1 5l-5 2v4l-4 3v5l-5 2v4l-4 6l-6 25l-3 33l1 35l4 29l10 26l4 2l10 19l4 7l3 2l2 7l24 22 l24 18l2 3h4l12 8l31 10l22 4l8 -1l5 4l33 3l15 3l32 -2l30 -2l32 -6l30 -7l22 -5l29 -3l34 -4l32 -4l32 -2l27 1v3l16 1l27 19l2 5l26 15l30 11l15 4l22 1l7 -3l9 -12l7 -25l2 -7l-1 -18l-9 -12l-24 -21l-21 -22l-1 -4l-11 -12l-9 -19l-12 -30v-5l-5 -4v-8l-8 -14l-2 -8 l-8 -13l-2 -12h-2l-4 -16l-14 -29l-11 -30l-5 -6v-5l-3 -2l-1 -12l-5 -6v-6l-11 -21l-2 -9l-3 -3l-1 -7l-4 -5l-2 -10l-8 -16l-1 -7l-5 -4l-1 -8l-12 -26l-1 -6l-4 -5l-1 -9l-3 -1l-11 -30zM340 220l-1 2l-7 2l-3 3l-8 1l-5 5l-31 9l-32 8l-15 2l-36 -2l-29 -4l-11 -2l-6 -5 l-8 -2l-24 -21l-11 -13l-7 -14l-5 -31l2 -2v-11l17 -28l13 -15h4l13 -10l32 -7l17 -3h14l31 10l9 5h4l5 6l7 2l23 23l22 24l18 26l8 14l5 15l-1 7zM695 144l-10 -20l14 -6l9 -1l-5 9l3 14l-5 3l-1 4l-6 2zM372 236l-2 -1h-5l-3 2l-3 -2v-5l5 -6l8 3l8 9l11 4l2 11l-7 3 l-7 -1v-10zM643 118l1 -1l7 -9l9 3v4l6 5l1 4l-7 2l-11 -4l-5 4l-9 1l1 -5zM419 281l1 -1l9 5h5l-1 4l-15 10l-3 -8zM587 679h5v10l-6 6l-3 -11zM547 686v-2l3 -1l2 -8l4 -1l2 14zM671 78l-2 -1l7 -16l2 20zM443 314l4 -2l2 13l-4 3l-4 -6zM703 215h3l-3 7l-9 2v-5l2 -3z M687 170h3v5l-7 6l-3 -3l1 -6zM490 382v-2h9l3 2l-1 4l-4 3l-1 -3l-4 -1zM672 113v-9l8 1l1 3l-2 4zM429 236l-2 -1l2 -7h5l2 7l-2 2zM695 97l-1 -2l4 -2l6 3l2 6l-5 -1zM458 251h3l2 2l-2 7l-5 -1l-2 -3zM724 275l2 1v4l-9 3v-5l2 -3h5zM534 693h2v4l-5 5h-2l1 -8zM429 219 v-6h7v6h-7zM407 215h6v4l-9 3zM862 630l2 -1l-1 8l-6 1l1 -4zM493 359v-2h4l2 7h-4zM421 194l-1 -2l5 -2l2 4l-5 3zM761 359l-1 -2l4 -2l3 5l-5 2zM214 276v-5h5v5h-5zM592 634v-5h5v5h-5zM723 209l-2 -1v-5l4 1l1 6zM353 265l-1 2l-6 -4v-2h3zM629 693v-5h4v5h-4zM860 570 v-4h4v4h-4z" glyph-name="H" horiz-adv-x="934" unicode="H"/>
<glyph d="M164 239l-1 -2l-8 -7l-15 -5l-9 -1l-2 -3l-31 -7l-12 -5l-5 -6l-8 -3l-2 -7l-12 -10l-10 -22l-9 -27v-5l-2 -3l2 -27h2l1 -11l2 -2l4 -14l16 -28l26 -18l15 -8l2 -3l29 -6l25 -3l31 6l15 4l7 4h4v2l6 1l28 15l12 11l8 13l13 11l13 16l1 4l10 8l1 6l16 26l13 20l6 23 l10 21l13 29l13 28l9 31l5 4v5l10 23l5 7l2 8l3 3v4l2 2l9 32l5 16l6 4l10 29l12 30l8 23l3 2l6 14l1 8l12 28l12 30l3 2l19 57l-1 5l-4 5l-8 3l-8 -1l-28 -10l-40 -15l-3 -3h-7l-4 -5l-18 -4l-14 -7l-3 -4l-10 -2l-6 -5l-15 -5l-4 -5l-14 -5l-25 -20l-11 -8l-15 -15l-1 -6 l-5 -5l-13 -29l-4 -14v-34l6 -16l10 -13l17 -14h3l6 -5l12 -4l16 -11l2 -7l4 -2l3 -32l-3 -31l-7 -14l-13 -5l-34 5l-15 4l-28 14l-25 18l-16 14l-2 7l-6 4l-4 10l-5 6l-4 12l-6 6v7l-3 3l-8 28l-3 14l1 34l6 33l8 29l1 8h3v5h2l2 11l5 2l3 8l10 11v4l33 33h4l10 11l26 18 l18 8l4 5l7 2l12 9l29 14l11 4l5 5l16 2l24 9l14 8l29 10l24 8l16 7l29 9l16 4l6 5h7l7 3l2 3l12 2l29 14l22 22l16 18l26 17l13 9l33 10l12 2l9 -1l11 -5l7 -7l2 -9l3 -2l7 -30l-2 -14l-4 -7l-25 -18l-17 -15v-4l-5 -5l-4 -11l-5 -5l-2 -7l-11 -15l-1 -7l-11 -30l-4 -11 l-5 -4l-1 -8l-5 -6l-12 -30l-11 -31l-7 -9l-2 -7l-5 -5l-8 -32l-4 -10l-3 -3l-9 -24l-11 -22l-3 -13l-5 -4l-2 -13l-10 -23l-9 -21l-8 -26l-7 -12l-6 -16l-5 -7l-5 -18h-2l-6 -15l-3 -3v-5h-2l-11 -31l-3 -5l-3 -16l-11 -30l-4 -11l-6 -4l-2 -7l-5 -6l-10 -28l-3 -6l-3 -17 h-2l-6 -14l-10 -13l-5 -11h-2v-5h-3v-4l-4 -2l-2 -12l-4 -1l-2 -6l-20 -24l-20 -25l-12 -11l-4 -1l-18 -18l-4 -1l-5 -6l-16 -11h-4l-13 -10l-5 -1l-4 -5l-15 -3l-25 -9l-8 -4l-29 -5l-34 -1l-31 -1l-32 4l-31 9l-28 10l-25 19l-24 22l-21 22l-16 28l-6 11l-3 13l-12 30 l-4 29l1 21l3 2v32l1 8l10 29l3 11l5 9l6 6l2 7l7 7l1 6l35 35l7 2l11 11l18 14l28 10l15 6l31 5l16 2l22 -9l7 -14l-1 -33l2 -14zM575 666v-3l18 -8l3 2l2 6h-5l-14 11zM574 592l-1 -1l6 -4l7 -1l2 13l-2 3l-4 -1zM557 659l2 -1l4 7l-3 7l-6 2l-2 -4zM588 709v-3l10 -2l2 3 v5l-5 3zM526 473l-1 -3l10 -4l3 2l1 5l-11 2zM599 612l-1 -1v-5l7 -2l4 2l-1 5l-3 2zM367 87l2 1v4l-7 3h-5l3 -7l4 -2zM569 615l-1 -2l8 -7h3l-2 9l-4 2zM552 640v-9l8 2v6zM441 274v-10l4 1l3 4l-1 3zM514 652h2l2 3l-1 4l-3 2l-2 -4zM391 135v-2h5l2 3l-4 4zM548 563v-4 h6l-1 3z" glyph-name="I" horiz-adv-x="591" unicode="I"/>
<glyph d="M331 21l-1 -1l-6 -32l-8 -14l-3 -10l-6 -5v-5h-2l-7 -25l-1 -5l-6 -6l-2 -7l-5 -4l-9 -25l-3 -6l-6 -6l-5 -11l-6 -5v-4l-11 -11v-5l-12 -11v-5l-4 -2v-5l-25 -25v-4l-12 -11l-10 -13l-6 -2l-13 -10l-5 -6l-25 -11l-6 -6h-5v-2h-4v-2l-6 -1l-4 -3l-6 -1v-2l-14 -5l-31 -6 l-32 -2h-34l-16 1l-28 8l-13 8l-2 3l-7 1l-12 11h-5l-20 23l-9 12l-10 20l-6 28l-4 34l2 31l3 16l11 23h2l3 7l5 4l14 28l7 5v4l24 21l12 10l28 15l11 9l29 13l29 12l30 10l33 9l11 2l2 3h7l30 10l27 3l3 2h8l2 2l23 8l17 3l12 7l10 13l10 28l11 28l6 14l7 11l1 7l5 6l1 7 l4 7l8 28l3 8l5 5l4 18l5 6l1 7l13 27l11 30l12 30l11 30l14 29l5 15l5 7l9 29l14 28l4 20l3 2l1 6l3 3l1 8l7 13v8l-4 6l-7 3h-8l-15 -5l-4 -5l-31 -11l-13 -8h-3l-3 -3l-12 -4l-8 -5l-11 -3l-6 -6l-5 -1l-5 -6l-6 -1v-3h-5v-2h-4v-2h-5v-2h-4l-24 -15l-6 -1v-2h-4v-3 l-6 -1l-26 -20l-24 -22l-21 -23l-7 -9v-4l-6 -6l-9 -27l-3 -19l4 -30l4 -17l7 -13l21 -22l6 -5l6 -2l3 -3l14 -4l14 -7l9 -10l4 -15v-37l-6 -22l-5 -5l-30 -4l-16 2l-29 12l-11 6l-15 5l-24 17l-19 19l-2 6l-6 4l-2 7l-13 21v4l-7 14l-7 29l-5 27v30l3 2l3 33l4 14l4 5v5 l5 3l1 9l11 20l5 5l3 8l11 11l8 12l24 23l25 21l25 20l27 16l7 3l2 3l7 4h4v2h5v3h4v2l7 2l2 5l7 2l26 15l29 14l25 11l7 4l6 1v3h5v2l16 4v3h4v2l18 4l2 3h8l11 4l12 8l26 11h3l7 5l27 9l29 17l13 9l35 35l13 8l8 8l31 10l22 9l16 -1l12 -7l6 -7l6 -15l4 -25l-5 -15 l-24 -21l-22 -24l-2 -7l-12 -11l-6 -18l-5 -5v-6l-9 -14l-2 -7l-5 -5l-7 -30v-4l-10 -20l-8 -13l-11 -29l-10 -32l-1 -3h-2l-6 -15l-3 -3l-1 -6l-5 -9l-8 -28l-5 -5l-6 -17v-4l-14 -30l-11 -30l-5 -5l-4 -17l-9 -18l-8 -25l-9 -14l-11 -30l-11 -16v-4l-10 -30l-11 -28v-8 l4 -6l8 -3h5l22 11l14 6l6 5l10 3l2 4h4l5 7h5l11 11l21 12l22 24l18 25l20 25l6 3h7l9 -3l12 -9l9 -14l1 -9l-3 -9l-2 -1l-3 -10l-3 -3l-1 -6l-4 -2v-4l-4 -2l-1 -5l-5 -2l-2 -7l-4 -2v-4l-5 -3l-1 -6l-22 -23l-6 -10l-13 -8l-17 -18l-4 -1l-7 -9l-7 -2l-20 -14l-7 -2 l-2 -5l-6 -1l-3 -3l-10 -3l-3 -3l-10 -3l-27 -14l-31 -11l-16 -5l-14 -7zM172 -5h-1l-30 -7l-31 -10l-7 -1l-2 -3l-12 -1l-6 -5l-28 -12l-15 -6l-5 -6l-16 -6l-11 -9l-7 -2l-22 -24l-15 -35l-1 -16l5 -23l5 -6l2 -8l12 -10l12 -7h31l19 2v2h4v3h5v2h4l3 3l6 2v2l8 3l6 5l4 1 l7 9l7 2l16 16l6 11l10 9v5h2v4l14 16l1 6l6 6l3 7l6 6l1 6l4 3l9 22l12 20l4 15l-4 8l-4 2zM252 23l-2 -1l-11 -5l1 -4l10 -7l10 13h7l2 -7l4 -1l4 4l19 -7l1 7l-6 12l-8 -1l-3 2l-7 -1l-2 3v8l-9 -2zM482 645h2l4 9h4l3 3v6h-4l-5 -5l-14 5l-2 -7l5 -7zM327 80v-1l14 5 l2 4l-5 11l-3 2h-5l-4 -13zM530 687l-1 -2l9 -7l7 -1l4 2l-3 7l-7 4h-4zM276 41l-1 -1l3 -7l4 2l13 -1l3 2v4l-7 3zM255 47h7l-3 18h-6l-3 -8l2 -7zM498 626l-1 -2h18v6l-5 5l-6 -2l-6 -5v-2zM307 124v-2l3 -2h8l3 2l-1 9l-7 1zM474 561h-2v-6l6 -3l8 3l2 6l-4 2l-3 -3z M309 92h2l3 7l-3 2v12h-4v-17zM303 75l-1 -1l3 -7l8 2l3 7l-5 1zM375 278h4l3 7l-3 6h-4l-3 -7zM515 610v-2l10 -4l4 2v4l-7 3zM244 39l2 1l-3 7l-6 2l-2 -2l2 -7l4 -2zM463 466h2l5 5v4l-7 2l-2 -3v-5zM350 240v-3h5l3 2v7l-3 2zM355 86v-3l8 3l1 4l-7 2zM340 148l1 -1h4 l3 9l-8 -5v-3zM475 613v-2l7 -2l2 6zM386 251h5v4l-3 2l-3 -2zM420 344v2l-6 2l-1 -4l4 -2zM497 590l-2 -4l7 -2l-1 4zM312 45l-1 2l-6 -4v-2h3zM300 24v-4h5v4h-5zM264 -28v2l-7 3l1 -4z" glyph-name="J" horiz-adv-x="548" unicode="J"/>
<glyph d="M1058 726l-1 -2l-31 -2l-15 1l-18 -5l-1 -4l-6 -1l-2 -4h-4l-10 -12l-11 -9v-4l-3 -2l-1 -5h-3v-5l-3 -2l-1 -7l-11 -23l-5 -15l-15 -28l-3 -18l-11 -20l-8 -30l-3 -2l-3 -9l-6 -4l-10 -20l-4 -23l-6 -10l-3 -2l-14 -28l-14 -24l-19 -21l-1 -6l-6 -5l-10 -13l-16 -15 l-11 -5l-22 -22l-7 -4l-2 -3l-5 -1v-2h-5v-2h-4l-28 -13l-14 -6l-6 -5l-6 -11l15 -22l10 -13l7 -13l7 -27l3 -31l3 -17l-4 -26l-3 -34l-4 -32l-4 -31l-6 -30l-6 -28l-6 -32l-5 -33l-1 -8l2 -3l-3 -33l4 -14l12 -12l14 -8l14 -5h7l2 -5h5l8 -14l2 -28l-4 -31l-1 -8l-4 -7 l-6 -5l-2 -4l-34 2l-30 5l-20 4l-2 3l-10 4l-23 24l-19 17v4h-2v5h-3l-11 29l-5 12l-3 28l-2 34l4 33l6 31l6 30l1 13l2 3l3 30l7 29l6 33l3 32l2 31v16l-5 30l-12 29l-7 15l-22 23l-13 10l-15 5l-19 -9v-5l-5 -4v-5h-2l-8 -25l-14 -24l-20 -60l-12 -29l-14 -28l-16 -28 l-18 -26l-19 -22l-8 -7v-4l-12 -12l-20 -25l-14 -9l-5 -6l-13 -6l-6 -5l-16 -5l-3 -5h-4l-13 -7l-32 -10l-31 -8l-31 -4h-33l-29 4l-31 8l-10 2l-14 8l-5 5l-7 2l-6 6l-14 8l-9 9l-7 2l-7 9l-12 10l-3 8l-5 2v5l-5 2l-1 6l-15 28l-7 9l-1 7l-3 2l-7 32l-2 29l-1 32l1 15 l12 31l6 27l3 2l4 11l20 25l10 13l13 11l11 4l5 6l11 6l7 10l7 2l6 6l12 3l2 2h4l5 5l30 2h9l13 5l16 -1l8 -3l8 -8l3 -15l-1 -16l2 -35l-4 -13l-17 -10l-17 -1l-24 -8l-5 -4l-12 -5l-23 -23l-2 -1v-4l-5 -4l-1 -8h-2l-7 -14l-3 -20l-2 -2l3 -33l2 -15l15 -28l5 -9l26 -20 l15 -6l6 -5l30 -4l33 -2l17 2l16 5l3 3l9 2l6 5l7 2l4 6l7 2l24 20l9 6l3 4v3l10 9l3 6l4 2l8 15l8 9l1 5l5 3v4h2v5h2l5 14l16 28l8 12l9 26l7 13l11 33l9 22l1 7l13 27l11 30l5 9l3 12l5 6l10 30l8 14l6 16l1 11l8 13l5 14l3 3l7 21l12 28l14 31l9 27l7 14l-1 8l-5 7l-6 1 l-2 2l-32 -9l-30 -8l-6 -3h-7l-13 -7l-26 -8l-20 -8l-31 -12l-25 -18l-23 -21l-12 -13l-9 -14l-3 -13v-34l7 -30l1 -3l6 -4l3 -7l23 -16h5l1 -3l13 -3l5 -4l8 -15l2 -32l1 -17l-4 -15l-4 -6l-13 -7h-17l-16 3l-30 13l-28 13l-22 22l-15 14l-2 6l-10 13l-8 25l-11 27l-2 33 l2 30l9 30l9 27l6 8l2 6l13 13l1 6l20 21l17 16l7 2l2 5l12 5l3 3l11 3l10 7h5v2h4l8 8l6 1v3h5v2h4v2l15 3l21 8l21 7l13 9h5l2 3l31 6l30 10l28 8l33 11l14 3l10 5l14 3l29 14l23 22l7 7l2 6l9 6l3 5h5l2 5h5l2 4l28 10l2 2l13 2l10 4l15 2l15 -6l9 -12l5 -12l5 -26l-3 -8 l-21 -23l-14 -9l-4 -9l-7 -4l-1 -6h-2l-3 -7l-4 -2l-2 -7l-6 -4l-8 -14l-1 -6l-15 -30l-24 -60l-12 -29l-6 -12l-5 -16l-5 -8l-2 -9l-5 -4v-7l-3 -3l-1 -9l-12 -27l-6 -16v-4h-3l-12 -27l-5 -21l2 -7l9 -8v-2l15 -4l32 3l16 2l23 7l2 3l10 4l26 19l13 10l18 25l9 11l2 7l6 5 l1 6l8 14l5 15l8 13l3 2l1 7l5 6l2 12l11 25l6 14l3 15l8 13l12 31l7 22l5 6l1 7l6 13l5 19l5 5l11 25l6 6l3 12l21 23l23 23l6 1l2 5h5l2 4l7 2l6 5l7 1l29 13l6 2l30 1h33l32 -3h2v-2l13 -10l2 -7l-5 -32l-6 -24zM486 316l-2 1l-2 -3l-12 -3l-2 -3l8 -7l14 4l3 3l-4 7z M583 627v-2l7 3l3 6l1 8l-2 8l-7 -1zM491 347l-1 -1l2 -8l10 -8l3 9v8l-8 2zM612 637l1 -1l7 3l4 11l-11 4l-3 -7zM507 331l-1 -1v-4l6 -7l7 6l1 5l-5 5h-4v-2zM880 594l-2 1l-7 3l-5 -3v-7l11 -1l4 4zM500 391l2 -2l7 3l2 6l-9 5l-4 -7zM471 346l1 -2l8 1l1 3l-2 4l-7 3 l-2 -4zM554 640v-2l9 -2l2 9l-3 2l-6 -3zM854 619l-1 -1v-5l8 -2l3 2v5l-4 2zM627 276h2l4 6v3l-7 2l-2 -3v-5zM545 656h-2l1 -5h6l6 9l-4 3l-3 -6zM371 113l-1 -2l3 -2l8 1l1 3l-7 5zM671 93h-2v-5l7 -2l2 2v5l-2 2h-4zM576 617l-2 -1l1 -4l11 -3l-3 7l-4 2zM649 27v-2 l10 6l1 3l-4 4zM468 323v-6l5 1l3 3l-1 5h-4zM676 170v4l-2 2h-7l-1 -4l7 -3zM538 455h2l2 3l-4 5l-5 1v-5zM6 56v-2l3 -2l4 1l2 6h-5zM874 631l-1 -2l4 -2l5 4v3h-4zM15 172v-7h4l3 7h-7zM566 677l-1 -2l9 -3v5l-3 2zM458 320l-1 -1v-4l9 -3l-5 8h-3zM481 294v-7h5l2 5z M432 271v-2l3 -2l4 1l2 3l-4 2zM597 582h2l2 3l-1 4l-3 2l-2 -4zM881 667l-1 -2l4 -2l3 5l-5 2zM647 90v-6h4l2 4zM599 310v-5h5v5h-5zM520 362l-2 -4l6 -3v4z" glyph-name="K" horiz-adv-x="841" unicode="K"/>
<glyph d="M583 303l-2 -1h-25v-2l-29 -12l-28 -5l-11 -3l-33 1l-33 -3l-12 -6l-10 -11v-5h-2l-4 -23l-4 -5l-7 -16l-4 -16l-3 -3l-1 -7l-4 -5l-5 -16l-7 -8l-5 -14l-15 -30l-4 -14l2 -15l9 -12l24 -19l17 -16v-2l4 -1l46 -44l24 -22l23 -20l5 -6h4l17 -17l11 -8l6 -7l7 -2l7 -9 l3 -1l6 -7l25 -18l20 -8l6 -6l6 -2l3 -3l27 -6l30 -1l30 8l14 5l22 14l11 4l26 18l12 8l8 1l14 -6l24 -25l11 -11l10 -12l4 -12l-1 -9l-12 -18l-24 -20l-2 -2h-4l-4 -5h-5v-2h-5v-2h-4v-2l-28 -14l-30 -13l-31 -11l-31 -3l-6 -2l-19 2l-2 2h-25l-19 8l-20 3l-2 3h-4l-10 8 l-27 12l-25 16l-20 13l-11 10l-7 2l-27 21l-22 22l-4 6l-13 7l-1 4l-13 8l-10 12l-24 19l-21 23l-22 24l-26 22l-13 9l-15 2l-12 -6l-13 -12l-22 -14h-5v-2h-4v-3l-14 -5l-9 -6l-30 -12l-11 -4l-26 -2l-36 -1l-31 3h-2l-2 3l-29 11l-10 4l-5 6l-11 4l-12 12h-4l-20 21v5 l-4 2l-11 31l-6 16l-1 28l2 16l2 2l4 28l13 26l9 15l3 2l1 4l9 7l3 7l15 14l7 1l3 6l13 3l5 5l15 4l11 5l31 4l30 -3l34 -5l25 -9l14 -7l8 -2l5 -5l6 -1l13 -8l17 -5l6 1l10 6l9 13l6 15l6 20l3 8l3 3l11 29l1 16l-5 10l-7 2l-6 5l-20 8l-3 5h-4l-29 14l-5 6l-8 3l-5 7l-6 2 l-25 22l-20 25l-9 13l-4 12l-5 2v4l-3 2l-6 11l-8 26l-9 32l-4 16l3 18l1 33l3 32l1 7l11 28l2 11l6 6l3 12l6 6l3 12l5 4l2 7l8 8l2 6l23 24l24 19l20 15l7 1l13 -8l16 -20v-3l7 -6l9 -13l6 -15l1 -7l-6 -17l-6 -7l-11 -7l-12 -14l-11 -9l-5 -12l-6 -5l-1 -6l-8 -11l-9 -32 l-3 -33l3 -29l2 -2v-8l11 -28l7 -14l20 -24l3 -3h5l4 -7l6 -1l26 -20l14 -8h4v-3l15 -2l14 9l5 11l6 5l4 16l4 4v4l5 5l9 29l11 30l12 24l1 6l5 6v5h2l8 23l6 6l3 14l3 2l16 28l12 25l6 7v3l12 14l1 6l19 26l19 25l20 24l24 22l24 23l8 3l2 5l7 2l2 5h5v2h4v2h5v2l6 1l6 5 l6 1v3l12 3l18 1l5 3l32 6l15 -2l15 2l32 -4l2 -3l12 -2l4 -3l21 -6l11 -5l5 -6l8 -4l10 -13l9 -6l1 -6l5 -8h2l17 -27l6 -14l3 -2l4 -30l3 -33l-2 -32l-6 -31l-10 -29l-11 -28l-7 -16l-1 -8l-15 -26l-17 -26l-4 -8l-22 -24l-14 -12v-5l-24 -21l-15 -15h-4l-5 -7l-13 -9 l-7 -8l-27 -15l-15 -10l-10 -3l-2 -3l-7 -1l-3 -3l-22 -8l-16 -5l-2 -3l-7 -2zM467 379h12l31 6l28 8v2l12 1l6 5l23 11l7 2l7 5l7 2l12 11l10 5l1 4l6 1l25 22l22 22l6 5l1 5l6 5l1 4l21 25l14 28l7 16l6 8l4 21l3 4l2 12l3 5l1 35l-1 15l-2 5l-4 3l-1 7l-10 12l-4 2v2 l-23 11h-18l-14 -2l-22 -9h-5v-3h-5l-4 -6h-5l-5 -8l-12 -8l-23 -23l-3 -7l-4 -2l-2 -7l-9 -7v-2l-3 -2l-2 -7l-6 -4l-5 -14l-3 -2l-1 -6l-13 -19l-2 -7l-8 -9v-4l-5 -5l-7 -13v-3l-15 -25l-1 -7l-3 -3l-2 -9l-4 -3l-6 -14v-5l-5 -4l-4 -14l-4 -7l-1 -8l-5 -5l-4 -14l-7 -15 l-4 -15l5 -7zM168 64l1 2l5 6l2 8l-2 7l-14 15h-4l-5 6l-4 1l-5 6l-8 2l-14 7l-16 3l-19 1l-15 -3l-14 -5l-16 -20l-4 -9v-11l-2 -7l2 -3l1 -12l3 -3l3 -11l12 -11l6 -1v-2l15 -5l13 -1l19 2l17 4l18 8l13 11l4 8zM346 349h-2l-6 -14l-4 -2l-4 1l-5 5l-4 1l-7 -7v-4l5 -5 l-3 -7l-5 -3l-1 -6l13 -13h2l-2 11l1 4l11 11l11 6v9l3 6l5 3h5l-1 6zM368 317l-2 1l-2 3l-7 3l-7 -3l-2 -3l1 -5l12 -8h8l4 3l8 -2l7 4l3 8l-7 2zM357 368v-3l1 -3l8 -1l7 -10l8 -2l5 2l3 7l-9 5h-7l-4 8l-5 3zM292 68h-3l2 -4v-7l-4 -7l12 3l13 15v3l-8 2l-6 -4zM303 176 v-3l7 2l5 4l1 7l-3 2l-7 -3zM247 86l1 -2l5 1l3 4l6 -2l2 4h-4l-5 5h-2zM274 50h2l1 7l-8 9l-2 -3l1 -8zM778 699v-3l9 -3l2 4v6l-4 2zM330 266v-3l3 -2h8l-2 8l-7 3zM432 348l-2 -1l-5 -3v-5l2 -3l8 4v7l-3 2v-1zM419 382l-1 -1l3 -7h5l6 7l-3 2zM237 98v-2l7 4l4 7l-6 2 l-4 -1zM718 454l1 -1l8 2l2 7h-12zM270 95l-1 -2l10 5l1 7l-7 2zM777 749l-1 -1v-5l8 -2l3 2v5l-4 2zM328 188h2l-1 9l-2 3h-4l-2 -4l3 -6zM804 646h2l6 4l-1 4l-10 1v-5zM215 43v-2l4 2l7 12h-5l-3 -2zM221 89h-2v-4l3 -3h6l-1 8l-6 1v-2zM787 560v2l-6 3l-7 -1l2 -4l4 -2z M366 273v2h-9v-5l6 -2zM683 761v-2h7l2 7l-7 -1zM543 684v-2l9 2l2 5l-9 -2zM625 761h2l-3 7h-6v-4zM729 752v-2l3 -2l4 1l2 3l-4 2zM713 773v-7h4l2 7h-6zM587 725l-1 2l-2 1l-4 -2l-1 -3l5 -1zM224 34v-6h4l2 6h-6zM326 203l2 -1l2 7h-7zM826 671v2l-6 2l-1 -4l4 -2z M206 135l2 -1l-1 8l-2 1l-2 -5zM410 339l-1 -1l5 -2l2 4l-4 2zM219 143v-2h5v7z" glyph-name="L" horiz-adv-x="751" unicode="L"/>
<glyph d="M816 690l1 -2l8 1l11 9l4 1l5 6l15 8l4 5l7 2l5 6l13 10l7 2l2 4l23 7l6 4l30 8l30 3l25 -1l2 -2l30 -11l7 -4l22 -22v-4l4 -2l5 -32l7 -25l-3 -2l-5 -30l-2 -17l-6 -15l-2 -11h-3l-10 -30l-9 -20l-10 -29l-5 -16l-15 -25l-6 -17l-1 -8l-12 -30l-5 -15l-15 -27l-8 -31 l-6 -14h-2v-5h-2v-5l-4 -2l-1 -7h-2v-4h-2l-9 -25l-3 -2l-6 -21l-3 -2v-7l-2 -2l-2 -11h-2v-5h-3l-2 -11l-6 -9l-7 -30v-2l-3 -2l-4 -11l-5 -5l-10 -29l-3 -3l-9 -25v-4l-5 -5l-9 -26l-10 -26l-5 -6l-9 -29l-6 -15l-6 -33l5 -32l18 -27l5 -6l6 -3l1 -7l5 -5l3 -7l-2 -14 l-7 -15l-8 -26l-6 -14l-10 -11l-7 -5h-14l-5 4l-10 3l-24 19l-6 6l-6 3l-11 12h-4l-16 18v5l-3 2l-12 29l-9 29l-3 25l4 31l5 31l7 16l8 12l7 29l10 30l12 21l9 24l10 29v2h2l11 29l11 30l3 5l2 9l13 25l3 4l3 15l11 25l11 28l11 32l12 27l13 31l12 29l12 25l7 12l10 32l3 2 l3 14l8 21l10 29l9 34l-1 10l-10 13l-15 4l-32 -4l-15 -5l-28 -15l-18 -14l-6 -1v-2l-7 -3l-24 -21l-12 -11l-3 -8l-10 -12l-5 -16l-3 -4l-2 -11l-5 -5v-6l-4 -8l-5 -5l-7 -23l-11 -30l-5 -15l-3 -3l-9 -29l-5 -12l-5 -5l-12 -28l-8 -14v-8l-7 -25l-5 -4v-7l-5 -6v-8l-9 -21 l-9 -14l-6 -26l-6 -8l-4 -13l-11 -22v-4h-2l-2 -11l-5 -5v-7l-5 -6l-1 -12l-3 -2l-4 -7l-1 -6l-3 -3l-9 -30l-1 -6h-2l-1 -6l-7 -15l-10 -29l-10 -24l-17 -16l-28 -3h-39l-17 1l-12 6l-6 13l1 11l4 11l2 1l6 23l3 2l3 14l11 30l3 6l3 2l12 29l7 26l6 6l12 28l8 22v7l4 3l1 8 l4 2v5h3v4h2v5h2v4h2l9 29l9 24l13 29l13 28l5 14l5 7l7 30l12 30l14 28l11 25l2 10l14 30l10 30l12 31l3 14l-2 18l-7 14l-14 5l-25 -2l-39 -13v-2h-4v-3h-5l-2 -4h-4v-3l-6 -1l-25 -19l-23 -21l-14 -13v-4l-7 -5l-2 -9l-4 -1l-11 -28l-5 -14l-5 -7v-9h-3l-1 -7l-7 -14 l-7 -22l-3 -15l-6 -5l-11 -27l-12 -26l-3 -14l-8 -24l-3 -2l-9 -30l-14 -29l-7 -14l-8 -27l-11 -25l-10 -25l-8 -12l-6 -29l-10 -17v-7l-5 -5l-3 -15l-2 -3h-2l-3 -12l-5 -5l-5 -17l-3 -2l-2 -16l-12 -31l-2 -7l-21 -20l-16 -3l-33 2l-27 -2l-16 5l-8 6l-2 14l4 16l14 32 l1 4l3 2l9 30l7 14l2 8h2l10 28l1 6h3v5h2v4l4 7v5h3v4h2l8 27l10 23v4h2l5 15l2 13h2v4h3v5h2v4h2v5h2v4l4 5l8 25h2l9 28l8 15l1 7l4 5l5 17l11 25l6 4l2 11l2 1l10 30l12 29l11 28l6 15l1 9h3v4l8 19l5 6v5h2v4h3l7 26l5 20l4 4l2 7l-2 11l-7 3l-15 -2l-30 -11l-23 -8v-2 l-29 -10l-28 -8l-9 -7l-7 -1l-30 -14l-30 -13l-28 -16l-23 -19l-21 -24l-5 -5l-9 -17l-6 -30v-17l3 -18h2l5 -16l9 -13l27 -15l20 -13l5 -7l3 -15l-1 -21l3 -5l-3 -2l-1 -28l-8 -13l-16 -2l-16 2l-29 8l-25 10l-26 20l-11 10l-9 12l-2 7l-9 17l-3 2l-1 5l-7 5l-4 20l-3 2v7 h-2l-5 27v34l4 31l2 7l4 3v4l7 14l2 8l13 19l2 7l5 5l3 7l5 5v4l10 8l14 19l7 3l11 9l7 2l20 14l2 3h5v3l16 11h4l16 13h5v3l30 10l12 5l3 3l16 7l15 3l30 13l29 10l25 10l12 2l5 4l29 9l29 13l30 12l32 6l14 -4l8 -5l16 -17l7 -3l24 -25l12 -8l15 -2l13 5l10 8l6 1l3 3l7 1 l7 4l4 5l7 2l2 5l12 4l4 5l25 9l25 7l13 3l33 -1l13 -2l13 -6h5l10 -7l6 -2l13 -13l15 -23l2 -7l5 -8zM476 631l-1 -2l-3 -1l-2 -8l11 -16h3l3 3v16l-3 15l-8 -1v-6zM1014 636v-2l4 -3l4 4l7 3l3 7v5l-8 2l-6 -4zM755 610l1 -1l4 1l6 6l1 4l-11 5l-2 -3zM739 584l1 -2h4l3 6 l-1 9l-6 3zM432 503l2 -1l5 3v11l-3 2l-3 -1l-3 -11zM436 662l1 -1l2 -1l5 6l-1 8l-2 3h-2l-4 -12zM704 648v-3h11l-1 8l-2 3h-4zM771 652l1 -2l7 3l2 3v7l-5 -1l-6 -5zM314 278l2 -5v-4l-5 -5l1 -4h5l2 11l4 7h-9zM632 323l2 -2h4l2 3v9h-6zM774 -93v-2l5 -2l6 5v5l-2 3z M780 629l1 -2l4 1l6 6l1 4h-5l-6 -5zM281 174h2l-1 8l-2 3h-4l-2 -3l3 -6zM962 435v-3h5l7 4l1 3l-4 2zM1037 630v-3l6 2v8l-6 1l-2 -3zM738 695h2l2 3v8l-6 -2l-1 -4zM448 661v-9l5 1l2 3l-4 5h-3zM466 657v-3h4l5 5l-3 2l-4 -1zM504 653v-3l8 1l1 3l-7 2zM520 74v-2h5l1 2 l-3 3h-4l-1 -3h2zM713 684v2l-6 2l-1 -4l3 -2zM1029 597l-1 -2l4 -2l2 5l-4 2zM314 208v-4h7l-1 3zM765 -30v-4h7l-1 3zM296 226v-4h5v4h-5zM412 444v-5h4v5h-4zM677 403v-5h4v5h-4zM783 -18v-5h4v5h-4zM371 367v2l-7 2l1 -4h6z" glyph-name="M" horiz-adv-x="1023" unicode="M"/>
<glyph d="M740 382l-2 -2l-9 -13l-6 -31l-8 -17l-3 -3l-11 -30l-1 -8l-9 -25l-9 -12l-10 -30l-11 -26l-6 -18l-5 -2l-9 -29l-10 -28l-12 -31l-2 -10l-8 -13l-10 -29l-6 -15l-3 -2l-9 -27l-3 -16l-1 -37l6 -14l10 -12l16 -11l1 -6l3 -2l3 -8v-7l-10 -32l-3 -16l-6 -14l-10 -13 l-20 -9l-17 6l-13 12l-6 1l-25 21l-17 26l-4 7h-2l-6 11l-3 2l-11 30l-4 32v32l8 31l3 17l10 25l7 21h2v5h2l9 24l12 28l9 29h2v5h2v4h3v5h2v4l5 5l2 11l2 2l9 25v5h2v4h3l6 19l1 8l12 29l1 3h2v5h3v4h2v5h2v4h2l3 12l3 3l1 6h2v4h3v5h2v4h2v5h2v4h3l7 30v2h2v5h2l9 30 l10 19l9 24l13 30l7 22l7 13l8 29h3v5h2l10 27l11 31l3 18l-2 16l-3 6l-12 8l-9 1l-5 -3l-18 -2l-2 -3l-21 -6l-4 -5l-10 -3l-3 -3l-6 -2l-19 -14l-10 -3l-12 -10l-21 -18l-25 -21l-12 -10v-4l-31 -31l-2 -6l-3 -2v-4h-2l-1 -6l-13 -29l-12 -30l-11 -30l-13 -28l-12 -31 l-11 -29l-12 -25l-4 -16l-11 -28l-12 -27l-12 -31l-11 -30l-7 -14l-10 -31l-12 -28l-12 -31l-12 -30l-11 -25l-12 -13l-26 -3h-39l-24 2l-5 2l-11 11l-2 8l10 32l10 27l5 5l5 16l5 4v5h2l4 20l3 2l11 29l11 30l12 29l12 30l14 29l4 11l3 3l11 30l12 32l11 29l12 27l5 16 l12 27l11 31l14 30l11 31l3 12l3 2l4 14l4 7l3 11l6 4l11 28l2 16l-1 9l-7 4l-20 -4l-13 -4l-3 -3l-11 -1l-3 -3l-30 -9l-29 -12l-31 -10l-29 -12l-21 -8l-7 -9h-4l-6 -5l-16 -6l-5 -7l-6 -1l-24 -24l-10 -8l-1 -5l-5 -2l-1 -8l-9 -12l-6 -15l-3 -15l1 -29l7 -19h2v-4 l21 -24l29 -14l16 -17l-1 -30l-1 -6l2 -2v-16l-5 -15l-6 -8l-7 -4h-16l-8 4l-33 6l-7 2l-11 8l-19 10l-12 11l-14 18l-5 2v4l-11 12l-2 7l-5 2v4l-5 7l-2 7l-3 3l-4 30l-2 3v7l-2 2v7l-2 4l2 33l-1 17l3 7v7l4 5l12 30l12 24l4 2v5l12 9l22 23l24 22l9 8l19 12l30 11l18 14 l11 7l14 4l27 13l23 10l11 2l26 10l15 4l30 14l24 6l2 3l13 3l30 11l28 8l26 13l7 1l12 -3l11 -12l15 -27l14 -26l3 -2l11 -24l5 -6l8 -5l11 -1l15 7l20 17l4 7l7 2l2 3h2l5 6l25 16l2 3l28 11l4 5l29 12l3 3l17 4l31 6l18 2l16 -1l19 -5l21 -24l20 -23l6 -13l3 -14l-3 -18 l-3 -6v-32l-10 -27l-8 -28h-2l-11 -29l-10 -30l-9 -24l-2 -7l-3 -2l-22 -55l-3 -2v-5l-10 -30zM745 676v-2l2 -2h4l7 4l3 -2v-11l-5 -14l4 1l1 4l7 4v12l3 7l-6 8l-1 9l-5 9l-5 1zM467 572v-2l7 -13l2 -10l13 7v4l-5 6l-2 6l8 2l6 4l2 5l-16 -2l-13 2l-3 -8zM770 605v3 l-14 10l-7 3l-6 -4l11 -6l2 -3v-5l9 -10l4 6zM449 531h2v5l5 13l-2 4h-11l-1 -13l4 -7zM726 691l1 -3l6 3l10 13l-6 4l-6 -2l-4 -6zM455 635v-2l10 -6h4l8 -9l3 2l-9 13l-9 7l1 -3zM455 597v-2l9 1l4 4l1 4l-5 6l-4 1l-1 -8zM356 307v-2l10 1v16l-4 1zM485 639l2 1l-3 7 l-11 2l1 -8l3 -3zM427 669l-1 -2l3 -2h8l4 2l1 3l-11 3zM511 598l1 1l9 2l-16 5l-2 -3l3 -4zM536 -79l-1 -1l2 -7l6 3l1 6zM521 -32v-7l2 -1l3 2l-1 6h-4zM738 588v-4h5v4h-5z" glyph-name="N" horiz-adv-x="775" unicode="N"/>
<glyph d="M485 833l2 1l16 1l33 -6l28 -11l9 -6l14 -6l24 -23l11 -11l16 -26l13 -30l14 -60l3 -17v-32l-3 -31l-3 -32l-1 -16l-3 -9l1 -27l-8 -25l-14 -60l-20 -62l-12 -30l-13 -29l-4 -16l-14 -27l-13 -27l-6 -17l1 -6l8 -9h4l2 -2h16l32 10l8 1l10 5v2h5v2h4l25 18l22 22l16 21 l5 7l7 5l10 1l12 -2l5 -6h5l3 -3l2 -7l3 -2l1 -16l-15 -28l-21 -23l-16 -16h-3l-12 -12l-10 -7l-28 -14l-31 -12l-29 -9l-25 -5l-33 3h-18l-14 -2l-12 -10l-8 -14l-11 -12l-18 -27l-20 -20v-4l-26 -26l-6 -1v-3l-7 -3l-14 -12l-7 -3l-8 -9l-7 -2l-17 -17l-11 -4l-14 -9 l-10 -4l-3 -3l-23 -8l-33 -9l-27 -5h-35l-32 1l-8 1l-2 3l-16 1l-20 9l-26 16l-3 1l-7 9l-6 1l-12 12l-15 19l-1 6h-2l-16 28l-9 26l-5 17h-2l-2 30l-2 32l-5 40l3 30l4 32l7 30l7 29l6 35l5 16l11 20l4 27l3 2l1 13l8 15l3 11l15 28l12 29l19 27v4h3l4 16l3 2l5 14l19 25v4 h3v5h2v4h2v5h2v4h3l3 8l8 8l2 7l6 4l3 7l22 23l3 7l13 9l21 22l23 23l19 15l6 1v2h4v3h5v2h4v2h5v2h4v3l6 1l10 8l7 2l5 6l8 2l23 23l23 20l29 13l14 6l5 5l30 6zM251 546l-9 -9l-13 -28l-18 -26l-8 -20l-11 -29l-9 -18l-4 -5l-9 -28l-9 -27l-4 -10l-8 -30l-11 -31l-9 -31 l-4 -31l-3 -16h-2l-4 -29l-3 -16l3 -32l1 -34l1 -13l13 -33l9 -13l16 -16l12 -4l4 -5h5l5 -3l32 -3l19 -1l21 12h4l18 9l8 9h3l24 21l33 33l10 14l7 6l2 6l7 5l2 5h2l2 7l9 8v3l8 11l2 7l-5 16l-33 36l-1 5l-5 2l-3 7h-2l-20 25l-17 27l-3 14l-6 6l-10 28l-10 30l-4 15 l-5 32l-4 29l-3 34v32l3 21l-2 16l-3 6l-7 4h-4zM457 268v2l5 7v4l12 21l7 13l8 31l2 8l3 2l10 31l4 15l5 8l6 28l2 2l9 30v4l2 2l4 30l7 31l4 31l2 34l-1 31v9l-2 2l-1 17l-6 10l-2 7l-6 6l-2 7l-18 15l-8 1l-6 3l-33 2l-11 -3l-26 -18l-13 -11l-8 -12l-3 -2v-4h-2v-5 l-4 -2l-12 -24l-10 -27l-8 -26l-4 -32l-1 -9l-2 -2v-26l-2 -5l-1 -31l4 -30v-32l1 -7h3v-7l2 -2l7 -32l9 -32l3 -8l4 -5v-5h2v-4h2v-5l14 -16l3 -8l6 -5l9 -17l16 -6zM577 388l-2 -2h-11l-7 4l-5 -10l1 -3l17 3l14 7l3 5l-3 2l-2 5h-5l2 -8zM446 182v2l-3 3l-7 1l-7 -3 l-3 -8l6 -4l10 -2zM568 434l-2 -1l1 -4l13 -7v2l6 5l1 4l-3 3l-11 1zM512 288v-2l7 -2l13 2l-1 7l-7 4l-7 -2zM289 591l1 -2l4 1l3 4l7 -2l4 4l-4 1l-9 8h-5l-2 -3zM474 177l6 3l-2 6l-5 4v3h-6l-2 -7l4 -7zM523 201l2 1l-3 8l-8 4l-2 -8l5 -6zM546 744v-3l3 -2l10 2l-3 7 l-5 3l-3 -1zM471 135v-3h5l3 2l1 12h-7zM580 723h2l2 4l-1 8l-8 4l1 -13zM424 135l2 -1l4 6v9l-4 1l-5 -10zM297 629l2 -1l4 5l-3 7l-6 2l-2 -4zM511 250l-1 -2l6 -6l5 -1l2 2l-4 8l-4 1zM98 328l2 -1l2 3l-2 10h-5l-2 -7zM598 567v-2l8 -3l4 2l1 3l-4 4zM537 263l2 -4h5 l4 7l-4 2l-4 -1zM324 639v-2l6 -4h3l2 6l-3 2h-5zM159 461l2 -1l-1 8l-6 6l-2 -7zM407 117l-2 -1v-4l3 -3h4l2 7l-2 2zM529 363l1 -2l5 1l3 7l-6 3zM335 625v-2h4l3 7l-1 4l-4 1zM516 748v-2l11 1l1 6l-11 -3zM577 692v4l-2 2h-7l-1 -2l2 -4h8zM490 207l4 2l-3 6l-6 1v-5z M458 209l-1 -2l7 -3l7 3l-10 4zM423 750v-2h4l4 7l-1 3l-4 1v-4zM264 636l-1 -1l3 -2l6 3l2 6l-4 -1zM71 46l-1 -2l9 -3v5l-3 2zM125 435v-6h6v6h-6zM356 685h2l2 3l-1 4l-3 2l-2 -4zM449 166l-1 -2l9 -2v4l-3 2zM463 759l-1 -2l3 -2l4 1l2 3l-3 2zM286 648h2l-3 7h-4v-4z M306 585v-5h7l-1 4zM309 641l-1 -2l5 -2l2 5l-5 2zM609 707v-7h4v7h-4zM512 773v-5h4v5h-4zM600 691l3 -3l1 -1z" glyph-name="O" horiz-adv-x="698" unicode="O"/>
<glyph d="M124 761l1 2l14 7l15 13h5l7 9h4l3 5h4v2h5l4 6l14 5l2 3l14 4l11 7l29 10l30 9l9 1l7 3l15 -1l32 8l31 2l31 -2l33 -5l30 -3l33 -9l28 -11l12 -5l6 -6h4v-2h5v-2h5v-3l14 -5l22 -17h3l23 -25l21 -24l6 -9l7 -4l3 -9l6 -4l12 -18l11 -30l5 -6l2 -12l2 -2l4 -32l6 -20v-15 l2 -4v-32l-3 -32l-8 -31v-13l-3 -2l-5 -16l-7 -9l-8 -30l-3 -7l-6 -6l-2 -7l-20 -26l-3 -3l-2 -7l-18 -23l-22 -24l-25 -19l-13 -10l-13 -5l-6 -6l-26 -11h-4l-7 -5l-11 -1l-2 -3l-30 -7l-16 -5l-16 -2l-32 3l-32 1l-32 7l-8 1l-25 9l-31 9h-11l-12 -11l-11 -27l-5 -9 l-9 -31l-8 -22l-14 -27l-11 -31l-4 -12l-3 -3l-10 -28l-3 -7l-1 -9l-7 -14v-4l-7 -14l-8 -11l-14 -10l-14 -3l-32 -1l-33 -1l-14 6l-8 13l2 14l6 20h2l2 16h2l1 6l8 15l1 6h2v5h2v4h2v5h3l4 16l13 27l6 11l2 17l12 25l10 25l3 11l12 26l6 9l6 21l6 6l6 22l4 6v4l5 5l1 8 l9 16l9 29l3 11l14 29l24 60l10 21l3 9v7l13 29l7 14l7 24l16 25l1 6l4 1l1 5l5 3v4l6 5l9 12l25 23l25 17l6 5l24 6l4 3l18 5h13l18 -14l5 -24l4 -10l-1 -19l-7 -4l-10 -13l-6 -1l-7 -9h-4l-5 -7l-7 -4v-5l-3 -1l-16 -29l-8 -15l-5 -14l-4 -4l-1 -7l-13 -27l-11 -28l-9 -28 l-13 -30l-7 -21l-5 -4l-1 -7l-10 -23l1 -6l9 -9l1 -3l21 -4l2 -3l30 -7l34 -2l31 6l34 9l27 10l24 20l25 20l6 5l4 10l5 2l2 7l15 19l8 21l5 5l1 7h3v4h2l8 29l10 31l3 7v13l-5 6v14l-3 2l-2 33l-6 20l-12 29l-19 24l-20 26l-6 4l-7 9h-5l-2 5h-4l-5 5l-7 1v2l-27 14l-8 5 l-23 4v3l-16 3l-7 3l-31 2h-15l-32 -5l-32 -4l-31 -9l-22 -7l-12 -9l-22 -11l-2 -4l-25 -18l-24 -20l-2 -6l-6 -6l-5 -2l-1 -7l-18 -17l-1 -6l-5 -4l-2 -9h-2v-5l-5 -4v-5h-2v-4h-2v-5h-2v-4l-5 -5v-4h-2l-7 -19l-8 -29l-4 -33l3 -32l9 -31l2 -4l4 -23l-1 -8l-5 -3v-4l-6 -3 l-12 -11l-6 -3l-2 -4l-6 -5l-6 -1v-3l-15 -4l-15 2l-13 10l-5 8l-2 7h-2l-10 28l-5 31l-5 35l-3 16l4 31l4 32l14 29l2 16l9 29l12 18v5l4 2l1 7l9 14l3 2l4 8l3 2l2 6l13 11v4l22 21l21 26zM624 674l1 -2l11 9l3 7v5l-8 -2l-6 -6l-2 -7zM206 267h3l4 6v9l-2 3h-7l-2 -9 l1 -7zM332 547l1 -1l9 6l-2 12l-4 -1l-4 -4v-12zM204 236v-3l7 -2l4 7l1 6l-11 -4zM218 351v-2l8 -2l3 2l2 6l-8 2zM245 308l4 -2l5 11l-4 2l-4 -1l-2 -3zM625 650h-2l3 -8l8 -1l-1 8l-5 3zM302 512h-3l2 -8l5 -1l3 8l-3 5zM215 328l-2 -2l2 -6l4 -1l6 5l-6 4h-4zM238 328 v-2h7l4 7l-3 2l-7 -4zM321 538l1 1l-3 7l-6 2l2 -9l3 -2zM257 305l-1 -2l4 1l5 8l-7 -3zM306 482v-2h5l1 5l-4 2zM263 478v-7h4v7h-4zM262 366l-1 -2l4 -2l3 5l-5 2zM666 552v-4h5v4h-5zM612 666v-5h4v5h-4z" glyph-name="P" horiz-adv-x="663" unicode="P"/>
<glyph d="M429 38l-2 -1l2 -8l19 -24l24 -21l24 -22l18 -17l6 -2l4 -6l8 -3l22 -23l23 -22l8 -4l2 -3l5 -1l18 -17l7 -3l5 -5h4l5 -5l15 -6l10 -7h4l23 -14h6v-2l34 -2l30 5l14 5l26 16l19 12l2 5l6 1l8 11l13 5l9 1l15 -7l21 -23l20 -27l4 -13l-4 -13l-10 -12h-5l-11 -12l-27 -18 l-7 -5l-7 -2l-2 -4h-5l-2 -5h-5l-2 -4h-4l-5 -5l-32 -8l-14 -2l-18 -8h-31l-16 -2l-13 1l-31 11l-24 4l-20 12l-12 4l-6 5l-9 2l-12 11l-13 8l-16 17l-7 2l-27 18l-5 5l-8 3l-11 13l-12 10l-10 12l-25 21l-23 20l-24 23l-21 19l-22 21l-7 2l-9 7h-6l-11 -4l-21 -14l-7 -1 l-12 -9l-26 -9l-25 -8l-14 -7l-32 -2l-16 -2l-2 -3l-31 -2l-17 1l-33 8l-16 3l-25 11l-27 18l-7 2l-17 27l-17 25l-2 16l-2 3l1 8l-5 12l-1 18l3 16l6 14l9 31l14 25l24 23l9 8l5 1v2h5v2h4v2l27 10l32 7l15 2l32 -3l16 1l22 -4l3 -4h7l7 -5l11 -1l3 -3l11 -3l15 -7l3 -3h4 v-2h5v-3l11 -4l8 -6l6 -1l7 -7h4l23 -20l4 -1l5 -5l14 -6l15 10l6 3l2 7l8 6l1 4l13 14v4l18 20l3 10l6 4l13 23l10 12l6 13h2l2 7l9 13l2 7l5 6l1 5h2v5l10 12l13 29l10 25l6 6v5h2v4h2l6 17l10 28l7 30l8 30l6 25l2 1l3 31l2 30v35l-1 27l-2 2l-3 15l-13 30l-7 15l-20 22 l-26 18l-12 5l-16 2l-11 5h-30l-33 -5l-29 -9l-6 -5l-14 -5l-16 -9l-26 -18l-12 -9l-2 -7l-6 -4l-2 -6l-12 -10l-20 -25l-6 -5l-3 -7l-3 -2l-4 -7l-3 -2l-7 -11v-4l-11 -19h-2l-4 -7l-1 -6h-2v-5h-3v-4h-2l-3 -15l-8 -26l-7 -30l-2 -32l-1 -10l3 -4v-28l13 -26l21 -26h4 l3 -5h4l2 -4l8 -2l13 -7l16 -5l14 -13v-9l-10 -30l-1 -6l-12 -19l-9 -4v-3h-5v-2h-25l-24 9l-12 2l-2 3l-14 4l-4 5l-7 2l-25 20l-2 3l-18 13l-12 11l-2 7l-6 5l-12 30l-7 20l-2 16l-5 15v31l2 31l3 34l6 29l10 29v5h2l3 15l4 5l9 30l12 18l2 7l6 4l8 14l2 7l6 4l1 6l6 3 l1 6l12 12l3 7l6 4l3 7l8 8l7 2l23 23l14 10l1 4l6 2l23 21l9 8l9 2l27 14l29 11l9 2l10 5l31 8h7l6 3l31 2l32 2l33 -2l31 -6l14 -3l29 -13l7 -2l25 -18l9 -3l7 -10l8 -3l12 -10l3 -7l11 -12l6 -13l6 -5l3 -11h2l10 -22l2 -14l9 -24l6 -31l1 -8h2l2 -31l-2 -31l-2 -32 l-2 -30v-10h-2l-5 -27l-2 -2l-3 -16l-2 -2l-5 -30l-3 -13l-11 -21l-10 -32l-9 -18l-9 -21l-10 -31l-3 -3l-1 -6l-3 -1l-1 -4l-6 -6l-1 -5h-2l-10 -20l-3 -9l-6 -5l-9 -18v-3l-23 -24l-13 -20l-2 -7l-10 -12l-5 -9l-7 -5l-4 -9l-21 -24l-24 -23l-5 -6l-1 -5l-4 -3zM79 88 l-1 -1l-10 -13l-5 -11v-16l5 -17l6 -4l2 -7l29 -16l30 -2l36 -2l27 8l28 13l15 9l7 8l-1 6l-4 7l-27 22l-3 3l-6 1l-2 3l-5 1l-13 8l-26 6l-15 3l-34 1l-2 -2l-17 -3zM377 53v-2l3 -1l8 5l5 -2v5l-2 3v5h-5l-6 -4zM402 97l2 -1l5 -5l7 3l-2 7l-6 2h-15v-4zM315 52l1 -1l12 4 l4 5l-14 6l-3 -1v-13zM363 11l-2 -1l1 -5l6 -5l4 -1l3 18h-5zM316 9v-8h13l-6 10l-5 1zM384 9l-2 -1l3 -10l6 -2l2 8l-5 6zM389 24l2 -1l2 11l-3 3h-4l-2 -3zM509 207h2l2 5l-3 7l-4 1v-9zM131 522l1 2l-8 7h-3l3 -8l5 -3zM318 25v-2l7 -2l4 1v4l-4 3zM343 777v-2h7v7h-5z M298 -17h2l-1 7l-6 2v-5zM420 782h2l-1 8l-5 1l1 -8zM618 554l1 -1l4 11l-4 3zM567 724l2 -1l2 4l-2 5h-2l-2 -3zM289 42v2l-6 2l-1 -4l3 -2zM558 717v2h-7l2 -4h4zM284 3v-4h5v4h-5zM126 553v-4h4v4h-4z" glyph-name="Q" horiz-adv-x="675" unicode="Q"/>
<glyph d="M491 272h-2l4 -17l15 -25l2 -8l5 -6l4 -21l2 -2l3 -31l1 -13l-3 -32v-15l-6 -32l-2 -13l-2 -3l-4 -31l-5 -11l-1 -36l-5 -14l-2 -15l-3 -6l-5 -28v-35l5 -33l7 -10l13 -10l27 -12l11 -13l4 -32l-3 -31l-3 -2l-3 -7l-8 -9l-12 -3l-35 4l-14 4l-2 2h-8l-12 3l-16 8l-9 8 l-6 2l-5 5l-3 8l-22 24l-3 10h-2v4l-3 5l-7 33l-5 17l-2 14l3 31l6 30l1 26l2 3l4 30l6 32l6 31l3 13l4 34l5 28l2 34l-1 34l-2 15l-11 30l-8 14l-3 2v4l-12 14l-7 2l-2 4l-30 13l-14 7l-32 6l-10 -2l-11 -12l-12 -29l-6 -21l-3 -2v-7l-8 -21l-5 -6v-5h-2v-4h-3l-10 -29 l-4 -15l-5 -7l-10 -25l-11 -29l-5 -15v-5h-2v-4l-8 -12l-11 -28l-8 -24h-2l-4 -8l-3 -3l-11 -4l-35 -1l-9 -3l-11 3l-19 -1l-17 2l-6 5l-2 14l5 28l11 20l4 17l8 17l11 27l11 29l11 24l11 29l12 30l13 30l2 8l4 5l1 10l3 1v4l9 21l3 2l5 14l1 9h3v4h2l4 16l3 2l10 30l9 12 l6 17l2 2l9 30v2h2v5l4 2l5 18l3 2v7l13 29l11 30l9 23l5 4v5h2v4h3v5h2v4h2l9 24l2 6l4 1l2 6l3 2v4l6 4l8 12l16 18h4l10 11l28 16l19 9l2 3h15l6 2v2l9 1l11 -4l12 -12l6 -13l5 -33l-8 -12l-13 -13l-14 -10l-14 -20l-17 -22l-6 -15l-3 -3l-6 -15l-3 -3l-1 -7l-11 -29 l-12 -30l-11 -31l-7 -9l-3 -12l-3 -2l-1 -14l4 -9l5 -6l13 -5l9 -1l3 -3l15 -3v-2l30 -8l13 1l2 2l32 3l23 3l5 3h4l4 5l25 11h3l13 9l44 48l6 7l4 11l5 4l1 7l7 9l2 16l10 32l4 29v19l-2 6v18l-3 14l-7 14l-2 10l-8 14l-2 7l-5 5l-17 26l-10 12l-23 17l-13 7l-5 6h-4l-7 5 l-32 9l-7 4l-32 6l-30 1l-33 -2l-31 -2l-31 -8l-15 -4l-16 -6l-4 -6l-6 -1l-3 -3l-9 -2l-2 -3l-26 -16l-26 -21l-22 -25l-9 -7l-1 -5l-5 -3v-4l-4 -2l-7 -14l-5 -2v-5l-4 -2v-5l-5 -2v-4l-5 -7l-1 -7l-3 -2l-10 -30l-6 -15l-4 -31l1 -34l2 -15l10 -29l3 -23l-3 -8l-18 -19 l-7 -3l-24 -22l-18 -5l-8 3l-10 11l-2 7l-6 6l-5 17l-6 6l-4 32l-7 27v32l2 31v16l9 30v11l11 29l14 30l7 18l17 24l19 27l21 24l23 22l6 5l7 2l10 11l25 18l8 8h4v2l15 5l3 3l29 10l16 4l29 11l15 2l4 3l30 8l28 5l35 -1l34 -2h31l29 -8l32 -8l21 -5v-2h5v-3h5v-2h4v-2h5 v-2h4v-3l13 -4l7 -5l7 -2l6 -6l6 -1l2 -4l20 -16h4l5 -7l8 -3l10 -12l7 -5l17 -26l1 -6h3l3 -8l5 -4l4 -8l10 -12v-4h2v-5h3l9 -30l5 -32l3 -29l2 -35l-5 -30l-7 -32l-11 -30l-9 -31l-3 -4v-5l-6 -6l-2 -6l-7 -7l-4 -9l-19 -24l-23 -22l-25 -22l-26 -16l-8 -3l-4 -6l-28 -10 l-4 -3l-27 -6l-6 -5zM257 344l-14 -7l3 -7l3 -2h7l5 9v5zM251 425l1 -2l6 3v16l-7 -3l-2 -8zM204 271l-2 -2l-12 -3l3 -3l15 4l5 5l-3 2zM276 463l-2 -1v-4l7 -3h5l-3 7l-4 2zM333 557v-2l8 1l1 6l-7 4zM227 310v-2l3 -2h5l3 2v2l-3 2h-5zM279 410v-2h5l3 2l-2 6l-4 1z M564 361l2 -1l5 7l-9 2zM250 355l4 -2l1 8l1 -1v2h-5l-2 -3zM261 401v-7h4l3 4zM668 542l-2 -1v-4l2 -1l3 2v4l-3 1v-1zM136 97v-4h5v4h-5zM166 170v-5h4v5h-4zM600 729v-4h5v4h-5z" glyph-name="R" horiz-adv-x="658" unicode="R"/>
<glyph d="M106 -40l-2 1l-14 -7l-18 -28l-14 -24v-4l-5 -7l-5 -15l-3 -3l-5 -31v-7l-2 -3l1 -32l-1 -15l-3 -12l-12 -8l-24 -5l-7 2l-16 -1l-19 12l-4 13l-2 17l3 37l5 29l8 31l8 23h2l4 16l3 2l13 25l1 4l3 2l1 5l6 5l16 29l5 14l-3 15l-13 21v5h-2v4l-7 9l-4 11l-3 3l-1 11l-6 14 l-6 29l-4 31l-1 33v18l2 2l1 32l8 30l13 29l6 15l5 7l2 7l10 14l3 7l5 5l3 7l24 22l16 15l4 6l7 3l2 5l13 8l5 5h5v2h4v3h5v2l14 4l27 12l13 5l16 2h36l5 4l14 2l25 -4h17l21 -9l11 -5h5l2 -4h4l12 -16l-2 -16l-7 -20h-3l-4 -21h-2v-4l-11 -10l-9 -3h-15l-32 7l-17 1l-31 -5 l-29 -6l-28 -18l-5 -6l-7 -1l-17 -17l-1 -6l-4 -2l-5 -14l-15 -27l-4 -7l-6 -31l-4 -30l2 -24h2l3 -32l4 -15l14 -18l4 -1l8 2l12 9l23 22l23 21l25 21l22 22l9 13l24 20l23 22l24 23l13 15l7 2l22 22l21 22l24 22l18 15l2 4l19 13l11 14l6 14v16l-7 33v17l-2 2l-3 22l3 21 l-5 10v35l-3 10v7l-2 3l2 31l5 16l3 32l2 15l6 21l9 23l5 5l17 27l2 5l25 23l2 4l6 1l11 11l30 10l15 6l31 5l34 -2l16 -2l13 -5l8 -1l14 -6v-2h4l24 -17l7 -6l3 -9l5 -2l6 -13l3 -3v-4l4 -5l10 -31l5 -31l-4 -34l-3 -16l-11 -27l-5 -17l-5 -2v-4l-5 -3l-2 -8l-17 -27 l-17 -20v-4l-21 -23l-20 -22l-23 -24l-25 -24l-21 -23l-5 -11l-1 -7l3 -16v-15l3 -14l6 -16l2 -14l-2 -30l8 -32l2 -31l-1 -34l-2 -29l-3 -23l-5 -25l-8 -24l-3 -4l-10 -32l-9 -17l-6 -6l-1 -5h-2l-11 -17l-2 -6l-6 -6v-4l-6 -5l-9 -14l-26 -19l-4 -2l-2 -4h-5l-1 -3 l-26 -18l-5 -1l-4 -5l-28 -9l-13 -4l-2 -3l-15 -4l-10 -5l-17 -4l-31 -3l-30 -2l-34 2l-32 4l-30 9l-30 3l-2 3l-18 6v3h-5l-5 5l-6 2v2l-6 1l-12 9zM454 313l-2 -1l-24 -22l-25 -21l-24 -21l-46 -46l-21 -22l-24 -20l-22 -23l-10 -11l-7 -3l-23 -23l-25 -23l-18 -23v-6 l5 -7l22 -14l32 -7l18 -3l29 1l18 1l28 6l27 7h3l1 2h5v2h4l6 6l6 1l25 20l19 15l3 8l7 4l2 8l9 13l2 7l11 17l8 24v4l2 2l2 18h3l2 31l-2 15l2 31l-5 23l-3 24l-9 10l-8 -1zM602 745h-2l-12 -9l-22 -26l-1 -6l-8 -14v-4h-3l-5 -30l-4 -34l3 -31l1 -31l4 -7l13 -7l13 8 l22 23l20 25l10 12l9 18l6 3l6 18l2 1l5 16l2 25l2 2l1 6l-5 19l-12 14l-20 11h-16zM99 69l-2 -1v-7l12 -11l11 -5l4 1l2 4h5l2 2l-4 6l-5 1l-6 -3h-5l-5 14zM529 330h-2l-4 -4v-16l4 1l8 13l4 2l7 -4h4l2 2l-4 7zM531 412h-2v-4l-15 -5l1 -5l8 -6l2 4l7 2l5 5h4l-3 7z M474 382l1 -2l16 3v4l-5 5h-4l-5 7l-4 2l-4 -7zM514 516h-5l-4 -4v-12h6v8h6l2 -7l4 -1l-1 9zM91 14l-1 -3h5l3 2l1 8l-2 6l-9 -2l-5 2l1 -3l6 -5zM510 371l1 2l-4 6l-14 -1l3 -7l4 -2h8zM555 251h2l2 4l-1 12l-3 4l-3 1v-17zM549 366l1 1l-2 6l-7 3h-5v-5l5 -6zM534 507h2 v14h-9l2 -9zM88 90v-2l3 -2h8l-1 7l-3 2zM479 421l-4 -2l2 -6h8l1 6zM469 364h2v5l-7 7l-2 -4l3 -6zM247 -21l-1 -2l2 -2h4l3 3v4l-4 2zM493 596l2 -1v9h-9l4 -7zM94 43h3l-2 7l-5 2l-2 -3l1 -4zM520 123v-3l5 1l2 3l-2 5h-2zM482 26l2 -1l-1 5l-10 2l1 -4zM527 449l2 -1 l3 9h-5l-2 -3zM649 783v-2h5l2 7h-4zM160 22v-6l9 2l-6 4h-3zM59 153l2 1l2 2l-1 3l-7 -1l3 -6zM516 625h2l-1 4l-8 3l3 -6zM346 -27v-5h7l-4 5h-3zM550 133l-2 -4l6 -2l-1 4zM45 209l2 -1v2h2l-1 4l-3 1v-6zM499 441l-1 -2l2 -2l3 4l-3 3zM532 106v-4h4v4h-4z" glyph-name="S" horiz-adv-x="657" unicode="S"/>
<glyph d="M296 602l2 1l13 -8l11 -12l8 -14l4 -2v-5h2v-4h3l3 -9v-7l-8 -16l-18 -16l-14 -4l-29 -14l-10 -3l-30 -3l-18 -3l-17 5l-16 1l-6 3h-5l-11 5h-7l-7 4l-4 5h-5l-2 4h-5l-2 5h-4l-2 3l-12 6l-21 24l-9 13l-5 11l-10 13l-8 29l-4 30l-3 17l2 15l5 17l1 10l2 2v7l9 22l5 5v7 l7 12l23 23l21 20l28 15l28 14l13 5l34 4l31 4l16 1l32 -3l32 -1l16 -1l31 -7l33 -4l19 -3l10 -5l17 -5l64 -10h7l2 -3l23 -4l2 -3l14 -2l9 -4l18 -2l31 -8l16 -4h16l16 -3l3 -3l6 -2h9l7 -3l4 2l27 -4l31 -5l34 -3l33 -2l32 2l31 4l16 1l29 11l16 4h15l8 -2l23 -15l7 -3 l10 -11l1 -13h-2v-5h-3v-4h-2v-5h-2v-4h-3v-5h-2v-4l-22 -21h-5l-2 -4h-5v-3h-4v-2h-5v-2l-14 -2l-11 -5h-4v-2h-5v-2l-16 -5l-11 -1l-6 -3l-25 2l-32 -7l-3 2h-18l-2 3l-33 3h-31l-15 1l-6 2h-8l-5 3l-9 -1l-12 -9l-10 -14l-13 -30l-12 -28l-3 -14l-14 -30l-12 -28l-12 -30 l-11 -29l-8 -25l-5 -14l-5 -7l-2 -9l-6 -6l-3 -15l-10 -24l-5 -6l-9 -30l-4 -7l-1 -7l-8 -16l-4 -2v-4l-5 -5l-3 -14l-10 -27l-6 -6l-2 -14l-6 -17l-14 -28l-11 -25l-13 -21l-6 -6l-2 -6l-4 -3l-14 -23l-18 -22l-24 -23l-5 -5h-3l-21 -22l-6 -2l-3 -4l-5 -1v-3l-6 -1l-11 -7 l-21 -10l-13 -3l-2 -3l-15 -6l-31 -5l-33 -4l-33 1l-30 5l-9 2l-2 2l-24 4l-26 17l-12 4l-12 8l-23 22l-22 24l-5 7l-12 11l-11 28l-1 11l-5 15l-4 32l-4 22l2 32l9 30l5 8l9 25l18 24l2 7l5 4l2 7l11 12l20 14l10 10h4l12 10l27 10l2 3l16 4h7v3l35 3l15 -2l10 -6l6 -11 l3 -35l-2 -26h-2l-2 -7l-11 -12l-30 -7l-16 -4l-12 -7l-25 -23l-18 -25l-4 -8l-3 -28l-1 -18l2 -15l13 -29l1 -3h2v-5h2v-4l14 -17l12 -7l16 -6l15 -7l31 -7l12 1l2 2l31 4l16 4l27 14l17 12l4 6l7 3l22 24l21 24l14 29l16 27l8 25l5 7l3 10l3 3l9 23l3 7l3 2l10 31l11 31 l8 15l12 28l9 26l6 14v5l5 4l1 7l5 7l2 7l5 6l10 29l3 3l11 29l11 28l9 31l8 21l3 2l10 29l5 7l3 12l3 3l2 7l-6 13l-13 7l-18 4l-14 1l-22 8l-32 5l-11 1l-2 3l-31 4l-30 9l-23 3l-6 3l-33 3l-32 4l-32 2l-16 2l-26 -3l-4 -3l-28 -6l-4 -5l-7 -1l-9 -8l-7 -2l-16 -18l-1 -6 l-4 -5l-4 -15l-2 -19l2 -23l18 -23l25 -18l30 -4l16 1l31 10zM615 730l2 -14v-4l-6 -5l-1 -4h5l11 8l7 19l-4 -2h-8zM404 105h-6l-7 -14l3 -1l15 6v4zM684 692l-1 -1v-4h9v7zM614 680h3v9l-6 -2l1 -6zM629 612h2v7h-7l1 -4zM643 715l1 -1l5 7h-7zM466 218h2l-3 6l-4 1l1 -4z M495 320v-5h4v5h-4zM644 689v-2l5 1l2 3h-6z" glyph-name="T" horiz-adv-x="629" unicode="T"/>
<glyph d="M867 720l6 -6v-12l-7 -15l-2 -9h-2l-11 -28l-10 -22v-7l-11 -29l-10 -21l-1 -9l-6 -6l-5 -23l-4 -5l-11 -30l-3 -3l-10 -28l-11 -23l-3 -3l-5 -16l-4 -7l-1 -12l-14 -29l-2 -10l-4 -4l-11 -32l-4 -7l-4 -17l-4 -6l-5 -14l-15 -29l-6 -13l-6 -25l-3 -2l-9 -24l-6 -15 l-3 -13l-5 -7l-7 -29l-3 -31l7 -18l6 -1v-2l16 -2l31 10l14 9l12 14l4 1l42 48l10 12l9 7v5l5 2l1 7l6 4l1 6l10 10l7 14l5 6l1 7l17 25l9 10l9 4l15 -2l11 -10l7 -11l2 -11l-2 -8l-15 -28l-15 -24l-6 -13l-3 -3l-1 -6h-3l-3 -7l-7 -5l-1 -6l-11 -11l-1 -6l-4 -1l-8 -13 l-11 -11l-3 -8l-22 -21l-5 -7l-7 -3l-22 -25l-3 -2h-5l-17 -18l-6 -1l-2 -4l-15 -6l-3 -3l-28 -8l-14 -3h-17l-31 -3h-12l-2 3l-14 3l-27 19l-11 16l-7 31l-5 15l-11 8l-8 -1l-17 -14l-1 -6l-23 -21l-26 -20l-24 -20l-14 -10l-7 -3l-2 -4l-30 -13l-27 -7l-34 -4l-18 1l-2 2 h-7l-17 8l-25 14l-12 9l-5 10l-4 2v5h-2v4l-8 13l-6 32l-5 20l3 31l2 2l5 32l6 31l14 29l8 29l5 15l5 4l2 7l5 5l8 31l11 27l12 31l5 15l5 4l1 7l4 6l8 26l3 4l1 12l6 9l9 23l9 25l4 6l4 16l3 2l9 27l11 26v4l-15 10l-19 -4l-18 -5l-9 -6l-7 -1l-11 -9l-7 -1l-23 -10 l-29 -10l-27 -16l-28 -15l-24 -21l-3 -3h-4l-10 -12l-12 -9l-2 -9l-8 -14l-4 -15h-3l-1 -17l4 -30v-3h2l2 -11l6 -5l5 -11l26 -17l16 -6l7 -5l1 -6l6 -3l3 -13v-37l-5 -22l-12 -11l-7 -3l-15 1l-15 5l-6 5l-8 1v3l-24 3l-23 19l-23 18l-9 9v5l-11 11l-7 21l-6 6l-7 29l-1 18 l3 32l-2 31l12 30l3 12l3 2l3 10l6 4v4l3 2l2 6l22 23l24 24l22 15l13 7l5 6l15 10l6 1l27 15l29 15l8 3h5v3h4v2h5v2h4v2h5v3h4v2l30 6l15 6l3 3l7 1l5 4l33 8l3 3l14 4l30 13l28 11l30 13l13 9l23 22l9 8l2 7l6 5l5 1v3l7 1l7 5l7 1l28 17l14 3l16 -2l2 -4l6 -2l5 -6 l12 -31v-7l2 -3l-6 -17l-22 -21l-12 -11l-9 -14l-9 -9v-4l-12 -14l-1 -6l-14 -26v-4h-3l-7 -26l-3 -3l-2 -9l-3 -3v-5l-5 -6l-9 -28l-8 -22l-5 -6l-2 -9l-3 -3l-2 -14l-3 -2l-3 -12l-6 -6l-1 -7l-9 -14l-10 -29l-12 -28l-12 -31l-6 -23l-13 -24l-11 -29l-4 -8l-1 -9l-7 -13 l-4 -16l-8 -19l-6 -6v-5l-2 -1l-2 -10h-3l-5 -31l-7 -29l-1 -17l2 -16l8 -13l6 -6l11 -1l2 -2l15 2l31 12l15 7l24 18l24 22l44 46l8 13l11 11l8 12l3 2l4 8l6 5l3 8l8 8l2 7l5 2v4l11 16l2 7l7 7l11 25h2l10 22l9 26l7 15l2 9h2v5h2v4h3l9 32l12 29l7 16l1 7l7 9l3 15 l10 30h3v5h2v5h2v4h3v5h2v4l8 13l1 7h2l4 15l13 30l8 26h2v4h3v5h2v4h2v5h2v4h3v6l5 11l6 22l7 12l11 8l33 3l32 2l3 -3l17 -1zM569 144l-2 -1l1 -8l4 -8l23 3v11l-6 4zM475 617h-3l-6 -10l-16 -2l-5 -6v-7l4 1l10 8l1 -11l3 -1l4 8l14 17zM614 185l-1 -1l1 -4l6 -7l-3 -7 v-9h4v7l5 11l-2 3v5l-2 3zM445 626v-5l2 -3l5 -2l5 1l5 11l-1 3l-4 1l-1 -4zM393 447h-9l-4 -7l4 -10l-1 -4l3 -2zM274 86l-3 -2v-6l8 -3l7 3v7l-4 2zM313 21l1 -2l10 6l1 4l-2 6l-8 -2l-3 -7zM287 19h2l7 3l2 3l-1 4l-13 1l1 -9zM414 643v-2l4 1l3 6l7 2l4 5l-4 2l-7 -1z M466 658l2 -1l2 4l-1 8l-8 4v-9zM603 198h-2l1 -4l9 -5l2 2l-3 7l-6 2zM538 156l-2 -1l1 -4l12 -3l-3 7l-4 2zM606 71h-2v-5l2 -2h5v2h2v5h-2v2h-5v-2zM292 192l-1 -1l3 -7l4 1l5 6l-3 2zM400 482l-2 -4l3 -1l13 4l-7 4zM298 35h5l-1 8l-2 3l-3 -1l-1 -4zM313 306l-1 -2 l9 -7l2 5h-2l-7 7zM409 625v-4l5 1l3 3v3l-3 2zM408 587l-1 2l-2 1l-4 -2l-1 -3l5 -1zM598 161l-1 -2l4 -2l3 4l-5 3zM581 80v-5h5v5h-5zM595 169l2 -1l2 2l-2 3l-4 -1l-1 -2zM273 32v-4h5v4h-5zM241 73v-2l5 1l2 3h-6z" glyph-name="U" horiz-adv-x="839" unicode="U"/>
<glyph d="M574 133l-1 -2l-24 -21l-25 -21l-19 -15l-7 -2l-2 -4l-25 -16l-11 -12l-6 -1l-13 -11l-13 -8l-4 -5l-7 -2l-2 -4l-7 -2l-7 -5l-10 -3l-3 -3l-10 -3l-4 -5l-13 -3l-34 -1l-32 2l-16 -4l-7 2v2l-11 8l-4 8l1 22l3 3l5 31l6 31l2 8l3 2l6 32l7 29l7 30l3 22l1 7l3 2v10l2 2 l6 31l6 14l2 16l2 2v7l2 2v9l2 3l6 32l1 13h2v8l3 1l5 30l7 32l7 31l5 31l3 12l2 2l2 16l10 30l3 12l1 16l-2 7l-5 7l-15 1l-16 -3l-31 -13l-27 -11l-26 -10l-16 -6l-7 -5l-11 -2l-3 -3l-14 -5l-22 -15l-15 -6l-25 -18l-22 -23l-3 -7l-11 -13l-6 -14l-2 -34l5 -31l12 -19 l11 -12l12 -7l15 -5l13 -8l5 -7l2 -31v-15l-6 -25l-7 -10l-4 -2l-23 6h-35l-6 6l-12 3l-4 5l-7 2l-25 20l-9 9l-2 7l-9 7l-14 27l-3 4l-1 8l-4 1l-3 14l-5 5l-2 16l2 15l-2 16l3 31l1 15l5 20l5 5l5 14l5 5l4 18l7 5l2 6l12 10l20 25l22 16l15 9l5 5l7 2l4 5l7 2l14 9l27 14 l6 5l30 8l23 14l30 10l16 5l12 6l15 4l30 13l30 9l30 10l29 14l12 9l18 22l4 2l5 9h4l21 16h4l2 4l14 8l26 11l17 6l18 1l13 -7l7 -7l7 -14l3 -15l-2 -16l-9 -14l-23 -21l-24 -23l-1 -6h-3v-5l-3 -2l-1 -7h-2v-4l-11 -28l-8 -29l-8 -33l-6 -30l-1 -7l-3 -5l-2 -18l-2 -2v-9 l-2 -2v-9l-3 -2l-2 -21l-2 -2l-8 -32l-4 -11l-1 -12l-3 -9v-9l-2 -2l-5 -20l-2 -30l-10 -22l-5 -16l-2 -31l-8 -31l-7 -32l-4 -15v-11l-3 -2v-12l-2 -2l-2 -15l1 -8l6 -7l15 4l21 19l7 2l1 4l13 8l21 24l46 46l12 11l2 7l17 16l7 12l5 4v4l7 5l2 7l4 1l2 6l3 2v4l7 5v4 l20 24l3 3l1 7l6 5v4l3 2l2 6l3 3l1 5l4 2l2 9l16 29l15 25l9 21l5 9l5 16l3 2l7 13l2 8l3 3l2 6l1 16l9 30l9 22l3 2l8 30l7 32l5 31l4 29l1 18l8 30l1 16l18 22l8 4l13 3l16 -2l18 2l22 7l13 -8l3 -5l2 -17l2 -2l-4 -33l-2 -31l-6 -31l-6 -32l-7 -27v-11h-2l-2 -20l-3 -3 l-4 -22l-6 -15l-3 -15l-8 -24l-12 -29l-13 -30l-10 -30l-8 -15l-3 -3l-1 -6l-13 -17l-7 -15l-6 -20l-3 -1l-15 -27l-17 -28l-8 -12l-5 -12l-6 -5l-6 -12l-24 -24l-3 -7l-4 -2l-8 -12l-21 -24l-20 -24l-22 -22l-24 -23zM361 106l-1 2l-6 14l-9 -2l-5 -5l3 -11l-6 -13l1 -3h5 l6 8l5 3l6 -5l5 -1l2 2v5zM358 163v-3l18 10v2h-2l-5 6h-4zM356 179l2 -1l6 8l1 4l-6 3l-8 1zM329 95h-9l-1 -4l-6 -7l2 -3l9 3l3 3zM379 56l2 2l2 7h-2l-5 5h-2l-4 -9l3 -6zM380 324l1 -3l12 -5l4 1l-4 1l-8 13l-4 1l-2 -3zM435 591v-3l17 2l1 3l-6 3l-8 1l-3 -2zM349 138 l-2 4l-14 9l-2 -2l10 -12l6 -1zM364 84l-1 -1v-4l2 -2h9v5l-2 3l-4 1zM417 362h2l2 3v8h-6l-1 -4zM461 553l1 1l-11 3l1 -7l8 1zM804 717l-2 -4l7 -5l1 4zM345 77l-1 2l-5 -1l-1 -3l2 -2l4 1zM369 43h5v4l-3 2l-3 -2zM463 623l-1 2l-7 -3l1 -3l7 2v2zM425 545l-1 -2l7 -2 l-1 4l-4 3zM426 482v-5h5v5h-5zM469 704v-5h5v5h-5zM438 652h4l-3 6l-4 1zM553 190v-5l4 -2v6zM442 550v2l-7 2l1 -4h6z" glyph-name="V" horiz-adv-x="788" unicode="V"/>
<glyph d="M1191 730l-2 -2l-4 -2l-32 2l-16 -5l-9 -1l-14 -8l-21 -22l-3 -2l-1 -6l-5 -4l-14 -30l-5 -6l-4 -16l-5 -6l-10 -30l-1 -6l-10 -15v-4l-8 -14l-2 -11l-3 -3l-7 -20l-12 -31l-5 -15l-4 -6v-3l-3 -2l-2 -7l-4 -5l-9 -28h-2v-5h-3v-4l-4 -7v-5l-3 -1l-2 -12l-5 -7l-1 -11 l-3 -3l-3 -15l-8 -21h-2v-4h-3l-1 -6l-14 -31l-13 -30l-6 -8v-5h-2v-4h-2v-5l-2 -1l-6 -24l-13 -28l-15 -26l-6 -6l-2 -6l-3 -3l-3 -10l-3 -2l-8 -14l-6 -6l-1 -5l-5 -4l-2 -7l-9 -7l-2 -7l-22 -23l-8 -11l-12 -11l-4 -1l-24 -22l-11 -10l-18 -11l-5 -1l-3 -5h-4v-2l-6 -1 l-3 -3l-27 -9l-33 -5l-13 -4l-15 -2l-31 5l-26 4l-26 18l-12 11l-12 15l-1 6l-8 11l-7 5l-11 -1l-23 -20l-13 -11l-5 -1l-6 -6l-12 -3l-6 -6l-7 -2l-6 -5l-15 -5l-6 -4l-30 -8l-30 -3l-34 3l-29 10l-26 19l-2 6l-9 13l-10 24l-5 17l-3 30l2 35l5 30l8 31l11 28l12 29l2 12 l3 3l22 60l12 31l16 28l7 20v7l8 23l6 9l9 29h2v5h3l2 11l2 2l1 8l6 10l2 8l14 27l10 32l8 17l-1 12l-7 6l-5 1l-62 -20l-26 -11l-32 -10l-10 -6l-7 -1v-2l-4 -1l-14 -11l-16 -10l-7 -2l-26 -19l-12 -10l-8 -12l-14 -14l-1 -5h-2v-5h-2l-7 -30l-1 -26l1 -14l16 -26l8 -9 l6 -1l1 -4l10 -3l13 -7l12 -11l5 -11l4 -34l-1 -18l-7 -20l-7 -4l-3 -4l-16 1l-28 9l-29 8l-13 14l-6 1l-22 21l-18 14v5l-3 2l-13 28l-8 15v7l-3 6l3 14l-1 9l-5 15l-1 30l7 32l6 9l11 28l5 8l2 7l6 4l3 8l12 12l7 10l12 12l26 18l12 12l6 1v2h5v3h4v2h5v2h4v3l6 1l3 3l7 2 l5 5l11 4v3h5l2 3l30 11l14 4l29 13l22 9l30 11l29 12l8 4l30 7l3 3l14 4l15 8l31 11l19 13l2 7l23 22l14 15l7 3l10 8l7 1l5 5l24 7l18 4l15 -2l12 -11l7 -13l7 -22l1 -8l-6 -15l-25 -20l-14 -18l-7 -5l-2 -6l-5 -4v-5l-5 -5l-4 -11l-9 -12l-12 -31l-14 -29l-8 -20l-11 -28 l-12 -31l-12 -29l-10 -29l-7 -13l-5 -18h-2v-4l-5 -10l-2 -11h-2v-4h-3v-5h-2v-4h-2l-1 -6l-9 -15l-1 -6h-3v-5h-2v-4h-2l-1 -6l-5 -10l-3 -18l-12 -29l-12 -30l-10 -30l-12 -28l-10 -19l-5 -21l-11 -30l-3 -17l1 -29l8 -13l13 -11l10 -2l22 5v2h5v3h4l2 3l6 2l25 20l21 24 l18 16l3 7l7 5v4l4 2v5l6 4l1 7l9 12l7 15l5 5v4l5 5l1 7l3 2l5 14l4 4l1 7l5 9l5 5l8 28l5 15l5 6l5 16l2 2l1 7l9 14l5 23l9 20l5 7l7 22l5 5l9 30l3 11l4 4v7l5 8l1 6l12 15v5h2v4h2l10 29l9 29l12 30l5 10l1 7l8 14l8 25l3 3l8 21l1 7l11 22l17 16h46l14 3h26l2 -3 l14 -9l2 -7l-11 -31l-1 -7l-15 -28l-10 -29l-11 -27l-10 -30l-8 -15l-4 -14l-7 -14l-4 -13l-5 -4l-8 -25l-12 -29l-11 -28l-13 -29l-11 -31l-12 -29l-10 -29l-5 -6l-8 -21l-6 -6l-1 -7l-5 -5l-7 -29l-6 -14l-3 -2l-4 -7v-4l-5 -7l-7 -31l-8 -28l-5 -16l-2 -16l3 -16l8 -13 l9 -7l13 -2l17 3l3 3h4l15 8l13 11l4 1l12 12l11 8l5 6v4l5 2l19 27l9 13l2 7l4 1l16 27l16 26l6 17l3 2l4 7l1 7l7 15l2 9l4 5l9 28v2h2v4h2v5h3v4h2v5h2l11 31l13 28l10 29v3h2v4l8 13l4 14h2v5h2v4h3v5h2v4h2v5h2l4 14l10 29l14 29v3l5 7l8 27l11 29l9 20l7 21l4 3l2 10 l3 3l1 7l3 3l5 17l5 4v5h2v4h2l1 6l16 26l22 23l17 19l8 3v3h4v2h5v2h4v2h5v3h4v2h5v2l25 7l5 3l16 4l31 1l34 -1l16 -1l9 -4l4 -4v-5h3l2 -7l-5 -15l-3 -31l-3 -12zM538 196l-1 -1l2 -9l-9 -12l-5 -4l4 -1l4 -5l1 -9l-2 -7l18 -7l6 5l3 11l-2 4h-5l-7 -3l-4 1l-1 6l3 8 l9 11l3 7l-12 5h-5zM464 644h-7l-9 -8l-4 -1l1 -5l6 -4l2 -7h4l1 3l-3 10l3 2l10 1l3 2l-1 3zM447 671h-5l4 -14l8 2l7 9l1 7l-9 5zM485 109v-4l7 -4h8l4 2l1 4l-2 4l-7 3h-5zM292 251l-2 -1l-3 -13l1 -5h6l3 6v9l6 3l-4 7zM435 583h2l3 7l-6 10l-8 1l4 -15zM694 585l1 -2h4 l3 3v7l-3 3h-4zM494 159l2 -2l7 3l2 6l-2 2l-7 -1l-2 -3v-5zM349 340l4 -4l3 -7h4l-1 8l-4 5l-4 1zM534 200h5l2 7l-2 4h-5l-2 -7zM500 709h-6l-1 -4l-5 -5l-1 -4l7 3l5 6zM996 614h3l2 6l-5 6h-2l-2 -8zM575 254v-2l7 -2l4 2v4l-4 3zM537 58l2 2v4l-3 2h-6v-5l2 -3h5z M498 147l-2 -4l6 -4h3l2 5l-3 3h-6zM699 601h10l-2 5l-10 2zM410 577l2 1v4l-3 3h-6l1 -5l3 -3h3zM258 80l2 2v4l-3 3l-8 -2zM267 105v-9h7l-1 7zM571 184h2v4l-5 5h-4l3 -7zM403 653v-2l6 -4l3 1l-1 5l-3 2zM654 435v-4h8l2 2l-1 2h-9zM625 365v-7h4l3 5zM369 397h2l2 7 l-6 2zM503 73v-7h4l2 5zM541 95v-2h5l1 4l-4 3zM722 605l-2 -4l5 -3l2 5zM367 432l2 -1l5 7h-4l-4 -5zM390 448l-1 -1l5 -3l2 5l-4 2zM544 81l-1 -1l5 -2l2 4l-4 2zM824 213v-4l5 -2l-1 6h-4z" glyph-name="W" horiz-adv-x="981" unicode="W"/>
<glyph d="M1085 820l2 -2l-2 -15l-17 -29l-8 -14l-12 -9l-8 -2l-31 5l-17 1l-15 -3l-16 -6l-14 -8l-16 -15v-4l-3 -1l-20 -25l-18 -25l-8 -9l-1 -6l-17 -17l-1 -5l-6 -5l-3 -7l-6 -5l-1 -6l-14 -20l-6 -5l-8 -15l-15 -17v-4l-16 -18l-2 -9l-6 -6l-1 -6l-5 -2v-5l-22 -24v-5l-16 -16 l-1 -4l-3 -2l-2 -7l-5 -5v-4h-3v-5h-2l-8 -13l-11 -12l-8 -13l-5 -3v-4l-11 -11l-11 -14l-1 -7l-6 -5l-18 -23l-2 -7l-8 -11l-1 -5l-16 -24h-2l-4 -7l-4 -26v-37l2 -31l1 -14l2 -2l1 -31l1 -32l4 -28l2 -34l2 -31l-1 -20l5 -30l-1 -35l1 -29l2 -15l14 -30l8 -12l12 -13h4 l5 -3l35 -4l8 -1l12 -14l2 -15l9 -30l2 -24l-3 -7l-12 -7l-15 -4l-33 -3l-7 -1l-15 4l-9 -1l-6 4l-9 -1l-2 3l-15 3l-6 3l-4 5l-6 1l-21 22l-6 1l-9 9v4l-6 6l-2 7l-4 2l-12 26l-5 15l-3 25l-8 26l-3 32l-2 64l-4 31l-3 32l-1 33l-5 31l-6 4h-9l-6 -3l-1 -6l-9 -6v-5l-7 -5 v-4l-5 -5l-12 -18l-2 -7l-6 -7v-3l-23 -24l-18 -24v-2l-7 -5l-1 -6l-11 -10l-9 -12l-12 -10l-10 -12l-12 -8l-24 -21h-4l-5 -7h-4v-2l-7 -3l-12 -9l-8 -3l-2 -3l-28 -13l-31 -10l-29 -8l-33 -4l-16 1l-7 4l-32 1h-4l-4 4l-31 11l-25 18l-25 20l-19 16l-12 29v4l-11 29l-2 29 v34l8 31l8 21l6 6l1 7l5 10l21 25l9 12l8 3l5 6l28 15l16 8l15 4l1 3l30 6l18 1l15 -5l9 -10l2 -33l-3 -33l-5 -3v-4l-18 -11l-16 -3l-3 -3l-12 -4l-10 -6l-2 -5l-6 -1l-9 -13l-8 -8l-1 -7l-7 -11l-3 -30l7 -29l3 -2l1 -5l16 -16l20 -8l29 -4l33 2l20 8v2h5v2h4l27 17l5 6 l13 8l23 20l24 22l20 26l23 23l3 7l10 11l16 25l5 6l1 4l6 5l2 6l6 4v5l17 18l15 27l11 12l17 26l21 26l5 4v5h2v4h2v5h2l8 15l4 25v38l-6 64l-2 31l-2 62l-2 33l-3 32l-1 31l-6 22l-13 13l-3 1l-20 -6l-1 -3l-16 -10l-28 -8l-30 -10l-21 -6l-3 -3l-20 -6l-2 -3l-11 -4 l-3 -5h-4l-3 -3l-6 -1l-5 -6l-7 -1l-2 -5h-7l-24 -14l-5 -6l-6 -1l-19 -17l-2 -5l-7 -3l-11 -13l-12 -29l-4 -16l2 -31l5 -15l8 -13l12 -12l12 -9l16 -8h3l12 -11l4 -11v-64l-9 -11l-13 -5l-18 2l-24 8l-8 1v3h-5v2h-4v2l-10 3l-15 13l-6 1l-25 22l-13 14l-1 6l-4 1l-2 3 l-3 16l-3 3l-11 30l-4 16l2 30l-1 31l6 32l14 25l3 8h2l7 14l20 26l24 22l25 19l11 7h4l9 9l7 2l5 5l14 5l3 3l9 2l13 9l15 5l28 13l15 7l11 3l5 5l33 7l29 13l30 10l30 11l31 10l26 19l19 24l24 22l9 7l28 11l15 7l16 4l15 1l16 -3l7 -4l9 -16l-2 -17l3 -24l-2 -7l-4 -5 l-14 -10l-6 -1l-2 -5l-7 -2l-21 -25l-5 -6l-2 -6l-10 -13l-6 -30l-1 -17l5 -31v-32l4 -30l-2 -31l5 -30l3 -33l7 -5l8 1l11 11l18 26l14 18l2 7l4 2l8 14l7 8l10 19l14 17l6 7l2 6l8 6l2 7l3 3l1 6l12 13l2 7l7 5l1 4l6 5l16 28l9 10l2 7l20 23l10 13l3 7l6 6l18 25l20 26 l10 12l26 19l14 8l6 6l28 9l28 3h34l8 1l2 -2h16l31 -11l27 -8zM500 171v-2l8 -3l5 -4l3 -7v-7l4 -1l5 -5l7 -1v28l-3 2l-13 -2l-8 8l-5 1zM516 635v-2l6 -4l1 -9l2 -3l18 -2l-1 4l-6 3l-2 3l1 9l2 3l-10 5l-4 -1zM573 325v-2l6 -5v-8l-9 -1l-2 -2l3 -2l-4 -8l1 -2l8 3l9 12 l6 15l-3 2h-10zM546 142v-3l4 -7l5 -4v-5h6v4l-4 5l2 8l-4 7l-5 1zM552 263v-2l5 1l2 4h2l-2 9l-11 7l-2 -8zM522 466l-1 -1l2 -7l4 -2h8l3 3l1 6l-8 3zM482 154l-2 -1v-5l5 -5l4 -1l7 2l-3 7l-7 4zM518 685v-2l5 -3l7 3l2 9l-9 -1zM620 389l-2 -1v-5l7 -6l4 7v4l-4 2z M506 675l-1 -1v-5l4 -2l8 1l1 6l-4 2zM587 401l2 -1l6 8v3l-6 4l-5 -10zM550 736l2 -1l7 8v3l-3 2l-7 -4l-1 -3zM608 345l1 2l-6 4l-8 1l3 -7l7 -2zM550 365l7 5l-1 4l-8 1zM836 694h2v5l-2 3l-5 1v-7zM539 409h2v4l-3 2h-6v-4zM514 266v-2h7v4l-5 5zM546 121h2v7h-7l1 -4z M543 206v-3l8 1l1 3l-7 2zM489 185l2 -1l2 4l-2 5l-3 -1l-1 -4zM561 69v-7h4v7h-4zM595 379v-2h5l-1 4h-6v-2h2zM532 327v-4h5v4h-5zM546 644v-4h4v4h-4zM530 490v-4h4v4h-4zM553 363h2l-4 1z" glyph-name="X" horiz-adv-x="748" unicode="X"/>
<glyph d="M624 71l2 -2l8 -1l7 2l28 18l12 8l2 4l13 8l19 24l13 9l22 25l10 12v3l23 23l1 6l12 17l7 13l10 12l14 21l6 2h10l14 -6l13 -12l3 -7l-2 -15l-14 -27l-16 -25l-19 -25l-21 -24l-20 -24l-12 -11l-18 -24l-7 -2l-11 -12l-5 -1v-2l-9 -7l-14 -7l-23 -21l-27 -18l-5 -5l-4 -1 l-18 -15l-7 -2l-5 -5l-29 -13l-6 -3l-11 -13l-7 -13l-10 -27l-13 -33l-12 -29l-10 -26l-11 -21l-5 -4l-1 -6l-5 -2l-2 -3l-1 -8l-5 -2v-4l-3 -2l-1 -5l-7 -5v-4l-10 -8l-7 -11l-19 -15h-7l-4 -6l-7 -3l-14 -14l-7 -2l-4 -5l-21 -4l-35 -1l-32 1l-14 4l-13 8l-5 6l-16 11 l-6 1l-17 17l-8 26l-3 18l1 34l4 15l6 9l6 16l3 2l2 7l33 33l6 1l12 11l11 7h4l27 16l30 13l25 9l9 3v2l11 3l3 3l6 1v2h5v3h4v2h5v2h4v2l8 4l8 8v4l5 3v4h2l1 6l5 6l9 21v13l-4 3l-8 -1l-21 -18l-6 -1l-20 -17l-2 -4l-13 -6l-3 -3l-6 -1v-2l-7 -3l-2 -4h-5v-2h-4l-5 -4 l-33 -10l-28 -7h-32l-25 9l-7 5h-3l-13 12l-5 7l-5 3v5l-7 4l-9 20l-5 33l-4 15l2 32l4 33l6 26l10 31l11 31l9 31l5 9v4l5 5l12 29l12 30l11 29l13 29l6 14l2 12l5 4v7l9 25l11 20l10 28l3 8l3 3v4l6 12l10 29l1 10l-6 6l-7 2l-8 -1l-12 -6l-11 -3l-3 -3l-20 -6l-13 -8 l-30 -8l-29 -14l-14 -5v-3h-4l-28 -16l-13 -8l-5 -6l-6 -1l-23 -20l-19 -25l-7 -13l-5 -30l-1 -14l2 -17l4 -13l20 -28l28 -13l19 -15l2 -15l-2 -33l-2 -25l-6 -8l-6 -1v-2l-15 -1l-19 3l-2 3l-13 2l-31 14l-13 7l-24 21l-19 25l-2 3l-5 2l-12 29l-7 28l-1 34l-2 14l6 33 l2 15l15 28l13 27l21 22l23 23l25 20l25 16l18 11l29 12l18 8l27 15l2 3l16 2l4 3l12 1l16 7h4l9 5l18 4l7 4l7 1l3 3l27 11l15 5l9 1l13 7l32 12l3 3l14 5l23 23l24 20l8 8l8 1l11 10l7 2v2h4l10 6l2 3l23 8h10l3 -3h4l16 -19l8 -34l1 -7l-6 -13l-24 -22l-7 -10l-6 -3 l-13 -15v-4l-3 -2l-6 -12h-2l-9 -18l-4 -7l-10 -31l-11 -27l-12 -30l-9 -20l-8 -14l-11 -29l-10 -30l-13 -29l-11 -29l-4 -7l-1 -8l-8 -13l-9 -29l-12 -31l-1 -6l-7 -9v-4l-5 -7l-12 -28l-12 -31l-11 -29l-9 -31l-6 -32l-1 -16l6 -24l16 -15l13 2l34 14l14 6l24 16l7 4l3 6 l6 1l24 21l23 24l19 25l21 24l18 22l2 7l9 9l7 14l7 9l2 7l5 4l2 7l5 4l2 7l3 3l10 29l6 15l3 3l10 26l4 15l3 4l5 15l6 11l2 11l15 28l1 6l2 2l3 15l11 28l12 30l10 22l3 2l4 13l5 8l7 21l2 13l8 12l9 29l4 13l4 4l6 14l3 2l7 22l15 12l31 3l16 2l13 -2h17l16 -4l8 -12 l1 -7l-9 -30l-6 -18l-13 -25l-5 -15l-3 -3l-1 -7l-3 -3l-1 -6h-2l-10 -29l-8 -13l-9 -23l-2 -16l-3 -2l-11 -29l-5 -10l-1 -6l-7 -11l-5 -21l-5 -5l-6 -22l-3 -3l-6 -18l-4 -1l-2 -3v-7l-13 -30l-10 -25l-11 -29l-11 -30l-9 -25l-13 -28l-4 -14l-5 -5l-12 -28v-4l-5 -7 l-9 -29l-11 -27l-7 -14l-1 -8zM404 -119h-6l-5 -5l-14 -5l-6 -5l-25 -11l-7 -2l-2 -4l-6 -1l-20 -21v-4l-13 -16l2 -17l9 -13l10 -5l17 2l14 8l23 20l11 11v4l6 4l3 8h3v4h2v5h2v4l3 1l9 24l-3 8zM495 -77v-2l-18 -11l-14 7l-3 -1l6 -20l8 2l8 9l11 1l5 5l4 -1l4 -13h5l1 7 l-8 13l3 2l1 8l-3 8l-8 5l-3 -7zM543 48h-3l-6 -10l-4 -1l-6 2l2 -13l12 -12l5 3l2 -1v5l-5 9l1 3l10 7l1 4l-2 3l-5 2zM549 1h-2l-2 -14h-5v9l-9 -1l-7 -3l-11 2l2 -6l4 -1l8 2l15 -9l4 1l11 11l1 9l-6 2zM545 120v-2l4 -5l11 2l7 5v7l-3 -2l-17 -1zM588 212v-8l4 -12l5 -1 v22l-7 3zM496 -36l-1 -2l11 -5l3 3l-4 2l-1 7l2 9l-4 5l-6 -15v-4zM587 153l1 -1l8 1l3 2v5l-4 5h-8v-12zM270 78h5l2 4l-1 8l-7 3l-3 -3l-1 -7zM408 607l1 -2l-5 -1l-2 -3l3 -2l7 3l5 6l1 4h-9l-2 -4zM545 71l2 -2l7 1l2 3v5l-2 2l-7 -1l-2 -3v-5zM624 186h2l2 7l-6 5h-5 l2 -9zM294 5l-1 -2l10 -7l2 2l-1 7l-7 3zM753 558v-3h5l6 9l-6 2zM753 521v-2l4 1l5 17l-4 2l-3 -2l3 -3v-4zM568 28h2l2 3v5l-5 3l-2 -3v-5zM289 275v-9h5l2 3l-1 4zM563 22l-5 -10l7 3l2 3v5zM259 70l3 -1v-1l4 7l-4 3l-5 -5zM584 112h2v6l-7 3l1 -8zM320 261h3l1 4l-6 5 l-2 -3l1 -4zM409 569v-2h5l2 3l-1 4l-4 2zM531 68v-2l7 3v6h-4zM295 219l-2 -1l1 -4l9 -3l-4 7zM340 1h3l-1 7l-3 2l-2 -7zM455 -147l4 -2v5l-2 3l-5 1zM447 644v-7h5l2 4zM529 83l2 -1l2 9h-6zM336 376v-2h5l2 4l-4 3zM554 162l2 -1l-1 8l-3 1l-2 -3zM574 3h-2v-5l2 -1l3 3 v4l-3 1v-2zM564 138l-1 -2l4 -2l3 5l-5 2zM647 311v-2h4l2 6h-4zM656 324l-3 -6h5l2 4zM490 -126v-5h5v5h-5zM547 93l-2 -4l4 -2l3 4zM289 55v-5h4v5h-4zM620 297v-4h4v4h-4z" glyph-name="Y" horiz-adv-x="810" unicode="Y"/>
<glyph d="M684 525l-1 -2l-4 -6h-5l-1 -4l-5 -3v-5l-7 -4l-6 -14l-7 -8l-1 -5h-2l-4 -8l-5 -4l-3 -7l-24 -21l-6 -6l-1 -6l-5 -3l-1 -7l-18 -28l-10 -12l-1 -6l-23 -22l-5 -5v-4l-4 -1l-2 -6l-3 -3l-2 -6l-11 -13l-6 -4l-1 -6l-18 -20l-1 -6l-5 -2l-1 -6l-22 -24l-19 -26l-3 -4v-3 l-18 -23l-1 -4l-9 -12l-15 -14l-2 -7l-22 -23l-20 -24l-1 -5l-9 -11l1 -8l9 -13l24 -22l21 -24l24 -20l10 -7l22 -23l2 -3l6 -1l10 -13l24 -21l26 -19l23 -20l15 -12l6 -1l6 -6h4l3 -3l28 -14l30 -5l7 -1l2 -2l15 1l16 5l28 12l15 6l12 10l6 1l8 10h4l6 6l3 6l18 7l9 -1 l13 -8l21 -26l10 -8l1 -6l4 -5l4 -17l-1 -9l-7 -10l-1 -6l-14 -9l-12 -11h-4l-25 -19l-7 -1v-3h-4v-2h-5v-2h-4v-2h-5v-3h-4v-2h-5v-2h-4v-2h-5v-3l-11 -2l-2 -2l-31 -3l-16 -2l-6 -3l-15 -3l-33 3l-29 8l-29 13l-7 2l-6 5l-12 1l-9 7l-7 2l-15 13l-7 2l-3 5h-4l-24 20l-3 7 l-10 5l-2 4l-14 7l-23 23l-12 11l-6 1l-2 3l-6 3l-24 25l-23 21l-46 46l-19 16l-14 5l-16 -6l-23 -15l-12 -10l-7 -2l-7 -6l-5 -1l-3 -3l-28 -11l-31 -7l-16 -5l-32 -2l-31 5l-16 1l-2 3l-23 13l-11 3l-15 7l-23 21l-21 23l-7 12v4l-3 5l-2 9l-2 2l2 16l-4 32l2 20h2l4 22 l3 3v7l5 2v7l11 18l5 2l1 6l24 22l9 4l2 5l28 13l10 2v3l16 1l13 3l17 1l18 -3l8 3l5 -3l31 -4l26 -10l7 -4l7 -1l13 -10h5v-3l27 -17l14 -10l13 -4l8 1l13 9l18 25l23 24l3 7l6 6l1 5l4 2l11 12l17 26l9 14l10 6l3 6l11 12l15 28l21 26l21 24l5 9l5 4l2 7l10 11l9 14l7 6 l3 8l11 12l4 7l11 12l8 13l6 6l2 7l7 5l8 12l7 5l2 7l9 9l2 7l10 12l15 22l21 24l18 21l2 7l6 6l3 8l-1 7l-7 9l-33 5l-30 8l-32 5l-6 1v2l-20 5l-2 3l-32 2l-19 5l-32 9l-31 2l-33 4l-31 -2l-6 -2h-9v-2l-15 -4l-18 -11l-7 -1l-20 -21v-4l-7 -11l-6 -27l-1 -18l2 -17l4 -7 l3 -2l2 -7l11 -11l7 -2l4 -6l12 -3l3 -4l15 -3l2 -2l16 -1l16 2l25 15l16 6l14 -1l12 -10l5 -11l5 -3v-4l9 -12l5 -14v-10l-7 -15l-13 -11l-14 -7l-2 -3l-24 -9l-31 -5l-29 -3h-16l-8 4l-30 5l-29 13l-4 1l-4 5l-7 2l-6 5l-4 1l-9 11l-7 5l-1 5l-7 5v4l-10 12l-14 28l-9 33 l-2 29l4 34l8 30l4 16l14 27l8 11l25 22l12 11l12 6l7 6l30 11l24 9l3 3l31 4l31 3l33 -1l31 -7l32 -6l31 -4l31 -8l2 -2l31 -4l29 -9l30 -6l32 -3h7l5 -2l34 -2l15 -3l31 7l28 14l28 13l17 6l10 6l8 1l5 5l14 2l19 -9l9 -9l10 -30v-8l-7 -14l-11 -12l-27 -20l-11 -10 l-21 -26l-7 -4l-2 -7l-10 -8l-1 -6l-6 -4l-1 -5l-7 -4l-2 -7l-6 -4l-16 -26l-40 -50l-5 -12l-4 -2l-3 -7zM64 128l-1 -1l-6 -1l-7 -4l-17 -16l-6 -15l-3 -14v-13h3l1 -11l15 -14l4 -7l11 -2v-2l13 -2h17l33 7l24 10v3h4l23 22l2 5l-1 9l-3 7l-5 5l-7 2l-3 3l-6 1l-22 19 l-5 1l-4 6l-19 3l-2 3h-23l-2 -3zM670 695v-13l4 -2l3 -7l9 -2v-2l9 -1l4 14l-3 1l-3 -6h-3v7l-11 7v7h-7zM220 92l-1 -3l12 -1l-1 -9l2 -8l5 -5l5 -2l2 2l-4 11l2 3v6l-8 4l-6 10l-7 2l-3 8l-3 2l-3 -1l7 -13zM276 98h-2l-5 4h-7l-4 -6l3 -8l13 -1l14 6l3 3l1 6l-4 3z M700 650l-1 -2h4l4 -10l6 -1l-2 22h-5l-5 -5zM709 676l-1 -1l2 -6l7 -3l3 -6l4 -1v16l-3 2zM200 27l1 -2l4 1l5 8l-4 2l-6 -3v-6zM293 115l-1 -1l7 -2l4 2v4l-3 2h-6zM370 199l3 1v5l-7 6l-2 -7zM685 655h3v4l-5 5l-2 -4zM308 59v-7h6l-2 7h-4zM294 76l2 -1l2 4l-2 5h-2 l-2 -3zM759 711l-1 -2h4l3 5h-5zM220 18l-1 -2h4l3 5h-5zM360 170v-4h4v4h-4zM421 265v-4h4v4h-4z" glyph-name="Z" horiz-adv-x="619" unicode="Z"/>
<glyph d="M65 -48l-1 -2l9 -13l14 -5h33l24 -3l9 -12l1 -8l-6 -22h-3l-4 -15l-7 -14l-9 -12l-24 -5h-36l-35 1l-32 -1l-32 3l-30 -2h-17l-9 11l-2 17l12 29l6 6l2 16l9 28l3 7l6 8v4l5 7l10 30l13 29l12 30l12 29v2h2l10 30l4 11v5h2v4l8 19l14 27l3 11h2v4h3v5h2v4h2l6 26l12 29 l6 15l3 3v4l4 5l11 30l12 30l12 29l3 13l8 12v4l5 4l1 12l18 45l5 6l9 31l8 17v3l7 10v8l4 6v3l3 3l1 8l4 3l2 10l3 3v7h2l4 7l3 2l7 15l3 3l1 16l9 22l8 15l4 15l7 15l4 14l5 5l8 13l3 21l3 2v7l6 18h3l4 16l5 9l7 22h2v5h2v4h2l6 14l3 2v5l5 2v5l16 10l31 1l33 -2h31l32 2 l30 -3l15 1l10 3l6 -1l12 -9l6 -13l-2 -17l-3 -2l-3 -11l-8 -14v-4l-7 -7l-2 -7l-7 -4l-4 -5l-30 -2h-16l-2 -2l-32 3l-14 -5l-10 -11l-9 -15l-10 -30l-3 -11l-4 -4l-6 -21l-14 -29l-8 -22l-3 -3v-4l-7 -14l-8 -24l-3 -3l-9 -31l-9 -13l-2 -8l-5 -7l-1 -7l-8 -15l-9 -32 l-3 -2l-6 -14v-5l-6 -6l-3 -16l-9 -21l-5 -6l-3 -14l-4 -7l-1 -7l-12 -29l-16 -40l-7 -12v-7l-5 -4v-6l-13 -25l-22 -60l-11 -27l-4 -16l-14 -28l-8 -15l-3 -14l-8 -20l-3 -2l-1 -6l-3 -3l-7 -22l-5 -5l-10 -28l-3 -12l-8 -15zM259 623v-5h4v5h-4z" glyph-name="bracketleft" horiz-adv-x="400" unicode="["/>
<glyph d="M120 835l2 -1l8 -11l1 -14l10 -30l1 -31l5 -30l4 -33l6 -31l1 -31l12 -62l-1 -31l2 -16l7 -20l1 -31l5 -32l6 -31l2 -14l-3 -14l3 -17l8 -27l1 -28l2 -3l1 -32l5 -32l6 -29l3 -32l1 -17l3 -10l2 -32l3 -17l8 -29l-2 -31l6 -31l2 -16l3 -6l3 -30l4 -32l4 -22l-1 -9 l-10 -11l-9 -5h-18l-15 8l-9 12v6l-3 8v7h-2l-5 31l-4 31l-1 15l-3 13v33l-2 14l-11 26l-2 32v32l-6 32l-1 8l-2 3l1 9l-3 14l-1 16l-6 31l-3 27l-4 24v16l-2 3l-2 31l-3 23l-2 2l-2 33l-3 29l-5 14l-2 32l-4 31l-4 32l-1 32l-9 29l2 16l-8 29l-2 30l-5 15l-3 33l-3 31 l-3 33l-3 15l3 12l12 7l17 2z" glyph-name="backslash" horiz-adv-x="374" unicode="\"/>
<glyph d="M558 874l12 -7l3 -6l-2 -23l-8 -14l-9 -29l-10 -19l-3 -2v-4l-10 -30l-10 -20l-6 -22l-1 -5l-9 -14l-11 -29l-9 -25l-5 -5l-9 -28l-9 -26l-5 -7l-10 -29l-16 -27l-3 -19l-2 -2l-1 -11l-3 -3l-7 -20l-5 -4l-3 -10l-3 -3l-4 -13l-10 -22l-4 -3l-3 -13v-9h-2l-7 -22l-10 -25 l-1 -7l-7 -18l-3 -2l-11 -26l-14 -30l-11 -28l-12 -27l-11 -32l-8 -23l-3 -2l-9 -29l-12 -28l-5 -16l-12 -27l-12 -30l-7 -15l-6 -21l-13 -27l-12 -32l-5 -11l-4 -2l-1 -11l-3 -3l-4 -15l-9 -8l-5 -7l-16 -3h-33l-15 -3l-16 3l-64 -2h-32l-31 4l-7 4l-2 16l8 31l7 14l17 18 l8 3l1 2h79l12 9l9 13l13 26l6 23l5 6l5 16l5 7l5 14l5 6l1 16l13 27l12 30l3 10l3 3l9 28l36 84l3 11l5 4l8 30l12 29l3 10l5 6l6 18l6 7l3 7l5 5l1 17l10 27l8 13l13 31l12 29l7 22l13 29l6 22l14 29l12 30l11 30l13 29l12 29l4 14l4 6l7 18l3 14l-2 6l-5 5l-14 5l-33 1 l-20 1l-12 11l-2 4l1 15l9 24l4 7v4h2v5h3v4l11 11l9 5l17 2l32 -2l30 2l16 -2l16 3l30 -5l31 2l3 -2h16zM490 731h2v4l-5 5h-4l1 -7zM464 740h5l-3 9h-4l-2 -3zM466 788h3v9l-5 -1l-2 -3zM491 788h-2v-5l4 1l1 6z" glyph-name="bracketright" horiz-adv-x="399" unicode="]"/>
<glyph d="M445 310l-1 -2l-6 -4h-32l-36 -2l-6 1l-7 4l-7 7l-1 8l-2 2v12l-2 2l-1 31l1 34l3 28v32l-1 36l-1 25l-3 8l-5 4l-8 3l-11 -10l-17 -24l-7 -2l-2 -7l-12 -12l-9 -14l-16 -17l-3 -8l-21 -23l-4 -7l-6 -5l-3 -7l-10 -9v-3l-10 -9l-6 -1l-10 -12l-8 -15l-2 -9l-23 -22l-4 -7 l-7 -3l-5 -5l-32 -6l-7 -1l-2 -2l-29 2l-12 3h-19l-7 4l-7 7v8l6 13h2l7 9l5 11l3 1l8 13l22 23l17 22l8 12l8 6l2 7l12 10l19 20l1 4l20 23l11 13l3 7l9 7l3 7l13 11l3 8l21 24l15 20l6 4l2 7l14 9l6 10l3 1l1 6l9 11l6 11l9 7l8 13l22 18l1 7h3v4l21 15l7 2l35 2h35l14 -2 l10 -10l2 -11v-54l2 -15l-2 -32l2 -30l-2 -31l1 -35l1 -15l-2 -15l2 -32l-2 -31l2 -33v-14l-4 -16l-2 -32zM379 647v-1l-12 -2l3 -7l10 -7l5 -7l2 3l-2 16l1 3l8 1l1 4l-7 3zM370 601v-3l-4 -6l-1 -5l5 -5l7 3l4 7l-2 8l-6 5l-1 7l-4 -2zM333 634l-2 -4l3 -2h5l3 2l-1 3z " glyph-name="asciicircum" horiz-adv-x="499" unicode="^"/>
<glyph d="M110 -112h-2l-30 -7h-31l-33 2l-32 3l-25 4l-16 -5l-15 -1l-15 4l-8 11v15l7 15l13 13l1 4l7 2l3 3h32l32 -1l29 3l34 -2h32l31 -1l31 1l32 2l32 -2l30 -1l33 1h32l31 -2l31 1l33 1l32 -5l9 -6l2 -15l-9 -16l-18 -21h-4l-5 -5l-25 -2l-2 2h-9l-2 3l-15 1l-16 -2l-3 -2 l-12 3l-31 -1l-32 -2l-32 -1l-31 1l-7 3v-3h-39l-4 3l-23 -5z" glyph-name="underscore" horiz-adv-x="537" unicode="_"/>
<glyph d="M265 577h-11l-2 3l-12 4l-2 4l-24 20l-11 13l-26 20l-21 15l-24 23l-12 12l-4 12l1 6l6 7l12 5l34 1h33l9 2v-2h8l3 -5l13 -8l22 -24l9 -14l14 -11l1 -6l19 -22l3 -6l13 -12l4 -8l1 -10l-10 -14l-13 -3zM238 640l-2 -4l4 -2l3 4zM218 661v-5h4v5h-4z" glyph-name="grave" horiz-adv-x="370" unicode="`"/>
<glyph d="M441 383l-1 -1l-8 -32l-8 -24h-2v-5h-2v-4h-2v-5h-3v-4l-8 -14l-2 -16l-15 -27l-9 -31l-13 -28l-7 -15l-3 -15l-3 -3l-8 -28l-5 -18v-18l3 -16l4 -8l6 -2l2 -4h12l15 5l13 7l25 22l7 3l22 24l2 4l11 9l8 13l14 15l2 7l4 2l3 7l4 2l2 7l5 2l2 7l8 8l1 6l19 27l6 13l12 15 l5 3l15 -2l15 -7l11 -11l3 -12l-6 -15l-11 -20l-5 -5v-4l-12 -18h-2v-5h-2l-3 -10l-7 -10l-11 -9l-1 -6l-3 -2l-4 -7l-7 -6v-4l-8 -8l-1 -6l-22 -24l-22 -21l-25 -22l-22 -19h-5v-2h-4v-2h-5l-1 -4l-19 -10l-24 -8l-30 -8l-14 -2l-31 5l-15 4l-13 6l-22 23l-13 16l-1 7 l-14 9l-7 -2l-25 -21l-23 -21l-15 -6l-9 -6l-15 -5l-23 -2l-3 -3l-29 -2l-14 2l-2 3l-11 2v2h-5v2h-4v3h-5v2l-14 7l-14 15l-1 5l-5 2l-4 16l-3 3l-5 24l-4 32l3 32l3 16v21l5 11l2 18l8 22l8 28l6 19l2 1l9 30l7 16l7 25l5 6l3 11l5 5l10 22l6 5l5 15l3 2l4 10l7 5l3 8l6 4 l9 13l3 8l16 18l14 9l4 7h5l1 4l10 3l3 5h4l7 5l7 1l1 4l5 1l3 5h4l7 5l30 7h33l25 -6v-2l12 -2l5 -6l14 -9l12 -12l10 -18l3 -2l2 -6l17 -11h5l2 3l13 2l29 14l28 12l25 12h9l14 -14l-1 -10l-13 -29l-2 -10l-3 -2l-4 -13l-15 -32l-4 -7zM244 424l-1 -1h-4v-2h-5v-2h-4 l-5 -7l-9 -5l-21 -24l-17 -28l-19 -26l-4 -10h-2v-5h-3l-2 -11l-4 -7l-3 -2l-5 -16l-5 -6l-6 -14l-7 -31l-10 -26l-5 -14l-6 -32v-35l4 -14l10 -11l12 -7h18l22 5l5 5l5 1l2 5h5l2 4l19 16l20 23l16 18l1 7l12 30l5 15l8 12l5 18l5 5v4l4 5l10 32l11 29l13 30l3 17v14l-3 15 l-8 14l-12 11l-14 5l-16 2l-2 -2zM35 106h-2l1 -4l6 -3v-2l12 2l6 3l-3 11l-9 -1zM277 160v-2l5 -4l8 2l8 11l-4 2l-8 -1l-7 -4zM266 46l2 -1l9 14l-2 4l-7 2l-3 -7l-1 -9zM252 110v-2l8 -2l8 9l-3 2l-8 -1zM347 308h5l2 3l-3 6l-4 2l-2 -7zM382 396l-1 -2l7 -3h5v4l-3 3z M304 60l3 -1l2 3v8l4 3l-4 1l-1 -4l-5 -6zM286 73v-3l8 3v6l-3 2zM390 370v-3l8 3v6l-3 2zM339 222h2l2 7l-5 4l-2 -3v-5zM273 140h-3l1 -5l3 -1l6 5l-3 3zM73 67l-2 -4l9 -2v5l-3 2zM375 377l2 -1l2 7l-4 4l-2 -8zM62 79v-2l4 1l3 8l-6 -3zM234 464h3v4l-3 2l-4 -3z M391 334l2 -1l2 8l-2 1l-3 -7zM89 303l-2 -4h6l1 4h-5z" glyph-name="a" unicode="a"/>
<glyph d="M229 508l2 -3l11 -3l27 16l3 3l20 7l32 5l15 1l32 -6l17 -10l7 -2l17 -15l1 -6l10 -13l1 -11l7 -13l4 -15l2 -31v-17l-7 -32l-12 -64l-4 -4l-1 -7l-4 -7l-1 -13l-3 -3l-1 -10l-9 -27l-15 -28l-5 -15l-8 -17l-5 -5l7 -12l11 -4l28 11l15 8l23 20l24 22l13 14v5l3 1l14 21 l13 21l13 4l19 -3l10 -11l6 -11l1 -9l-7 -18l-5 -5l-4 -11l-5 -2v-4l-21 -23l-4 -7l-13 -11l-2 -6l-18 -18l-5 -1l-9 -9l-9 -2l-5 -6l-9 -3v-2l-25 -12l-29 -10l-29 -8l-31 -3l-25 -4l-12 -9l-24 -23l-24 -16l-29 -17l-10 -3l-3 -3l-8 -1l-2 -3l-28 -9l-28 -2h-35l-16 1 l-32 9l-4 4l-7 2l-12 12l-13 9l-5 6l-1 5l-6 4l-2 7l-5 6l-1 5h-2v5h-2l-3 11l1 4l-6 31l-3 15l3 31l4 33l4 15v15l3 17l6 16v7l4 5v4l12 22l1 12l10 24l5 16h2l3 16l13 25l4 7l2 11l12 27l5 5l1 8l6 11l3 17l3 2l2 12l13 27l12 28l13 29l3 10l8 16l8 29l6 10l7 21l9 22l3 4 l2 8l12 20l10 10l15 4l32 -3h17l10 3l17 -3l9 -4v-5h2l3 -8l-4 -15l-12 -25l-1 -7l-5 -5l-10 -31l-13 -28l-5 -16l-7 -14v-5l-6 -6l-10 -28l-3 -9zM241 169l1 1l15 28l8 15l3 14l7 13l11 30l7 15l2 9l3 3l1 11l7 18l5 32h2l2 35l-2 8l-7 13l-15 14l-14 3h-28l-13 -6l-12 -11 l-4 -1l-23 -20l-4 -8l-7 -4v-5l-3 -1l-10 -14l-3 -10h-2v-4h-3v-7l-3 -5l-3 -36l-2 -34l8 -30l10 -27l2 -4l4 -2l2 -7l12 -11l4 -7h5l2 -4l7 -2l8 -5l10 -3l6 5zM97 145v-2l-7 -33l1 -10l10 -14l13 -10l16 -5l17 1l14 6l13 10l12 13l1 9l-8 13l-25 21l-20 22l-6 8l-1 4l-6 6 l-5 2l-7 -3l-8 -13zM84 340h-2l-5 -6l-7 -17l14 -2l-1 6l2 7l10 10zM59 217l-2 -1v-12l4 1l5 8l12 2l1 3l-3 7l-6 2l-1 -4l-6 -5zM254 125v-2l-3 -7l1 -3l6 -4l7 14l-1 4l-6 6l-4 1l-2 -3zM292 168v-2h12l3 -7l7 -6l3 1v9h-5l-11 9l-7 3zM365 349v-2l4 1l7 6l-3 7l-11 6z M374 328v-2l7 1l2 7l-7 10l-5 1zM378 419v-2l9 -4l4 6l1 7l-4 2l-6 -3zM164 460l1 -2h5l7 4l-3 7l-3 2l-7 -1v-10zM313 205v-3h12l3 2l-3 7l-4 2l-6 -2zM95 260v-10l7 3l2 3v9h-4zM332 275l1 -3l7 1l2 3v5l-8 2l-3 -3zM324 261v-2l6 -4l5 5v5l-3 2l-4 -1zM344 428v-9h5v9h-5 zM88 280l3 -1l2 3l-1 4l-4 2l-2 -3zM80 240l-1 -2l7 -2l-1 5l-3 2zM172 494l-2 -4l4 -3l3 5zM374 288v-7l4 1v4zM127 377l2 -1l2 3l-1 3l-3 1v-6zM52 256v-4h5v4h-5zM270 130l2 -1l4 7l-7 -4zM125 392v-4h4v4h-4z" glyph-name="b" horiz-adv-x="499" unicode="b"/>
<glyph d="M271 303l-2 1l1 23l4 4v4l12 28l9 32l2 16l-1 7l-4 6l-7 5l-16 2l-27 -6l-9 -8l-8 -1l-23 -22l-2 -7l-4 -2l-3 -7l-11 -12l-15 -29l-10 -22l-6 -4v-7l-13 -25l-7 -25l-8 -21l-10 -28l-5 -28l-2 -2l-3 -32l-1 -16l12 -25l10 -15l20 -13l34 -8l14 -2l31 4h8l2 2l9 1l9 5 l31 11l27 15l23 18l7 3l11 12l13 9l22 25l12 7l1 6l9 6l1 6l12 11l14 17v5l6 4l1 7l5 2l2 8l8 11l18 16l8 2l16 -4l11 -9l5 -8l1 -15l-7 -16l-3 -3l-2 -7l-27 -39l-6 -5l-11 -19l-7 -4l-2 -7l-7 -5l-2 -7l-7 -4l-2 -7l-25 -23l-12 -9l-5 -6l-2 -6l-3 -3h-5l-2 -5h-5l-2 -4 h-5l-9 -7v-2l-4 -1l-20 -16l-28 -13l-11 -9l-10 -3l-5 -4l-31 -7l-11 -2v-2l-9 -3l-32 -4l-11 -4l-30 4l-6 -2l-32 2h-9l-2 2h-7l-5 4l-31 13l-11 6l-8 1l-21 24l-19 25l-4 20l-6 14l-3 15l2 10l-2 2l-2 31l3 31l9 31l3 29l2 2v7l5 13l3 17l3 3l12 28l10 28l15 22v5l4 2v5h3 v4l17 26l11 11l2 7l4 2l8 13l23 24l3 3l8 3l13 14l15 8l13 11l8 2l6 5l7 2l4 5l12 4l18 2l31 7l30 2l33 -6l24 -5l23 -19l12 -10l5 -11l6 -5l6 -12l5 -16l5 -33l-1 -25l-5 -15l-2 -16l-11 -31l-5 -15l-23 -22l-31 -4l-33 1l-16 1l-1 2l-8 3zM157 407l-1 -1v-4l3 -3l10 2v2 l-8 4h-4zM54 252h2l2 3l-1 4l-3 2l-2 -4zM342 426v-2h4l2 5l-4 2zM104 302v-5h4v5h-4z" glyph-name="c" horiz-adv-x="452" unicode="c"/>
<glyph d="M357 69l1 -2l18 1l16 5l26 17l22 20l3 3l1 6l6 5l3 6l20 21v4l5 2l18 25l11 19h2l17 27l6 6v5h3v5l5 5l2 7l17 18l16 1l14 -7l9 -13l4 -13v-6l-17 -33l-5 -5v-4l-5 -5v-4l-5 -5l-1 -4l-7 -5l-2 -7l-7 -4l-9 -18l-4 -2l-18 -26l-11 -12v-4l-7 -5l-3 -8l-7 -5l-3 -7 l-12 -10l-6 -10h-4l-10 -11l-26 -19l-5 -1l-1 -4l-6 -1l-6 -5l-12 -4l-23 -11l-12 -5l-28 -1l-6 -4l-15 -1l-32 6l-15 5l-7 7h-4l-22 24l-1 7l-5 5v4l-9 7l-8 -1l-24 -18l-3 -3l-6 -2l-26 -18l-12 -9l-9 -3l-5 -5l-33 -4l-24 -2l-17 1l-7 3h-5v2h-4v2l-7 2l-4 5l-6 1l-22 22 v4l-13 25l-2 12l-4 3l-2 6l-3 31l4 32l2 25l3 2l6 32l8 30l8 32l6 15l1 11h2l11 30l12 31l16 28l2 7l16 29l4 11l20 25l23 23l5 4l2 7l12 12l13 8l2 3h3l12 10l4 1l4 5l14 3l4 3l29 7l14 2l32 -4l18 -2l2 -3l10 -4l23 -22l12 -11l7 -11l9 -1l7 3l5 5l12 30l8 22l8 14l11 28 l12 29l5 20l3 2l4 15l8 13l9 25l6 15l9 16l7 5l13 3h35l15 -1l6 -2h10l2 2l14 -2l9 -12v-15l-10 -30l-14 -29l-1 -7l-7 -16l-9 -27l-8 -13l-10 -21l-11 -30l-11 -24l-10 -28l-2 -9l-5 -5l-10 -30l-1 -9l-15 -26l-11 -29l-12 -31l-12 -30l-12 -28l-7 -16l-3 -13l-3 -2 l-10 -28l-11 -29l-8 -23l-5 -5l-6 -28l-3 -17v-18l6 -16zM157 93l2 1l26 17l24 21l19 22l3 1v5l7 4l1 6l6 6l9 30l2 1l1 7l3 3l2 8l4 6l7 22l10 29l5 7l2 11l5 5l1 8l15 27l5 15l1 17l-3 16l-5 13l-21 24l-6 5l-15 4l-11 -3l-8 -5l-6 -1l-4 -6l-7 -1l-9 -9l-7 -2l-9 -9 l-1 -7l-21 -23l-14 -25l-5 -2l-1 -7l-9 -15l-13 -31l-12 -27l-6 -14l-3 -3l-9 -30l-7 -31l-5 -32v-28l2 -22l13 -10l15 -3zM292 151h-2l-3 -5l-7 -3l-1 -4l16 -2l6 -4l2 3l-4 6l-1 8zM439 518v-3l15 -4l3 2l1 7l-5 -1l-6 4l-5 1zM399 421v-5l3 -2l8 1l5 3l-4 7l-7 1z M365 402v-2l4 1l6 6l1 4l-11 5l-2 -3v-8zM255 78l-1 -2l7 -4l6 -1l3 9l-3 2h-5zM295 179v-3h8l3 2v5l-7 6zM288 64v-8l3 -1l6 5v4l-7 3zM314 212h3l-2 8l-5 5l-3 -10zM44 49l-1 -2l5 -4l7 -1v5l-6 4zM380 438h-2l1 -9l4 -4l-1 5l5 8l-4 3zM313 80h2l-2 12l-5 2l2 -12z M255 100l-1 -1l-4 -1l-1 -4l9 1l5 8zM363 364v2h-10v-5l6 -2zM91 259h2l-1 8l-6 4v-8zM327 212h2l-1 8l-2 3l-3 -1l-1 -4zM369 310v-3l8 1l1 3l-7 2zM401 382v-7h7l-3 6zM115 341h3l-1 4l-4 3l-2 -3l1 -3zM421 441h5v4l-3 2l-3 -2zM311 166l-1 -2l5 -2l2 5l-4 2zM310 122v2 l-6 2l-1 -2l2 -3zM351 343v-4h7l-1 3zM62 222l-1 -1l5 -2l2 4l-4 2zM56 116l1 -2h4l1 3l-7 2zM289 82l3 1l-4 8l-2 -1l2 -1z" glyph-name="d" unicode="d"/>
<glyph d="M269 530h10l2 2h32l13 -4l3 -3l16 -4l11 -9l15 -6l10 -13l16 -13l2 -7l4 -2v-5l4 -3l4 -29l4 -32l-2 -16l-8 -30l-1 -8l-9 -21l-6 -7l-6 -17l-4 -2l-5 -13l-6 -6l-7 -12l-24 -23l-13 -10l-4 -1l-5 -5l-14 -8l-9 -3l-4 -5h-5v-2l-25 -8l-13 -4l-16 -1l-7 -3h-31l-31 -1 l-33 -1l-16 -12l-5 -30v-34l5 -13l19 -23l14 -10l11 -5l18 -4l34 -1l30 5l29 12l31 13l20 16h5l2 4h5l13 14l6 1l11 14l7 2l19 19l20 23l19 24l19 26l10 13l1 6l15 19l14 4l14 -7l11 -8l6 -14l-1 -17h-2l-2 -7l-17 -27l-6 -11l-10 -12l-3 -7l-13 -14l-1 -6l-21 -23l-22 -23 l-23 -22l-20 -20l-8 -3l-5 -6l-7 -2l-2 -3l-14 -7l-24 -19h-5v-2l-16 -4l-2 -3l-16 -3l-22 -8l-12 -2l-2 -3l-31 -4h-3v-2l-14 -1l-17 -4l-32 3h-15l-25 8l-16 2l-30 14l-12 7l-6 6l-8 4l-12 18l-3 2l-8 14l-1 6l-3 4l-6 34l-4 30l-1 33l6 31l3 24l3 2l6 30l7 20v12l12 26 l12 25l5 8l10 22l4 2l2 7l15 25l13 20l21 21l12 10l11 14l12 10l7 9l6 1l26 17l5 1l4 6l14 6l31 10zM292 427l-6 3h-27l-13 -6l-6 -1l-21 -19l-6 -1l-21 -25l-10 -18l-3 -2l-15 -24l-5 -15h-2v-4h-3l-1 -7l-12 -30l7 -11l6 -3h36l12 1l6 5l8 2l9 7l12 5l2 3l6 1l22 24l13 27 l14 29l6 16l4 30zM64 239l-2 -1l1 -6h8l2 6zM351 417v-5h8l2 3l-1 2h-9zM46 236v-10h4v10h-4zM39 136v2l-6 2l-1 -4l4 -2zM43 109v-5h5v5h-5zM50 174l-2 -4l4 -2l3 4zM369 403v-4h5v4h-5zM108 328h-1l-5 -6l5 1z" glyph-name="e" horiz-adv-x="452" unicode="e"/>
<glyph d="M456 260l2 -1l4 -16l-7 -24l-19 -26l-5 -11l-19 -20l-2 -7l-23 -22l-23 -23l-26 -19l-24 -18l-27 -13l-9 -1l-6 -5l-7 -1l-7 -4l-14 -4l-32 -6l-15 -2l-10 1l-5 -3l-25 -3l-11 -8l-3 -6l-4 -35l-1 -16l-2 -2l-2 -16l-2 -2l-8 -32l-9 -29l-10 -30l-12 -31l-8 -12l-4 -10 l-3 -3l-1 -5h-2l-10 -21l-6 -6l-10 -18l-10 -7l-2 -7l-25 -19l-5 -1l-4 -7l-7 -2l-10 -10l-9 -1l-31 -10l-15 -2l-32 3l-15 2l-20 11l-2 4l-13 9l-1 4l-8 8v4l-5 5l-3 33l-4 22l5 17l5 32l11 29l10 30l10 16v4l12 23l8 25l6 6l8 30l3 10l3 3l3 10l5 4l2 11l12 28l11 29 l11 25l10 30l7 11l8 21l6 17l3 2l11 30l10 30l1 4l3 2l9 17l4 19l5 5l4 15l11 28l13 29l4 14l4 7l1 7l5 6l9 26l7 13l10 30l5 8l11 29l12 29l1 4l5 4l8 30l3 11l5 4l10 28l1 4l4 2l1 6l4 2l13 29l2 7l14 17l2 7l5 7v5l5 2l2 7l45 45l7 2l2 5h5l13 8l30 8l14 2h36l28 -4 l15 -10h4l20 -23l8 -13l2 -7l4 -5l5 -31v-26l-3 -3l-3 -32l-1 -16l-7 -20l-4 -7v-12l-4 -3l-2 -10l-11 -28l-3 -3l-1 -7l-10 -29l-3 -8l-5 -4v-7l-9 -21l-5 -4l-1 -7l-5 -7l-7 -21l-1 -4l-6 -6l-4 -14l-6 -9l-1 -5l-6 -6l-3 -12h-2l-2 -8l-12 -25l-8 -12l-1 -7l-18 -26 l-17 -26l-15 -18l-2 -7l-25 -22l-7 -3l-9 -9l-6 -1l-12 -10l-29 -7l-31 -8l-34 -3l-5 -2l-15 -20l-8 -23v-8l11 -13h4v-2h5v-2h4v-3l27 -8l27 -5l28 2l2 2l16 1l30 7l22 8l11 3l3 3l11 3l2 3l4 1l11 10l4 1l6 8h5l7 9h4l20 19l3 1v5l11 9v4l11 11l13 21l13 15l7 14l10 14 l11 7h8l16 -8zM336 696h-1l-22 -16l-15 -22l-4 -9h-2l-1 -6l-9 -14l-2 -7l-9 -12l-1 -7l-6 -6l-4 -17l-4 -6v-5h-2v-4h-2v-5h-3v-4h-2v-5h-2v-4h-2v-5l-5 -4l-2 -12h-2v-4l-12 -29l-3 -15l-6 -16l-9 -13v-4h-2l-1 -7l-7 -13l-1 -12h-2v-4h-3l-10 -29l-12 -30l-24 -58 l-10 -25v-8l4 -7l5 -2l9 1l11 4l11 9l7 2l20 23l16 26l11 14l3 12l6 6l5 14l12 14l4 13h2v5l5 5v4l13 27l3 11l14 28l3 3l12 27l13 30l4 16l4 5l1 12l5 6l1 6l3 3l12 31l7 13l6 33l1 16l-3 15l-6 10l-17 3zM-48 -231l1 -1l7 -1l14 6l14 11l19 26l9 12l8 24l5 5l13 30l9 31 l9 20l3 18l7 22l3 6l3 34l1 12l-3 5l-1 10h-2l-1 6l-6 5l-8 3l-8 -1l-7 -5l-10 -29l-3 -3l-3 -12l-11 -27l-12 -25l-7 -13l-4 -21h-2l-1 -8l-10 -21v-7l-5 -5v-4l-4 -7l-3 -2l-3 -16l-14 -29l-8 -30v-5l4 -10zM63 214l-2 -2l3 -11l-1 -4l-12 -2l-3 -2l3 -6h10l5 7l9 4l1 6 l-2 8l-4 4zM-99 -182h2l2 3v8l6 4l1 5l-20 2l3 -16zM224 603l1 -2l-2 -8l2 -3h5l6 4l-3 7l-5 5l-1 4l2 9l-7 2l-2 -5zM61 234l5 -2h4l4 -7l6 -2l2 7l-9 7l-9 -1zM4 97l-1 -1l3 -7l6 -2l4 6v3l-4 2zM-59 -58l3 -8v-5l-6 -3l-1 -4h5l5 5l1 11l-4 4h-3zM182 512l-1 -2h9l5 5 l-2 4h-4zM-120 -175l-2 -1v-4l2 -2h5l2 2l-2 7h-5v-2zM179 454h2l1 6l-2 3h-5l1 -8zM252 305l2 -1l2 4l-2 5h-2l-2 -3z" glyph-name="f" horiz-adv-x="400" unicode="f"/>
<glyph d="M479 497l2 -1l4 -7v-9l-7 -23l-5 -6l-1 -7l-13 -29l-13 -28l-5 -10l-3 -12l-8 -14l-4 -13l-3 -3v-6l-2 -4l-3 -1l-3 -12l-6 -6l-4 -21l-3 -6l-2 -12l-9 -20l-5 -5l-9 -29l-8 -14l-1 -7l-5 -6l-6 -21l-5 -4l-7 -24l-5 -6l-8 -27l-7 -12l-2 -8l-5 -5l1 -8l-5 -13l4 -8l8 -3 l27 13l27 18l23 20l23 23l22 17l4 7l12 10l4 8l6 5l2 8l12 11l18 28l10 10l16 26l8 14l11 10l9 1l14 -5l12 -11l6 -18v-4l-13 -25l-6 -6l-12 -22l-3 -2v-4h-2l-3 -8l-6 -4l-8 -12l-12 -13v-3l-22 -25l-9 -11l-25 -20l-22 -24l-11 -9v-2l-11 -7l-2 -5l-7 -1l-4 -6l-28 -16 l-9 -4l-2 -5h-4v-2h-5v-2l-9 -2l-5 -6l-11 -3l-2 -5h-5v-2l-16 -8l-29 -13v-2l-6 -1l-12 -11l-8 -11l-13 -31l-12 -28l-12 -31l-5 -5l-2 -10l-8 -11l-1 -6l-6 -6l-9 -18l-19 -26l-19 -19l-7 -2l-24 -23l-27 -12l-30 -7l-9 -4h-15l-17 4l-24 1l-12 5l-4 5l-6 1l-5 6l-6 3 l-6 6h-3l-13 11l-1 6l-4 5l-7 23l-3 15l2 35l2 2l1 7l6 14l4 2l7 15l2 1v3l24 23l6 1l7 10l6 1l3 5h4l2 5l8 1l10 6h3l8 5l5 1l3 5h4l4 5l8 1l6 6l29 11l24 9l28 16l11 10l9 14l1 11l-3 3l-7 2l-8 -1l-9 -8l-24 -10l-10 -7l-14 -3l-33 1l-31 8l-13 7l-5 7l-11 10l-1 3l-5 4 v5h-2v4h-3v5h-2v4l-5 11l-4 35l-2 16l1 15l6 32l2 30l6 30l10 31l8 26l7 19l10 25v2h2l10 30l10 18l5 4v5h2v4h2l1 6l8 15l3 2l4 7v4h2v5h3v4l19 26l21 24l24 20l27 18l13 6l6 5l29 8l15 3l32 -2l8 -1l3 -3l25 -8l21 -18l2 -6l4 -2l8 -13l3 -2v-5l21 -12l16 2l18 9l22 10v2 h5l8 8l15 2l15 5h16zM223 413l-2 -1l-12 -10l-19 -26l-15 -21l-8 -13l-6 -6l-12 -28l-12 -25l-12 -28l-1 -8l-13 -29l-4 -13l-6 -31l-5 -33l1 -30l7 -15l11 -6v-2l35 1l12 5l25 18l5 6h4l12 11l10 13l2 7l4 2l17 27l3 12l5 7l9 22h2l3 13l8 14l5 13l3 3l8 33l5 13l3 3l11 28 l8 31l-3 25l-6 12l-21 19l-16 2l-30 -3zM105 -109h-2l-30 -17l-14 -6l-15 -11h-4v-2l-6 -1l-11 -13l-7 -5l-3 -8l-7 -5l-3 -14l1 -9l6 -10l14 -8l7 -1l24 8l10 9h4l19 26l11 13l6 14l5 6l5 16l1 11l-5 5zM210 57v-12l6 2l3 7l7 5l2 4l-7 3l-5 5l-9 1zM376 395l-3 1l-4 -11 l2 -5l4 1l5 5l9 2l4 5v5l-3 2zM224 -73h2l5 5l1 11l-13 3l-2 -3v-9zM259 56l1 -2h5l3 6l5 4l-1 3l-6 5h-6l-2 -4zM196 -47l-2 -1l6 -10l4 -1l6 2v5l-3 5h-11zM219 21v-3l2 -2h4l5 5v4l-4 2zM39 116l1 -1l9 3v6h-11zM254 128l-1 -1v-5l8 -2l3 2v5l-4 2zM46 232l-2 -1l1 -5 l7 -2l4 2l-1 5l-3 2zM212 -22l2 1l-13 7h-5l1 -3l7 -5h8zM29 66v-3l4 1l3 7l-3 6l-3 -1l-2 -8zM251 17l2 1l-3 7l-9 2l1 -4l6 -6h3zM276 -2h2l-2 8l-10 3l3 -7zM108 358v-12h4l3 7l-3 5h-4zM342 288l-1 -1l1 -4h8v7zM165 407l-1 -2l10 1v4h-5zM344 304l2 -1l-1 4l-8 5l3 -7z M180 -41l-2 -4l5 -3l2 5zM94 315v2l-6 2l-1 -4l4 -2zM332 226v-4h5v4h-5zM314 169v-2l4 1l3 4h-4z" glyph-name="g" horiz-adv-x="530" unicode="g"/>
<glyph d="M234 495l1 -2l11 -2l16 11l2 5l6 1l17 11l29 6l31 8h15l32 -6l13 -6l12 -11l2 -8l6 -4l6 -14l6 -4l1 -8l4 -10l-3 -14l-1 -32l-10 -30l-8 -30l-24 -58l-13 -29l-10 -31l-6 -15l-5 -6l-10 -29l-12 -29l-10 -31l-4 -14l-1 -19l3 -16l9 -12h25l2 3l18 6v3l6 1l12 10l3 5h4 l20 22l21 23l9 14l20 25l9 13l5 4l1 6l4 2l14 19l1 5h3v5h2l10 21l14 18l7 3l9 1l15 -6l11 -12l4 -15l-4 -19l-6 -5l-1 -7l-9 -11l-5 -10l-11 -13v-4l-6 -5l-5 -11l-6 -5l-8 -13l-5 -5v-4l-6 -9l-6 -6l-1 -6l-22 -22l-25 -23l-12 -9l-22 -26l-12 -11l-14 -8h-4l-5 -5h-4 l-14 -7l-30 -10l-8 -3h-16l-2 -2h-15l-31 6l-6 6l-12 1l-3 5h-4l-2 4h-4l-5 7l-7 5l-3 7l-3 2v4h-3l-4 12l-3 35v31l6 32l2 16l8 25l10 24l9 25l7 23l4 6l3 11l3 3l11 27l5 16h2l6 15l1 7l5 5l9 29l7 23l-1 17l-9 12l-7 4l-13 2l-18 -4l-11 -6h-3l-14 -9l-15 -6l-12 -11 l-6 -1l-22 -23l-3 -2v-5l-11 -11l-1 -6l-8 -15l-11 -31l-2 -7l-5 -7l-1 -6l-3 -3l-3 -11h-2l-7 -25l-12 -28l-6 -18l-5 -6v-5h-2l-2 -11l-5 -5l-10 -28l-12 -31l-12 -29l-12 -28l-7 -16l-3 -15l-8 -14l-13 -8l-32 -3l-32 -1l-17 1l-13 6l-8 10l-2 10l4 13l17 36l5 16l12 20 l1 7l5 6l3 15l13 29l8 27l2 2l4 17l12 20l7 22h2l2 11l3 3l4 16l7 9v4l9 14l10 30l11 30l26 60l3 11h2v5h2v4l2 1l7 29h3v4h2v5h2v4l5 5l9 22l3 16l12 29l3 7l5 5l3 14l6 11v4l7 13l10 31l11 29l18 26l9 9l6 1l6 4l66 -2l15 -1l10 -10l2 -15l-5 -15l-14 -27l-2 -7l-6 -6v-5 h-2v-4h-2l-9 -30l-11 -29l-14 -30l-10 -30l-1 -4zM145 435l-1 2l1 5l-3 7l-6 3l-10 -2l1 -4l5 -5l7 -15l5 -5l2 2l9 1l1 3zM356 481l-1 -1l-7 -3v-9h5l6 5v5l5 5v3h-4zM168 481l-1 -1v-5l8 -2l3 2v5l-4 2zM160 518h5l2 7l-2 4h-5l-2 -7zM278 130l2 1l-3 6l-10 1l1 -5l7 -4z M377 404l-2 -1l3 -7l8 1l1 4l-2 3h-8zM342 330h2v7l-7 2l1 -8zM178 435v-3l4 1l3 8l-4 2zM287 97h2l-4 9h-5l3 -7zM292 140h2l2 3l-1 4l-4 2l-1 -4zM108 369v-7l2 -1l3 2l-1 6h-4zM357 366l-2 -4l4 -2l3 4zM206 621l-1 -1l5 -2l2 4l-4 2zM276 192v-5h4v5h-4zM387 452v-4h4v4 h-4z" glyph-name="h" horiz-adv-x="526" unicode="h"/>
<glyph d="M227 506l1 -1l-6 -24l-3 -1l-11 -29l-9 -28l-5 -5l-1 -9l-4 -5l-6 -21h-3l-5 -15l-3 -3l-11 -28l-2 -12l-3 -1l-7 -23l-11 -15l-1 -5h-2v-5h-2l-4 -14l-7 -29l-3 -2l-10 -31l-7 -18l-5 -5v-7l-3 -3l-4 -18h-2l-8 -28l-4 -17v-16l10 -13l13 -7l27 4l24 16l12 13l10 6 l12 12l4 8l11 11l17 26l20 22l2 7l6 4l2 7l5 4l2 7l16 20l4 15l8 9l1 4l11 11l18 2l13 -9l9 -9l5 -8l-4 -17l-15 -29l-6 -10l-1 -6l-5 -7l-4 -2v-5l-9 -9v-4h-3l-2 -7l-4 -2l-3 -7l-10 -7l-3 -9l-5 -2v-5l-8 -12l-3 -1l-9 -13l-23 -23l-21 -24l-1 -2l-7 -2l-7 -9h-3l-27 -21 l-12 -10l-6 -1v-2h-4l-30 -10l-14 -4h-32l-19 -2l-2 3h-10l-17 7l-8 4l-8 13l-7 7l-1 13l-17 27l-3 7l-1 31l2 32l7 27l1 10h3l2 16l10 29l10 30l5 5l10 25l4 15l4 7l2 12l5 4l2 14l2 2v5l5 5l1 7l9 16l9 28l4 11h2l12 31l13 29l15 28l7 19l12 11l10 5h70l10 -2l7 -4z M294 627v-4l-3 -2v-4l-9 -11l-1 -4l-26 -17l-9 -3l-6 -6h-14l-34 6l-12 7l-6 6l-1 6l-4 2l-13 29l-2 14l3 18l7 13l6 6l13 19l24 8l15 2l17 -2l15 -5l13 -7l12 -11l9 -13l4 -12zM8 94l-2 -1l3 -7l7 -2l4 2v5l-2 3h-10zM47 131v-2l-1 -3l-7 -2l-1 -4l8 2l5 7v4l-5 9l-4 1z M115 342h2v7l-7 2v-5zM94 317h3v4l-5 5l-2 -3l1 -4z" glyph-name="i" horiz-adv-x="274" unicode="i"/>
<glyph d="M256 511l2 -1l1 -13l-5 -4l-7 -16l-2 -14l-3 -3v-7l-7 -12l-4 -17l-15 -23l-5 -15l-3 -18l-11 -24l-11 -30l-5 -10l-2 -12h-3l-4 -16h-3l-8 -28l-4 -10l-7 -10l-2 -7l-3 -3l-9 -27l-10 -21l-4 -7l-1 -7l-6 -11v-4h-2v-5h-2l-7 -25l-9 -21l-2 -8h-3v-5h-2v-4l-4 -5l-3 -12 l2 -4l12 -4l23 13l13 6l26 20l23 20l23 22l23 23l21 22l13 19v3l10 9l2 6l13 11v5l5 2l1 7l10 13l12 22l6 5l7 1l16 -6l8 -5l9 -15v-11l-14 -31l-12 -14v-3l-12 -12l-17 -26l-18 -25l-23 -24l-21 -23l-25 -21l-22 -16l-17 -17l-13 -7l-5 -5h-4v-2h-5v-2h-4l-11 -9h-3 l-11 -10l-23 -14l-22 -10h-5v-3l-16 -4l-4 -6l-7 -3l-5 -5l-2 -7l-5 -6l-2 -8l-5 -7l-1 -6h-3l-5 -14l-3 -3l-4 -14l-8 -14v-4l-5 -5l-2 -7l-3 -3l-4 -12l-8 -15l-1 -6l-13 -21l-10 -12l-6 -11l-26 -22l-8 -9v-4l-9 -9l-8 -2l-19 -13l-8 -2l-6 -4h-4l-6 -4l-31 -4h-33l-16 3 l-21 7l-2 3l-7 2l-23 21l-10 13l-3 9l-5 4l-2 29l-1 18l8 32l17 26l24 22l11 11l25 16l10 6l6 1v3l29 13l28 13l15 6l5 4l9 2l4 5h7l3 3l7 2l6 6h3l7 5l3 8l5 5l12 30l3 8l3 3l11 29l2 12l12 20v4l7 7l2 14l2 1l10 29l5 6v12l13 29l3 3l8 20l-1 9l-12 26l-1 7l5 13l19 32 l5 6l5 15l5 5l10 21l2 6l9 11l13 30l4 5l2 9l8 13l3 11l15 22l6 14l7 9v5l6 5l2 6l14 13l11 5l19 1l30 -5h13l6 2l10 -1l13 -7zM234 700h3l19 6l5 6l16 -3l17 -10l2 -4l6 -1l11 -10l10 -13l4 -12l2 -17l-3 -17l-6 -14l-4 -2l-3 -6l-20 -19l-17 -6l-2 -3l-32 4l-14 1l-18 12 l-18 27l-5 16l-1 16l3 16l6 13l11 13l11 6zM-132 -112l-2 -1l-7 -3l-13 -1l-5 -5l-9 -2l-12 -12l-6 -3l-5 -6h-4l-24 -23l-10 -20v-9l5 -12l13 -8l16 2l29 16l8 5l15 22l4 1l1 6l15 27v2h3v5h2v4l3 4l-9 12zM106 257l-2 1l-12 11l-4 1l-7 -11l2 -4l5 -3l1 3l-3 7l4 3l7 -4 l8 -13l10 -3l2 3zM-45 -96l-1 -1v-4l5 -10l8 3l8 11l-16 2zM-79 -63l-1 -2l16 -9l-1 8l-4 6l-4 1zM-9 -35l2 -1l2 9l8 4l3 5l-7 1l-6 -6l-3 -8zM37 55h3l3 9l-5 2l-6 -3l-1 -6zM140 344h2l4 -6h3l2 9l-13 2v-4zM155 376h3l-2 4l2 11l-4 1l-3 -10l1 -4zM70 200l-2 -1v-4l3 -2 h6v4l-5 5h-2v-2zM-77 -129v-2l7 1l2 6h-5zM124 329h2l2 3l-1 4l-3 2l-2 -4zM138 378h2v4l-5 4l-2 -3zM1 27h3l-1 5l-3 2l-3 -5zM65 263v-5h7l-1 4zM-102 -199v-2h4l2 5l-4 2zM123 317l-1 -2l4 -2l3 4l-5 3zM69 242l-1 -2l4 -2l2 5l-4 2z" glyph-name="j" horiz-adv-x="297" unicode="j"/>
<glyph d="M234 498l1 -3h17l26 15l7 1l4 6l29 8l18 3l16 5l15 1l31 -10l29 -16l11 -21l6 -33l2 -15l-8 -30l-8 -26l-7 -28h-2l-2 -12l-7 -13l-18 -27l-4 -7l-3 -16l-21 -24l-21 -26l-4 -4h-4l-12 -10l-29 -16l-7 -1l-4 -5l-31 -8l-7 -6l-4 -1l-3 -7l-5 -5l-2 -14l5 -31l4 -18l3 -5 l1 -7l5 -4l2 -7l11 -12l7 -2v-2l30 2h2l2 3l29 6l5 5l7 2l12 12l25 19l5 5l5 1v2l25 18l15 14l1 6l6 5l3 7l5 2v4l9 8l2 6l12 9l1 3l6 5l6 10l5 14l4 2l16 27l5 7l7 5l15 2l8 -2l13 -11l8 -16l-7 -22l-3 -3l-2 -6l-5 -6l-2 -7l-21 -27l-19 -26l-12 -12l-12 -9l-2 -7l-3 -2 l-10 -15l-26 -21l-24 -21l-25 -21l-21 -18l-7 -1l-7 -5h-4l-21 -9l-5 -6l-29 -9l-31 -7l-25 -1v2h-9v2h-8l-27 11l-10 5l-12 11l-16 23l-11 12v4h-2v5h-3v4h-2v5h-2l-4 12l-7 31l-3 13l-1 39l1 25l3 2l2 15l7 12l9 9l2 5h4l12 5l34 2l13 4l16 8l25 19l6 4l3 8l10 7l1 6l5 2 l7 14l5 6l8 31v2h2l4 7l1 8l5 5l3 31v8l-7 15l-3 3l-13 3l-18 -1l-13 -3l-15 -7l-27 -18l-21 -15v-2l-14 -10l-12 -19l-2 -8l-5 -7v-4l-26 -58l-4 -10l-5 -7l-1 -11l-4 -10l-4 -5l-1 -9l-3 -2l-2 -10l-3 -3l1 -7l-6 -6l-2 -8l-5 -7l-10 -29l-2 -13h-3l-3 -16l-7 -9l-11 -30 l-4 -8v-5h-2l-1 -6l-9 -16l-9 -29l-1 -3l-5 -2l-1 -6l-7 -3l-5 -7l-31 -5l-32 1h-16l-13 5l-10 8v16l11 29l9 24l5 17l2 2v5l4 2v4h3v5h2v5h2v4h2l7 21l5 8l8 31l12 28v3l4 5l10 25l7 17h2l4 16l7 14v4h2v5h3v4h2v5h2v4h2v5h3v4h2l8 30l3 11l5 5v4l6 12l5 6l1 6l14 30l3 14 l4 6l2 9l3 3v7l5 5l1 11l3 7l6 6l1 12l6 14l5 6l7 25l12 31l11 23l3 10l3 3l2 9l3 3v5h3l9 31l10 20l6 13l11 13l7 4l13 2h35l30 2l9 -3l9 -8l1 -4h2v-15l-4 -16l-8 -14l-2 -8l-4 -6v-4l-5 -7l-9 -30l-12 -28l-3 -3l-3 -13l-8 -15l-2 -8l-3 -3l-8 -27v-11zM152 435l-1 -1v-4 l-4 -2l-3 -8l5 -15l13 1v8l-6 4l-3 5l17 10l2 6l-8 2zM145 451l2 -1l6 5v6l-13 3v-5zM152 488l-1 -2l7 -4l1 4l8 10l-4 4l-1 -4zM194 163v-3h4l3 7l-3 5h-4l-2 -4zM85 235l1 -2l7 1l2 6l-4 2l-7 -3zM400 418h3v5l-5 5l-2 -7zM364 401l2 -1l5 7l-9 2zM162 158h3v5l-5 4l-2 -3 zM317 303l-1 -2l4 -2l4 1l2 3l-4 2zM131 408v-3l7 4l1 3l-4 2zM114 364h3v5l-3 2l-3 -3zM150 477l-1 -2h4l3 5h-5zM178 495v-4h5v4h-5z" glyph-name="k" horiz-adv-x="500" unicode="k"/>
<glyph d="M216 717h2l3 2h31l35 -1h3l9 -6l5 -11l-3 -15l-10 -31l-11 -27l-6 -19l-11 -26l-4 -11l-3 -3l-12 -29l-5 -13l-5 -5l-2 -14l-2 -1v-3l-3 -3l-2 -15l-6 -10l-1 -5l-3 -2l-13 -31l-1 -12l-14 -23l-5 -14l-8 -33l-14 -27l-12 -30l-12 -31l-12 -30l-11 -29l-3 -9l-3 -2 l-10 -27l-10 -25l-7 -29l-3 -18v-11l2 -6l13 -12l13 -4l16 5l14 8l17 13l9 10l6 2l17 22l4 1l8 13l13 10l2 7l11 11l18 26l5 6v5l5 2l2 7l6 4v7l5 6l2 6l18 26l4 7l12 5h10l15 -6l9 -13l3 -15l-4 -15l-17 -27l-18 -27l-9 -12l-14 -28l-4 -6l-9 -5v-4l-21 -23l-21 -25 l-21 -22l-25 -21l-14 -7l-11 -9l-10 -3l-3 -3l-10 -3l-6 -5l-30 -8l-15 -2l-10 1l-2 3l-33 -1l-24 10l-12 9l-19 20l-3 16l-2 2l-2 12l-5 4l-2 32l5 30l4 18v11l9 23l10 31l14 28l6 14l7 32l8 13l10 25l8 22l9 25l5 15l3 3l10 29l7 14l10 26l5 15l3 3l12 29l11 27l11 29 l12 29l4 15l14 27l1 7l8 15l2 13l6 9l5 17l17 22zM90 340l-1 -2l9 1l7 8v7l-7 -3zM126 369l2 -1l-1 13l-6 3l-3 -4v-3zM11 96l-1 -2l7 -3h9l4 3l-15 4zM106 307l-1 -3l5 -2l4 5l-3 2zM26 64l-2 -4l4 -2l2 4z" glyph-name="l" horiz-adv-x="274" unicode="l"/>
<glyph d="M709 59l-9 -9l-5 -6l-25 -19l-27 -16l-7 -2l-6 -6l-8 -2l-7 -5l-11 -4l-17 1l-3 -3l-33 -1l-23 1l-3 3l-14 4l-14 9l-22 22l-7 32l-6 32l2 21l3 2l3 32l6 15l2 16l10 30l8 13l2 7l5 5v4h2l2 15l12 30l12 31l2 8l5 6l1 5h2l3 12l5 6l1 16l3 3l9 27l1 16l-7 15l-10 7l-12 1 l-27 -5l-2 -3l-11 -4l-3 -5h-4l-27 -18l-4 -5l-10 -6l-4 -7l-7 -2l-2 -7l-6 -4l-1 -5l-6 -4l-11 -28l-10 -27l-3 -2l-1 -7l-5 -7v-4l-10 -25l-3 -3l-1 -8l-5 -5l-2 -14l-12 -27l-11 -29l-12 -31l-12 -30l-10 -24l-5 -6l-1 -11l-3 -2l-4 -14l-8 -15l-4 -14l-13 -20l-11 -3 h-16l-14 -4l-17 -1l-16 3l-12 -1l-16 4l-8 10l-2 8l4 15l13 29l12 28l3 11l12 18l4 14l2 16l14 26l12 31l12 29l9 27l14 26l3 16l12 27l8 19l5 4l9 29l2 25l-7 13l-12 5l-17 1l-13 -2l-19 -11l-13 -5l-26 -18l-12 -10v-2l-11 -4l-1 -7l-9 -11l-15 -28l-6 -11l-8 -29l-13 -29 l-11 -29l-7 -14l-22 -60l-8 -24l-4 -2l-2 -7l-5 -7l-2 -13l-14 -30l-3 -12l-2 -2l-3 -16l-13 -25l-13 -13l-23 -14l-31 2h-33l-11 3l-6 8l3 34l-1 5l12 21l12 29l12 30l11 29l9 25l14 27l10 28l6 15l8 25l22 54l6 14l7 11l11 31l10 28l4 5l1 7l8 13l13 29l14 28l3 3l1 6l7 2 l2 4l16 -3l15 -6l19 -13h5l1 -3l8 -5l26 -8l10 2l11 9h5v3l11 5l5 6l7 3l9 8h4v2l6 1l15 8l20 7l31 5h34l23 -8l5 -6h4l12 -11l11 -16l4 -11l6 -9l8 -3l6 1l14 9l13 12l28 16l14 7l16 5l2 3l30 9l31 4l31 -4l14 -5l25 -20l2 -7l10 -13l6 -29l-2 -30l-5 -12l-3 -28l-3 -1 l-3 -12l-3 -3l-10 -25l-8 -16l-1 -8l-3 -2v-7l-4 -11h-2l-7 -21h-2l-9 -29v-2h-3v-5h-2v-4h-2v-5h-3l-9 -27l-5 -19l-12 -30l-11 -30l-4 -11l-2 -32l12 -16l7 -4l7 -1l16 6l27 18l24 20l34 34l6 12l17 21l10 13l2 6l10 12l4 8l3 2v5h3l3 7l3 2l14 24l14 18l17 3l14 -5 l13 -15l1 -16l-4 -16l-8 -13l-6 -5v-5l-7 -4l-2 -7l-3 -2l-7 -13l-8 -10l-2 -7l-19 -25l-18 -25l-23 -25zM388 397l-1 -1l-1 -4l4 -10h-4l-3 -4l8 -2l14 13l-6 15l-7 6zM345 421h1l6 -5l-3 -9h8l6 7v3l-4 6l-1 5l-4 1l-5 5h-7zM530 152l-2 -1l-9 3l-2 -3l4 -6l-2 -7l4 -7 l-7 -3l-2 -6l4 -2l6 3l6 8l-7 16h9l6 4l1 5h-5zM621 350l-1 -2l7 2l14 -4l-1 9l-6 4l-7 -2l-6 -5v-2zM554 239l1 -2l4 1l3 4h2l-1 4l-5 4l-3 6h-2l-2 -4zM402 441l-1 -2l3 -2l8 1l5 6l-3 2l-8 -1zM318 296l4 -2l4 14l-7 -3l-2 -4zM308 263l-2 -1v-4l2 -2h5l2 2l-2 7h-5v-2z M358 471v-3h5l3 2l1 5l-7 2zM369 424l2 -1l5 6v5l-8 -4l-1 -3zM161 402v-2h7l2 7l-8 -1zM29 164l3 -1l4 7l-5 2l-4 -5zM135 382l-1 -2l3 1l1 6h4l3 7l-4 -1l-5 -6zM371 451l3 -1l2 4l-2 5h-3l-2 -3zM575 265h2l3 9l-5 -1l-2 -3zM272 161v-3l6 2l-2 7h-2zM94 273l-1 -2l4 -2 l3 5l-5 2zM633 317l-1 2l-7 -4l2 -2l4 1zM18 149l-2 -4l7 -3l-1 4z" glyph-name="m" horiz-adv-x="776" unicode="m"/>
<glyph d="M339 66l1 -2l4 -1l18 6h5v2h4v2h5v3h4v2h5l11 11h5l24 23l3 2l8 13l17 17v4l11 11l2 7l21 25l18 23l3 3l1 6l5 5l15 29l12 15l29 -6l5 -5l6 -1l6 -12l-1 -13l-16 -29l-12 -23l-6 -3l-16 -27l-17 -27l-12 -16l-7 -5l-2 -7l-21 -22l-22 -25l-7 -2l-9 -13l-7 -1l-4 -7h-5v-2 l-15 -8l-18 -14l-28 -9l-21 -9l-32 -1l-31 2l-15 5l-12 8l-13 12l-13 19l-6 6l-5 29l-2 17l2 33l2 17l9 30l7 31l2 7l3 3l1 8l6 11l5 4v5h2l8 25l6 18h2v4l8 12l11 28l4 15l7 14l2 11h2v4l5 12l4 34v4l-13 15l-14 2l-32 -9l-29 -16l-24 -18l-11 -13l-12 -9l-9 -12l-7 -15 l-5 -20h-2l-3 -13l-6 -12l-4 -16l-12 -29l-12 -30l-11 -27l-5 -4l-10 -29l-12 -31l-3 -14l-8 -13l-11 -31l-11 -29l-13 -25l-10 -11l-12 -4l-34 -4l-16 3l-7 4h-17l-17 5l-2 16l8 31l10 26l16 29l12 31l2 8l5 8l4 16l6 14l4 16l12 27l11 29l15 29l12 31l12 30l11 30l12 26 l10 30l12 30l12 27l7 12l11 9l8 -1l14 -5l4 -4l19 -8l5 -5h4v-2l28 -14h10l15 6l26 18l21 12h4v3h5v2l28 8l29 7l17 2l19 -1l16 -3l13 -7l24 -21l2 -2l8 -25l5 -13v-15l-6 -33l-9 -32l-9 -26l-3 -3l-7 -22l-5 -6l-9 -28l-3 -11l-7 -9v-7l-12 -26l-6 -15l-3 -3l-7 -24h-2 l-1 -7l-5 -7l-2 -8l-3 -3l-9 -29l-6 -30h-2l1 -33l1 -10zM367 451v-2l2 -2l4 1l2 3l10 4l2 3l-4 2l-11 -2zM380 402h3l2 4l-3 7l-4 2l-3 -1l-1 -8l2 -3zM309 274l-1 -1l1 -8l3 -1l6 4l1 7zM113 396l2 1v4l-3 3h-6v-5l2 -3h5zM308 144v-3l5 1l2 3l-3 5h-2zM349 358l2 1v4 l-5 5v-8zM84 261l-3 -6h7v6h-4zM137 424l-1 -2l4 -2l3 4l-5 3zM393 454h3v4l-5 2l-1 -4zM290 214v-7l4 1v4z" glyph-name="n" horiz-adv-x="525" unicode="n"/>
<glyph d="M7 236l2 1v27l8 14l8 31l13 30l10 16v4l12 19l8 8l2 7l5 2v5l15 25l10 9l2 7l24 21l18 21l6 2l15 15h5v2h4v2h5l2 5l12 2l27 13l16 5l29 2l34 -1l31 -4l26 -8v-2l13 -8l23 -21l9 -7l4 -6l4 -2l5 -15l3 -3l7 -27l2 -2l3 -29l1 -34l-3 -31l-1 -13l-4 -9l-2 -16l-7 -31 l-9 -29l-9 -21l-14 -29l-3 -13l2 -6l6 -4l8 -2l20 6l24 10l14 9l12 11l8 3l22 22l9 11l17 29l9 11l7 4h17l13 -9l6 -7l4 -15l-3 -15l-18 -26l-9 -11v-3l-16 -19l-13 -9l-17 -18h-4l-1 -3l-13 -8l-15 -14l-7 -2l-4 -6l-23 -6l-21 -11h-11v-2h-16l-16 -3h-36l-12 -8l-24 -23 l-13 -15l-5 -1l-21 -14l-26 -15l-29 -13l-32 -9l-16 -3l-31 1l-32 6l-29 8l-17 13l-25 23l-5 5l-1 6l-6 6v4l-3 3l-5 12l-6 34l-5 27l-1 16l5 31l4 33l3 10l6 6v6zM267 447h-7l-6 -5l-5 -1l-25 -22l-6 -4l-7 -13l-9 -7v-4l-12 -16l-4 -2v-5l-6 -6l-2 -6l-3 -3l-3 -10 l-14 -27l-14 -28l-13 -23l-3 -16l-11 -30l-6 -32l-9 -31v-53l8 -13l11 -12l13 -7l8 -2l24 5l8 7l7 2l13 9l23 25l5 13v16l-10 31v16l5 17l4 5l2 7l6 4v4l14 11l14 7l15 3l7 4l10 13l13 29l8 30l6 31l3 31l-4 32l-7 13l-11 9l-18 6l-9 1zM289 156l-1 -1v-4l7 -4l2 -3l-2 -2 l-1 -7l10 -4l4 2v4l-7 14l1 4l5 5l1 4zM68 160h2l5 9l-6 4l-10 1v-5l4 -6zM111 308v-3h5l5 4l1 7l-9 2zM335 191v-2h5l4 5l7 3v4l-12 -2zM86 232v-2l7 -2l4 2v5l-5 4zM265 90h2v9h-7v-5zM104 335v2l-11 2l1 -5l7 -2zM333 128h2v7h-7l1 -4zM319 205v-2h5l1 4l-3 3zM315 182 v-2h4l2 4l-4 3z" glyph-name="o" horiz-adv-x="514" unicode="o"/>
<glyph d="M308 75l1 -2l4 -3l7 1l26 15l28 17l25 21l22 22l21 23l6 6l1 6h3l3 8l6 4l3 7l16 14l1 6h2v4h3v5h2v4h2v5h2v4h3l2 5h2l19 26l7 3l15 -3l15 -9l8 -12l-4 -23l-8 -10l-1 -6l-9 -7l-1 -7h-2l-4 -7l-3 -2l-7 -15l-10 -14l-23 -25l-5 -9l-13 -11l-8 -12h-4l-12 -11l-6 -3 l-5 -6l-7 -2l-20 -24l-6 -5l-6 -1v-2h-4v-2h-5l-5 -6l-8 -2l-5 -6l-14 -6l-8 -7h-5v-3l-11 -2l-5 -5l-29 -10l-7 -1l-5 -3l-18 -1l-16 -5l-35 -2l-15 -2l-30 3l-32 8l-16 2l-5 3v2h-5v2h-4v2h-5l-1 3l-14 8l-20 18l-3 10l3 10l17 17l16 5l16 -7l15 -4l15 4l19 16l13 8l9 8 l1 6l7 5v4l6 6l1 6l10 11l8 13l5 5v4h2v5h2v5h2l9 20l5 4l1 6l3 2l1 6h2l12 30l3 11l5 7l1 11l3 3l10 28l6 21l5 16l4 20l3 33l-5 22h-2v4l-9 9h-4l-5 5h-16l-13 -3v-2h-5l-17 -12l-16 -12l-6 -2l-21 -23l-6 -5l-2 -7l-12 -10l-4 -8l-8 -9l-2 -16l-13 -28l-12 -29l-11 -26 l-9 -31l-13 -29l-12 -28l-11 -26l-11 -30l-10 -29l-14 -28l-12 -28l-9 -25l-10 -24l-11 -27l-6 -16l-4 -6l-10 -29l-12 -26l-8 -26h-2v-5l-5 -2v-5h-2v-4l-21 -16h-32l-33 2l-18 2l-3 5h-4l-3 7l-4 2l-1 10l3 1l5 16l2 2l1 9l11 24l2 8h2v5h2v4h3v5h2v4h2l10 26l10 27l12 30 l9 24l12 28l1 6h3v4l11 25l4 7l1 7l12 28l11 29l9 23l8 15l11 29l8 14l2 9h2l8 27l3 9l3 2l8 26l6 13l1 7l9 20l13 30l3 9l3 2l5 17l5 10l10 32l2 7l8 11l13 32l4 10l10 10l6 2h16l10 -3l3 -4h7l9 -4l5 -5h4v-2h5v-2l6 -1l10 -5l9 -2l16 3l21 16l12 8l12 3l15 8l21 6l33 2 h16l17 -8l7 -1l24 -19l8 -14l6 -5l10 -30l4 -14l1 -33l-1 -33l-6 -31l-5 -32l-8 -27l-5 -8l-10 -30l-11 -28l-13 -30l-16 -26l-3 -7h-2l-5 -13h-2l-1 -6l-16 -23l-15 -25l-3 -7zM359 374l2 -2l1 9l13 6l-3 9l-12 -11l-4 -6zM224 62l-1 -1l1 -4h8l2 -4l5 2v5l-5 4zM339 257 l-1 -1l7 -15l2 -1l3 16l-3 2zM12 151l-2 -1v-7h11l5 4l-6 5zM239 89v-3h5l5 4l3 10l-7 -3zM71 236h2l3 8l-3 5l-3 -1l-1 -9zM350 446h2l-1 8l-6 1l1 -7zM157 410v-2l8 1l1 6l-7 -2zM259 78v-3l5 1l2 3l-3 5h-2zM221 53v2h-7l1 -3l3 -1zM224 79l-1 -2l4 -2l3 4l-5 3zM380 286 l1 2l-5 2l-1 -2z" glyph-name="p" horiz-adv-x="500" unicode="p"/>
<glyph d="M362 462l1 -1l31 11l29 12l16 6l11 8l16 3l12 -2l7 -12v-10h-2l-2 -14l-3 -2l-6 -16h-3l-3 -16l-7 -10l-1 -6l-5 -4v-7l-2 -2l-7 -19v-4h-2l-10 -28l-1 -6l-5 -2v-5h-2l-7 -25h-2l-7 -22l-9 -21v-2h-2v-5l-4 -1l-2 -3l-2 -16l-4 -5l-13 -31l-9 -30l-8 -13l-2 -7l-9 -14 l-6 -25l-10 -23l-4 -12l1 -5l6 -7l13 -6h12l14 6l9 7l7 1l27 19l25 20l22 23l22 22l19 21l2 7l5 2l1 6l9 13l1 4l7 4l11 16l3 10l3 3l1 5l6 5l1 4l11 13l7 3h6l11 -5h4l4 -6l11 -10l2 -6l-1 -9l-6 -16l-3 -3l-1 -6l-3 -1v-4l-6 -4l-16 -27l-19 -25l-15 -18l-1 -6l-6 -3v-5 l-6 -4v-5l-7 -4v-5h-2l-10 -13l-23 -24l-5 -5l-6 -2l-5 -5l-4 -1l-6 -5l-5 -1l-6 -6l-6 -2l-13 -11l-14 -7l-6 -5l-6 -2l-11 -11l2 -26l2 -33l-4 -33l-9 -31l-5 -15l-1 -11l-12 -29l-7 -9l-9 -25l-4 -9l-21 -27l-1 -5l-5 -2l-3 -7l-20 -20l-6 -1l-2 -4l-8 -4l-5 -6l-6 -1 l-5 -6l-14 -6l-33 -8l-31 2l-24 2l-25 12l-13 9l-5 6l-1 4l-5 5l-10 29l-3 16l2 32v9l2 2l2 14l10 29l6 14l3 2l1 7l4 6l1 5l4 2l5 12l5 7l1 17l3 1v4l13 29l9 28l1 4l-2 5l-11 5l-30 -9l-24 -8h-36l-16 2l-26 10l-4 6l-5 1l-8 11l-4 10l-9 13l-6 15l-3 28l-2 33l2 35l5 28 l5 33l9 25l2 2l6 28l7 23l12 29l2 8l4 5l3 9l5 4v7l12 24l6 6v4l10 12l15 29l4 7l6 5l21 26l21 23l8 8h4l4 6h4l11 6l3 5h4v2l21 7l10 4l32 2l14 3l16 -2l29 -12l25 -18l20 -25l12 -11zM244 426l-1 -2l-6 -1l-10 -6l-21 -23l-11 -15l-4 -2l-3 -7l-11 -11l-10 -17l-1 -6h-2 v-4h-3v-5h-2v-4l-15 -25l-2 -2l-9 -31l-12 -30l-10 -22l1 -8l-12 -29l-4 -30l2 -34l4 -9l3 -2l1 -6l12 -9l16 1l23 5l23 14l8 8l7 1l19 26l13 12l8 12l7 7l10 30v3l5 6l10 31l3 8l5 5l10 30l12 26v5l5 4l8 29l4 7l3 18l-1 15l-3 9l-7 13l-18 16l-33 2zM223 -229l2 -1h19 l-3 3l23 23l14 20l6 15l9 11l1 6l6 11l10 31l5 14l4 6l8 31v7l-5 19l-2 2v7l-16 17l-7 1l-8 -3l-9 -12l-13 -29l-11 -30l-6 -12v-4l-5 -5l-4 -23h-3v-4l-3 -3l-1 -8l-5 -5l-11 -30l-8 -27l-2 -16zM264 115l-1 -1l-3 -7l-1 -9l-4 -3l-1 -10l7 3l3 6l1 16l8 1l4 8l-9 -1z M277 53v-2l5 1l6 10l7 3l2 6l-4 2l-7 -1l-5 -5zM324 250h-2l3 -7l11 -6l2 5l-1 5l-4 5zM211 21v-2l10 -4l4 2v4l-7 3zM62 78v-2l8 1l3 8l-3 2l-4 -1zM226 80l1 -2h4l5 9l-3 2l-7 -4v-5zM150 397h2l3 6v4l-5 4l-2 -3zM44 66l2 1l-1 4l-6 5l-2 -2l2 -8h5zM240 31l-2 -1l1 -3 l13 -3l-5 7h-7zM59 135h5v9l-5 -1l-2 -3zM142 438l-1 -2l5 -2l4 5l-5 4zM83 23l-1 -2l3 -2l4 1l2 6h-4zM219 -35l-1 -2l3 -2l4 1l2 3l-3 2zM286 194l2 -1l2 7l-6 3zM357 331l-1 -2l7 -2l-1 4l-4 3zM312 234l-1 -2l7 -2l-1 4l-4 3zM306 108v2h-7l2 -4h4zM276 148l1 2l-5 3 l-2 -2l2 -3h4zM44 92v-5h4v5h-4zM207 -26v-5h4v5h-4zM204 -101v2l-6 3l-1 -3z" glyph-name="q" horiz-adv-x="543" unicode="q"/>
<glyph d="M334 135l1 1l19 25l8 14l11 12l2 6l5 4l1 6l9 12l13 23v4l18 26l10 6l16 -2l8 -3l15 -16v-15l-6 -16l-11 -16l-1 -4l-3 -2l-1 -5h-2v-5h-2v-4h-3l-1 -7l-22 -25l-3 -3l-2 -7l-17 -27l-18 -25l-11 -13v-4l-7 -8h-2l-10 -14l-23 -20l-24 -19l-30 -17l-13 -6h-32l-31 -4 l-30 10l-7 4l-5 7l-15 10l-1 6l-3 2l-10 32l-4 15v32l8 29l6 32l8 31l7 23l6 6l11 31l12 29l8 15l4 16l2 2l3 13l1 17l-5 14l-9 12l-25 19l-8 -1l-6 -3l-11 -13l-3 -12l-5 -5l-4 -14l-14 -27l-15 -29l-4 -12l-6 -6v-5h-2l-8 -16l-6 -6l-3 -7l-6 -3l-17 1l-11 3l-15 19v8 l14 30l9 17l8 13l2 7l5 6l1 5h2l6 15l3 3l1 6l15 29l13 29v17l-4 15l-5 6l-2 8l-7 9l-2 31l2 18l4 15l7 14l21 24l11 11l7 4l7 9l11 4l18 2l16 -5l6 -5l1 -3l14 -8l12 -11l4 -6l-2 -15l-11 -29l-14 -28l2 -12l7 -10l4 -1l5 -6l16 -9l24 -23l12 -7l2 -5l7 -2l20 -24l11 -12 l9 -14l7 -31l-2 -11l2 -3l-1 -16l-5 -20l-3 -2l-4 -16l-5 -7l-1 -7l-13 -28l-6 -15v-4h-2l-1 -6l-5 -6l-2 -7l-5 -8l-3 -21h-2l-4 -16l-11 -30l-2 -15v-20l9 -16l7 -4l9 -2l5 1l23 14l22 22l9 14l6 5zM198 229h3l4 11l-4 2l-6 -9zM256 307l2 1v4l-3 3h-6v-5l2 -3h5z" glyph-name="r" horiz-adv-x="408" unicode="r"/>
<glyph d="M253 106l2 -1l5 -1l13 8l23 22l13 9l13 15l1 6l11 15l1 4l6 6v4h2l18 26l5 4v4h2v5h2l2 9h2l7 14l10 14l13 6h9l8 -3l17 -16l2 -16l-1 -6l-17 -31l-14 -25l-12 -13l-8 -13l-4 -2v-4h-2v-5h-3l-5 -11l-21 -24l-20 -23l-22 -24l-6 -6l-10 -6l-6 -1l-5 -6l-4 -1l-12 -11 l-28 -15l-16 -9l-31 -10l-30 -8l-32 1l-16 -2l-30 4l-24 2l-28 12l-16 6l-7 5l-7 2l-10 13l-8 6v4l-3 3l-2 7l6 15l6 6l27 15l13 5l28 -11l18 -6l15 1l16 5l7 4l13 18l1 6h2l6 28l6 48l-3 32v31l-2 33l-2 15l2 31v8l-3 7l-4 3l-8 -1l-6 -5l-14 -25l-8 -18l-4 -8l-3 -2 l-4 -10l-6 -7l-6 -14l-10 -14l-7 -4l-18 2l-17 8v5l-3 2l-4 17l4 10l11 16l14 29l10 14l3 10l8 13l3 2l1 7l6 6l1 8l8 13l13 29l7 9l2 7l16 23l11 29l11 15l11 20l1 6h2v5l13 8l7 1l32 -9l16 -6l12 -6l15 -14l4 -13l-4 -33l-4 -30l-2 -32l-2 -29l-2 -33l-1 -15l5 -32v-64 l4 -64l-2 -31v-24zM198 439v-13l-2 -2h-8l-1 -4l5 1l16 -8l4 4l-12 9l7 9v5l-7 2zM204 246l-1 1l-5 3l2 3l-5 1l-4 -4l3 -5l3 1l10 -5l-1 4zM211 90l3 1l-1 8l-2 3l-4 1l1 -12zM203 66h2l2 3v9h-4l-3 -7zM173 429v-3h5l4 5l-3 2l-4 -1zM206 288l-1 -2l3 -2l5 5v2l-4 2z M194 178v-3l4 1l2 3l-2 5h-2zM146 39v-2h5l1 5l-4 2zM207 232v-5h5v5h-5zM175 59l-4 -2v-4l2 -1l3 3zM170 401l-1 -2l4 -2l2 4l-4 3z" glyph-name="s" horiz-adv-x="378" unicode="s"/>
<glyph d="M301 711l1 -1l2 -18l-3 -15l-13 -28l-5 -11l-10 -29l-2 -7v-10l4 -7l5 -1l2 -3h33l13 -3l8 -10l1 -7l-4 -17l-8 -12l-10 -10h-4l-3 -4l-14 -3l-32 3l-16 -2l-13 -9l-14 -27l-10 -29l-14 -30l-8 -13v-3l-8 -15l-3 -22l-7 -9l-9 -27l-11 -30l-12 -31l-4 -14l-3 -2l-12 -30 l-7 -14l-8 -22l-2 -2l-2 -12l-5 -6l-3 -15l-9 -28l-4 -34l1 -9l7 -13l10 -3l3 -3l27 3l19 12l8 3l27 22l19 20l22 25l2 4l5 2v4l6 5l6 12l6 4v4l7 5l2 7l20 23l5 8v5h2v4h2v5l6 5l3 8l12 17l19 4l16 -6l12 -15l1 -15l-3 -11l-9 -14l-7 -7l-2 -7l-5 -2l-1 -6l-6 -3l-1 -7 l-8 -15v-4l-19 -24l-17 -18v-5l-7 -4v-5h-2l-15 -24l-6 -2l-22 -20l-4 -1l-20 -20l-6 -2l-24 -20l-25 -15l-28 -11l-32 -6h-35l-17 2l-26 8l-11 7l-14 14v4l-7 5l-2 9l-5 5l-2 27h-2l-2 33l4 31v7l2 3l2 16l3 2l11 31l10 31l4 15h2v5h2l10 28l8 16l10 29l4 6l4 16l7 11l1 6 l7 14l3 15l9 20l3 2v5h2l8 24l3 3v4l5 7v5h2l9 28l7 20l-2 8l-4 6l-6 3h-29l-12 3l-8 5l-9 10l3 17l5 5l3 7l7 8l7 2l2 3l15 4l35 -1l15 2l14 8l4 7l3 2l3 14l3 3l3 14l5 5l5 14l8 13l8 27l4 12l4 2l2 7h5l1 3l14 3h35l7 3h20l17 -3zM221 582l2 1l4 4l1 7l-5 4h-4l-7 -4 l2 -16zM17 82v-2l3 -2h5l3 2v2l-8 3zM212 546l2 -2l2 2v4l-2 1l-2 -2l2 -2zM160 499v-4h4v4h-4zM167 534l2 -1v7l-3 -2z" glyph-name="t" horiz-adv-x="291" unicode="t"/>
<glyph d="M223 503l2 -2l-5 -16l-6 -10l-8 -28l-13 -28l-1 -7l-3 -3l-3 -13l-8 -22l-6 -6l-6 -21l-6 -6l-4 -15l-7 -10l-2 -15l-2 -1l-2 -12l-15 -27l-6 -13l-8 -28h-2l-2 -8l-3 -3v-8l-5 -8l-2 -16l-4 -5l-3 -8l-3 -3l-8 -30l-2 -12l-3 -3v-9l-2 -2v-7l3 -8l11 -12l11 -3l15 4 l24 15l2 3l7 2l21 23l9 9l1 6l9 9l7 4v5l18 25l17 27l9 12l11 27l6 14l8 12l3 13l3 3l12 30l5 16l4 7l3 16l13 28l10 30l4 7l1 7l3 3l1 6l5 5l8 14l8 29l11 22l12 9h43l2 2l14 -2l29 2l12 -10v-14l-10 -34l-12 -30l-11 -29l-4 -14l-5 -4l-1 -8l-5 -8l-2 -7l-7 -11l-4 -21 l-5 -6l-3 -10l-4 -6l-2 -8l-5 -6l-3 -10l-5 -6l-1 -7l-5 -4l-4 -21h-2l-11 -30l-4 -6l-4 -16l-2 -2l-9 -31l-12 -31l-4 -17v-18l3 -15l4 -6l9 -6h5l2 -3l24 4l11 4l45 45l23 24l10 12v4l8 14l18 23l12 13l10 16l2 7l3 3l1 6h3v4l18 26l3 3l14 2l10 -1v-3l7 -2l15 -17l1 -8 l-5 -16l-9 -15l-7 -7v-5h-2l-17 -29l-16 -26l-15 -17l-2 -7h-4l-13 -15l-1 -6h-2l-1 -4l-6 -5l-7 -13l-14 -10l-24 -23l-23 -20l-13 -11l-10 -3l-4 -6h-5v-2h-4v-2h-5v-2h-4v-3l-27 -5l-33 -4l-33 -2l-7 2l-2 3l-8 1l-1 3h-5v2l-7 2l-23 24l-14 29l-6 6l-4 1l-11 -5l-22 -22 l-7 -6l-6 -2l-21 -17l-16 -6l-3 -3l-30 -9l-31 -4l-23 1l-16 6l-15 8l-23 20v5l-6 3l-2 17l-3 3l-5 15v32l4 32l3 17l9 16l1 27l3 3l10 31l8 23h3l4 16h2l9 22l10 32l8 14l1 7l8 14l4 15l3 2l10 29l5 9l2 9l2 1l9 30l12 27l7 15l3 14h3l1 6l10 12l19 5l30 -3l33 1l15 -5z M281 108l-2 -1l-9 10l-5 -1v-5l5 -8l5 1l11 -6l2 2l-3 3l5 11v4l-2 1l-3 -8zM225 99l2 -1l5 6l4 2l2 4l-11 2l-4 -11zM240 164v-2l3 -2l8 1v8l-6 4zM250 152l-1 -2l3 -2h8l3 2l-3 7l-6 2v-4zM300 227h2v9l-7 7l-2 -3l1 -8zM52 180v-9l11 3l3 -1l-3 6zM279 78h2l2 3v5l-2 3 h-2l-2 -3v-5zM237 78l-1 -2l5 -5h4v7h-8zM290 202v-6l2 -1l3 2v4l-3 2zM393 399l-1 -2l5 -2l2 4l-5 3zM258 96l1 -2h4v4h-7v-2h2zM125 440v-4h4v4h-4z" glyph-name="u" horiz-adv-x="522" unicode="u"/>
<glyph d="M441 524l1 -1l7 -14l-2 -4l-2 -32l-10 -30l-2 -15h-2l-2 -19h-2l-12 -29l-15 -27l-2 -8l-3 -1l-1 -6l-5 -6l-8 -21l-12 -25l-1 -5l-10 -12l-1 -7l-5 -4v-5l-7 -4v-5l-5 -2v-5l-4 -2v-4l-5 -3v-4l-6 -5l-3 -6l-13 -14l-10 -15l-4 -12l2 -6l10 -7l17 -2l20 2l30 9l14 8h3 l8 7l6 1l11 8l18 18l2 7l21 24l18 24l12 11l8 1l13 -3l12 -11l2 -7l3 -3l1 -8l2 -2l-15 -30l-18 -26l-12 -11l-2 -7l-12 -9l-7 -10l-13 -8l-25 -20l-5 -5l-7 -1l-6 -5l-15 -6l-21 -13l-35 -2l-29 -2l-16 1l-6 3l-26 6l-21 6h-10v-2h-5v-3h-4l-2 -4l-6 -1l-2 -4l-6 -3l-9 -10 l-7 -3l-11 -11l-14 -8l-12 -10l-12 -7l-5 -7h-5l-2 -4h-4l-29 -17l-12 -6l-15 -4l-31 -2l-34 1l-27 3l-15 13l3 29l6 15l5 29l7 32l9 32l3 31l5 16l6 30l8 32l6 31l7 31l5 32l9 32l8 30l5 31l7 34l9 24l10 10l13 4l16 1l33 -2l15 1l14 -3l7 -5l3 -14v-34l-9 -30l-7 -25 l-2 -2l-4 -20l-3 -2v-7l-2 -2l-2 -31l-7 -30l-6 -33l-3 -6l-7 -31l-4 -23l-3 -3l-4 -31l-7 -32l-2 -16l6 -11l4 -1l15 6l24 20l23 23l11 12l7 5l12 14l2 7l22 24l10 12l4 9l5 2l3 7l7 6l2 6l6 6l13 27l5 5v4l11 21l5 4v5h2l4 11l3 2l2 7l5 5v4l8 18l10 33l10 23l2 15l4 9 l1 14l6 15l11 11l15 4l33 3h16zM37 147v-2l16 1l2 5l-9 1l-9 4l-2 -4zM35 126l2 -2l6 10l-2 1l-6 -5v-4zM60 98l2 -1l2 3l-1 4l-6 2v-4zM35 99l-1 -2l4 -2l4 1l2 3l-4 2zM98 349v2l-7 2l-1 -2l3 -3z" glyph-name="v" horiz-adv-x="465" unicode="v"/>
<glyph d="M694 516l1 -2l2 -8l-3 -16l-8 -17l-6 -31l-9 -31l-8 -22l-4 -23h-2l-8 -28l-11 -26l-10 -16l-11 -25l-12 -29l-11 -16l-2 -8l-3 -3l-12 -29l-4 -6v-10l8 -10l15 -4h20l29 10l29 17l5 5h4v2l13 8l2 3l7 4l10 14l9 7v5l12 14l17 26l8 2l17 -3l13 -7l5 -5l3 -7v-16l-5 -7v-4 l-5 -5l-2 -8l-11 -10v-4l-6 -5l-3 -6l-7 -5l-1 -6l-25 -22l-25 -21l-24 -18l-10 -7l-25 -10l-27 -8l-15 -1l-15 2l-16 -2l-32 3l-13 5h-17l-13 -6l-24 -25l-23 -22l-18 -14l-14 -8l-8 -7l-29 -12l-7 -4l-14 -3l-15 -7l-32 -1l-32 3l-12 3l-23 9l-23 20v5l-4 2v5h-2v4h-3 l-4 13l-9 8l-9 -1l-23 -20l-26 -19l-13 -8l-4 -5l-7 -2l-6 -5l-26 -5l-31 -7h-16l-16 3l-24 9l-24 19l-4 9l-5 4l-2 7l-3 3l-4 29l-4 34l8 30l1 16l9 30l11 30l9 27l5 5v4h2v5h2v5h3v4h2v5h2v4h2l8 28l13 28l10 31l5 8l8 26l12 25l13 31l12 27l11 29l4 7l13 10l62 2l24 -3 l13 -9l1 -6l2 -1l-10 -31l-11 -28l-3 -8l-3 -3l-2 -11l-3 -2l-9 -21l-5 -5l-2 -16l-5 -14l-9 -15l-11 -28l-6 -10l-8 -30l-13 -29l-11 -29l-12 -29l-11 -30l-10 -30l-5 -13l1 -30l10 -13l7 1l18 -3l25 18l11 11l8 3l21 23l1 6l6 9l21 23l8 9l6 14l2 1l3 12l6 6l17 25l5 7v4 h3l9 28l9 31l12 26l11 29l12 30l12 29l11 29l7 14v4l5 5l4 29l6 4l3 7l11 6l16 3h36l32 -3l19 -6l2 -8l-8 -31l-9 -27l-6 -6v-5h-2l-6 -15l-3 -3l-3 -11l-4 -7l-3 -14l-3 -3l-2 -9l-3 -3l-1 -6l-4 -5l-12 -31l-1 -8l-12 -26l-10 -24l-1 -7l-8 -13l-2 -7l-5 -6l-5 -19l-3 -2 l-10 -30l-10 -18l-2 -13h-3v-5h-2l-3 -31l-1 -12l-3 -6l10 -18l6 -5l30 2l20 12l11 12l13 9l17 18l5 15l-1 16l-4 26l2 3l1 16l5 8l4 3l1 7l12 11l7 2l3 6l31 8l14 8l10 12l14 31l12 30l3 3l3 16l10 28l11 26l2 14l6 15l9 33l10 34l8 12l8 3l2 4l32 5h4l2 -2l17 2l9 -1l7 -3 zM286 90l-4 -2h-7l-6 8l-4 1l-2 -5l7 -4l1 -8l-2 -12l7 -4l13 -1l3 2l-3 11l1 5l8 7l3 11l-4 2l-4 -1zM286 186l-1 -1l-3 5h-6l-1 -4l-8 2l3 -7l7 -2l21 2l5 -5h2l4 13l-1 3l-5 1l-12 -3zM501 183l-1 -2l3 -2l3 2h5l3 -3l4 1l5 -5h4l1 5l-5 11h-10zM21 91l-1 -1v-4l5 -5v-13 h2l13 15l-1 4zM231 115v-2l9 4v5l-5 9l2 7h-13zM354 347l-1 -1l5 -10l4 -1v5l7 8zM488 186l-2 -1v-4l7 -2l3 2v4l-3 3h-4zM390 400l-1 -2l4 -1l3 8l6 6l-4 3l-1 -4l-7 -8v-2zM255 150l-2 -1v-4l3 -3h4l2 7l-2 2zM308 238l2 -1l4 9l-6 3l-3 -7zM240 96l2 -1l2 5l-2 4l-5 2 l-2 -4zM266 134l-1 -3l7 -4l3 1l1 3l-8 4zM259 110l-1 -2l2 -4h5l1 4l-6 5zM2 104v-2h4l3 9l-4 -1zM269 215v-5h5v5h-5z" glyph-name="w" horiz-adv-x="738" unicode="w"/>
<glyph d="M346 402l2 -1l8 -3l24 20l17 16l9 14l22 24l23 22l11 10v4l11 11l16 11l14 -2l13 -8l17 -20l3 -15l-6 -14l-22 -24l-2 -3h-4l-23 -23l-23 -24l-21 -22l-22 -19l-1 -6l-25 -22l-8 -9l-3 -7l-24 -22l-17 -17l-1 -6l-9 -10l-7 -30l-3 -35l-4 -20l-2 -3v-24l-2 -2l-2 -31 l1 -17l6 -14l9 -8l2 -5h4l6 -4l16 2l16 7l25 18l12 11l6 2l24 24l21 22l23 23l19 26l17 22l1 6l5 2l2 7l4 2v4l14 19v3l5 8l14 5l10 -1l12 -8l10 -12l2 -8l-1 -10l-12 -25l-6 -9l-2 -7l-17 -21l-5 -6l-1 -5l-5 -4l-2 -7l-20 -25l-6 -6l-2 -6l-22 -22l-20 -24l-26 -20 l-24 -20l-4 -1l-2 -4l-23 -12l-2 -4l-7 -2l-3 -3l-23 -6l-15 -8l-29 -4l-18 -3l-30 6l-23 8l-14 10l-1 4l-11 12l-5 15h-3v4l-3 3l-1 6h-2l-7 30l-6 15l-6 5l-15 -4l-7 -4l-16 -17v-4l-10 -8l-3 -7l-23 -21l-12 -14h-4l-23 -18l-24 -6l-18 -2l-16 2l-10 8l-2 9l7 13l25 28 l21 23l25 20l3 2l3 8l22 24l5 6l13 9l23 23l22 23l17 16l16 27l8 29l6 28v16l8 31l1 31l2 32l4 12l-2 4v8l-7 8l-13 2l-15 -5l-13 -13l-7 -2l-2 -7l-11 -10l-16 -29l-8 -13l-14 -14l-1 -4l-5 -6l-8 -23l-15 -23l-15 -29l-19 -25l-7 -3h-7l-15 7l-13 12l-3 6l1 14l14 28 l13 24l8 10l2 6l8 11v4l9 14v4l5 3v5l3 1l4 8l6 6l1 6l3 2l16 27l6 6l8 13l7 5l1 6l22 23l17 18l8 3l13 14h5v2l12 4l32 6l15 2l18 -1l12 -3l18 -9l22 -23l11 -25l5 -17l2 -31l1 -15zM268 300v-3l-11 -12l14 -5l9 1l4 -11l7 3l2 4l-1 4l-5 2v8l2 3l-2 2l-7 -2l-5 7h-4l-1 4 l-4 3l-1 -4zM239 215v-13l17 -11h7l5 4l-4 11v9l-8 -1l-6 -5l-4 -1l-1 7h-6zM270 142l1 3l-15 6l-2 6l-6 2l-2 -4l1 -7l4 -7l10 -6l6 2zM210 176v-2l16 -1l7 4l1 4l-2 3l-11 1l-8 -4zM268 398v-2l3 -2h8l3 2v7l-7 2l-4 -2zM257 379l2 -1l1 2h3l6 -6h2l-1 5l-11 11zM285 326 h2l-1 13l-2 3l-3 -1l-1 -9zM282 157l2 -1l1 9h-3l-2 -3zM253 236v-3l4 1l1 4l-2 4z" glyph-name="x" horiz-adv-x="528" unicode="x"/>
<glyph d="M300 52l1 -2l7 -3l28 15l28 20l7 4l4 7l8 3l11 12l24 19l42 48l20 25l15 21l2 6l5 6l1 6l10 11l9 14l11 11l6 1l15 -4l6 -4l11 -13l3 -16l-2 -8l-10 -14l-9 -10l-5 -17l-6 -6l-3 -8h-2l-1 -4l-6 -5l-3 -6l-10 -9l-18 -23l-20 -24l-24 -22l-23 -24l-24 -18l-15 -8l-24 -20 l-12 -8l-10 -4l-27 -16l-28 -15l-7 -2l-7 -5l-8 -2l-12 -9l-11 -12l-8 -22l-13 -27l-8 -21l-6 -13l-1 -7l-5 -6l-2 -7l-5 -7l-3 -10l-8 -10l-3 -7l-4 -2l-17 -26l-20 -25l-13 -15h-5l-2 -5l-7 -1l-6 -6l-27 -13l-15 -7l-29 -4l-18 -1l-16 2l-31 9l-7 2l-14 9l-22 22l-9 15 l-5 16l-3 32l1 9l2 2l4 15l16 26l8 8l1 4l24 21l6 7l4 1l8 10l28 14l28 15l31 12l7 3l5 5l29 12l13 7l12 11l10 13l1 8l-2 5l-7 5l-24 -11l-13 -7l-8 -2l-3 -4l-29 -5h-18l-33 5l-7 4v2h-5l-11 11h-5l-13 25h-3l-11 30l3 12l-3 34l6 32l1 8l2 2v7l7 12l3 11l3 3l5 26l3 2 l10 29l11 30l14 29l12 31l11 30l12 28v4h2l1 6l6 6v4l3 3l9 30l10 30h3v5h2l4 15l3 1v4l13 16l26 6l40 -1l17 -2l12 -4l14 -12v-8l-11 -22l-5 -20l-5 -7l-4 -14l-4 -5v-4l-3 -2l-7 -21l-5 -6l-1 -11l-12 -28l-12 -29l-24 -56l-2 -8l-8 -14l-10 -31v-4l-5 -5l-1 -8l-6 -13 l-5 -5l-9 -32l-6 -15l-4 -34l1 -8l8 -12l13 -5l33 9l2 4l10 5l20 25l14 12l3 7l12 11l1 5l18 27l3 7l4 2l6 15l10 12l2 7l5 5v4l9 12l1 10l8 14l5 5l1 11l8 18h2l3 12l6 6l6 13l8 30l12 30l3 14l13 31l14 29l7 28l3 7l10 11l14 5h32l25 4l19 -3l15 -6l7 -9l1 -6l-4 -15 l-13 -31l-2 -7l-3 -2v-4l-13 -30l-12 -29l-2 -8l-4 -6l-5 -15l-9 -12l-6 -13l-5 -26l-11 -24l-12 -30l-13 -30l-13 -29l-12 -30l-5 -15l-8 -14l-9 -28l-3 -4l-4 -16l-10 -20l2 -8zM85 -110l-2 -1l-30 -14l-24 -11l-12 -8l-2 -3l-7 -4l-11 -12l-2 -7l-6 -7l-5 -11l2 -12l5 -8 l11 -7h18l16 6l11 8l22 24l17 27l13 25v7l-10 9zM239 27h-8l-5 6l-8 1l-6 -2l1 -4l8 -2l1 -3l-5 -7l14 -7l6 4l5 7v5zM150 -51l-1 -1l2 -7l-6 -10l4 -6l7 -2l1 4l6 7l-2 1l-1 12l-2 3zM234 64l-1 -1l1 -12l3 -1l7 2l2 14l4 -2l3 2l-1 11l-3 2v-5l-5 -5zM205 68h-2l-6 2 l-4 -1l-5 -6l-8 -4l1 -3l4 -2l10 7l17 2l5 3l-3 3zM204 -63l6 -3l3 7l-1 7h-6l-4 -2l-2 -4zM220 87l-1 -1l3 -7l9 -2l4 6l-1 4h-14zM176 -57h5v9l-7 3h-5l2 -7zM246 102v-3l7 -2l3 1l2 8l-2 4l-3 1v-2zM354 345l-1 -1l2 -7l9 2l5 5v2zM322 244l1 -2l7 3l2 3v5h-11zM313 269 h1v4l-2 2l-11 1v-5l8 -3zM47 172h2l5 5v4l-7 2l-2 -3v-5zM147 -169v-3l5 1l1 7l-3 4l-3 1l-2 -3zM186 85l2 -1l2 3l-1 4l-6 6l-2 -7l3 -5h2zM259 43l-1 -2l4 1l2 3v5l-2 3l-4 1zM204 -15l2 -1l2 5l-2 4l-5 2l-2 -3zM70 249v-5l11 1v4h-11zM274 202l2 -1l5 4l-1 5l-2 1l-5 -5 zM287 141v-3l5 1l2 3l-3 5h-2zM206 89l2 -1l2 4l-4 5h-3v-4zM360 403v-7h6v4zM342 357v-2h4l2 7h-4zM204 2h2l-3 6l-4 1v-4zM126 428h3v4l-5 2l-1 -4zM183 -82l-2 -4l4 -2l3 4zM167 -86h-2v-5l4 1v6h-2v-2zM38 217v-4h5v4h-5zM6 81v-4h5v4h-5zM237 -5v-4h5v4h-5zM145 -84v-4 h4v4h-4z" glyph-name="y" horiz-adv-x="512" unicode="y"/>
<glyph d="M325 376l1 2l-5 8l-5 4l-32 10l-31 9l-6 3l-27 1l-30 -5l-25 -17l-12 -12l-19 -24l-9 -8l-2 -7l-5 -3v-4l-5 -5v-4h-2v-5h-2v-4h-2v-5h-3l-15 -29l-9 -13l-7 -15l-9 -13l-14 -7l-15 4l-14 10l-6 15l2 14l15 30l16 27v4h2l1 6l15 28v3l6 5l13 23l5 16l5 6v4h3v5h2v4h2l2 7 l5 2v5h2v4l18 24l24 22l11 10l13 8l14 5l3 3l29 5l34 -1l31 -6h16l4 -2h7l14 -6l13 -1v-2l30 -4l31 -3l32 -2l30 9l16 -2l23 -22l8 -13l4 -14l-5 -14l-15 -20l-13 -8l-22 -23l-24 -20l-11 -13l-24 -23l-11 -12l-24 -20l-22 -24l-39 -39l-7 -2l-8 -13l-22 -21l-24 -22 l-24 -24l-3 -6v-7l4 -7l29 -15l10 -3l4 -5l16 -4l26 -11l16 -4h33l14 4l28 17l27 21l25 20l3 7l5 2l1 7l4 7l4 2l1 6l20 24l16 28l9 14l10 11l6 3l18 -3l3 -3l8 -3l9 -15v-16l-9 -14l-4 -12l-6 -4l-1 -7l-5 -11l-5 -5v-4l-7 -5v-4l-19 -25l-1 -7l-5 -2l-1 -6l-19 -19v-4 l-11 -10v-4l-3 -1l-21 -24l-2 -4l-11 -5l-4 -7l-13 -10l-10 -13l-5 -3l-9 -2l-22 -17l-7 -2l-4 -5l-30 -8l-15 -3l-32 2l-17 -3h-14l-31 9l-22 8l-7 5l-7 1l-2 3l-7 2l-15 9l-22 8l-32 -2l-30 -10l-30 -14l-12 3l-23 24l-7 13l-1 9l6 13l24 23l23 23l2 4l26 18l7 10l4 2 l8 13l22 21l24 22l22 22l23 21l12 9l20 25l24 22l46 44l13 11l10 12zM180 88l1 -2l-4 -2l-8 3l-8 6l-2 -3l2 -3v-5l-5 -5v-4l14 -7l5 2l3 4l1 7l8 2l6 9v5l-9 5l-4 -6v-6zM386 432l-1 -2l-11 -11v-9l9 7v4h2v5l8 4l-2 5l-4 2zM357 439l-1 -2h5l4 5l-2 18h-7l2 -15zM417 439 l-2 3h-7l-2 -10l6 -4l3 1l3 6zM226 468l1 -1l4 -1l7 3v2l-7 3l-2 8l-5 3zM132 113v-2h5l5 5l1 6l-9 3zM272 451h2l6 4l1 5l-9 2l-2 -3v-5zM293 439h4v10l-3 6l-3 -1l-1 -8zM286 52l4 2v5l-3 2h-8l1 -5zM195 67l-2 -1v-4l11 -3l1 3l-5 6zM118 118v-2h4l3 9l-4 -1zM320 444v-7 h4l2 5zM234 454l-1 -1l5 -2l2 4l-4 2zM400 464l-1 -2h4l3 5h-5zM252 43v-4h4v4h-4z" glyph-name="z" horiz-adv-x="505" unicode="z"/>
<glyph d="M219 325l1 -2v-9h2l3 -25l2 -2l2 -13l-1 -18l-11 -30l-12 -29l-14 -29l-12 -24l-6 -25l-6 -6l-2 -6l-3 -3l-12 -28l-6 -15l-3 -3v-4l-8 -13v-4l-5 -5l-2 -8l-4 -6l-1 -9l-5 -14l-5 -5l-6 -16l1 -16l8 -13l14 -7l16 -4l16 -1l14 -5l3 -3l2 -17l-5 -13l-1 -9h-3v-4h-2 l-6 -17l-8 -13l-13 -7l-32 -2l-34 2h-16l-2 3l-25 10l-13 6l-5 6l-7 3l-4 9l-6 3l-1 6l-5 3l-4 15v6h-2l-5 27l5 32l11 27l4 21l3 2l12 27l14 27l5 14l3 2l7 22l5 8l2 7l7 11l1 7l4 1l3 10l5 2l4 13l8 12l7 22l17 32l8 15l5 14l1 14l-5 14l-6 6l-5 1v2l-30 7l-15 2l-11 10 l-2 15l4 17l12 26l3 3v3l6 7l8 4l32 5l29 9l7 2l26 17l30 36l12 29l-1 4l10 28l10 31l1 8l5 4l4 31l2 12l3 3l10 27l3 17l8 15l7 32l10 20l12 30l4 6l1 7l18 24l20 27l26 17l25 15l12 4l34 7l15 5l31 4l12 2l37 -1l14 -3l11 -11v-16l-9 -30l-3 -1v-5h-2v-4h-2l-1 -6l-13 -11 l-13 -3l-36 -2l-12 -3v-3l-26 -16l-21 -24l-10 -13l-15 -26l-6 -16l-2 -12l-5 -6l-1 -7h-2v-4h-2l-1 -6l-8 -13l-6 -16l-1 -8h-2l-4 -11l-4 -29l-3 -3l-3 -16h-2l-4 -16l-10 -25l-5 -6l-8 -32v-2h-3l-5 -16l-15 -26l-18 -28l-3 -4l-9 -3l-4 -6l-5 -1l-4 -6l-5 -1l-1 -3 l-29 -17l-8 -12v-8zM384 782l-1 -2l4 -2l12 2l5 -2l2 5l-12 4l-7 -2z" glyph-name="braceleft" horiz-adv-x="440" unicode="{"/>
<glyph d="M161 825v2l13 8l24 3l18 -11l3 -29l-1 -32l2 -32l-2 -32l2 -32l1 -31v-31l-2 -33l-1 -31l1 -31l1 -34v-32l-2 -30l2 -32l-2 -31l2 -64v-72l3 -8l-2 -30l-1 -16l3 -17l-3 -8v-93l1 -33l2 -8l-3 -2l2 -31l2 -15l-6 -33l2 -16l-2 -16l-14 -13l-15 -4l-15 5l-11 11l-4 15 l1 32v30l-1 32l-2 32l3 13v19l-3 11l2 34l-2 5l2 32v63l-2 31l2 13v17l-3 15l4 30l-2 68l1 32l5 27l-2 12l-4 7v31l1 25l2 4l-3 31l2 33l2 31l2 15l-3 15v31l-2 31l1 32v32l-2 32l1 15z" glyph-name="bar" horiz-adv-x="374" unicode="|"/>
<glyph d="M403 784l-2 1l-8 3l-17 -2l-6 3l-12 1l-11 11l1 18l3 15l14 28l11 11l9 4l23 4l9 -3h7l7 -3l32 -1l15 -4l29 -15l18 -15l6 -15l5 -7l1 -8l2 -3v-6h3l1 -33l-5 -32l-4 -14l-4 -5l-5 -16l-14 -29l-7 -12l-5 -16l-5 -4l-3 -11l-3 -3l-4 -14l-10 -22l-9 -12l-9 -20h-2 l-16 -25l-12 -31l-10 -17l-1 -6l-4 -7l-8 -31l5 -14l13 -15l14 -1l2 -2l31 -2l10 -10l3 -16l-12 -27l-12 -28l-20 -14h-32l-11 -1v-2l-15 -4l-10 -7h-4l-23 -21l-19 -25l-10 -17l-7 -28l-4 -11l-3 -2l-1 -23l-10 -26l-10 -28l-9 -33l-5 -14l-3 -3l-2 -16l-3 -2l-2 -16 l-4 -11l-3 -3l-10 -30l-2 -8l-6 -10l-2 -13l-6 -6l-2 -9l-10 -14l-6 -1l-12 -11l-8 -14l-11 -13l-26 -17l-10 -3l-6 -6l-27 -9l-30 -5l-16 -5h-31l-29 -3l-16 2l-15 8v4l-4 9l3 18l3 3l1 6h2l2 12l16 19l4 2l5 6l28 5l19 1l14 4l14 8l11 11l6 1l8 14l16 19l1 7l17 27l7 7 l8 28l11 32l8 32l8 20l4 8l1 16l3 2l3 12l6 4l1 7l3 4l5 31l7 14l2 8l4 2l1 7l13 27l14 21l10 12l12 10l4 1l5 6l8 3l20 15l5 1l11 7l4 6l-2 12l-19 24l-7 26l4 32l3 15l7 10l1 6l11 26l6 14l3 2v4h2l4 12l5 4l4 17l13 30l14 28l15 28l11 27l3 8l3 3l1 11l5 6l4 13l6 10 l2 12l-4 17l-8 13z" glyph-name="braceright" horiz-adv-x="439" unicode="}"/>
<glyph d="M281 371h2l2 2l32 -1l32 -4l30 -8l29 -15l27 -14l13 -6l26 -7l6 -4l16 -4l28 3l18 5l5 3l8 1l11 9l11 3l6 6l16 4l7 -3l14 -16v-4l4 -2l1 -6l4 -2l7 -12l4 -12l-5 -13l-8 -10l-7 -2l-10 -13l-13 -7l-5 -8l-13 -8l-4 -5h-5v-2h-4v-2l-27 -9l-13 -4l-31 -4l-17 -1l-32 7 l-28 4v2h-4v2l-12 2l-11 5l-4 5h-5v2h-4v2l-6 1l-26 12l-29 14h-4l-6 3l-29 2l-31 -6l-24 -3l-8 -7l-7 -2l-2 -5l-15 -8l-8 -1l-13 7l-13 23l-8 13l-5 14l6 13l25 23l9 8l6 1l25 20l14 6l6 5l28 6zM332 311l-2 1l-1 4l-6 5l-6 -1l-3 -4l6 -3l1 -4l-2 -9l5 1l17 -5l-1 9z M305 301v2l-13 2l1 -4l3 -2zM276 325v-6h4l3 6h-7z" glyph-name="asciitilde" horiz-adv-x="721" unicode="~"/>
<glyph d="M139 307l1 2l30 1h21l11 -11l1 -12l-10 -33l-11 -32l-10 -29l-6 -15l-8 -28l-10 -29l-10 -30l-5 -9l-6 -20l-3 -2l-2 -15l-22 -62l-3 -6l-1 -9l-3 -1l-2 -16l-3 -5l-2 -9l-3 -4l-10 -31l-12 -28l-6 -30l-3 -4l-5 -16l-17 -19l-16 -3l-16 2l-10 -3l-31 -2l-33 2l-6 2l-9 8 v4l-2 2l2 13l9 19l3 2l6 23l5 5l13 29l5 9l2 9l3 2l6 14l15 25l3 10l9 13l10 31l14 27l7 11l10 30l9 16l13 25l24 58l2 8l16 26l12 28l10 22l7 15zM224 533h2l3 2l27 -4v-3h4v-2l8 -1l4 -6h4l20 -24l11 -30l2 -15l-3 -29l-8 -13l-22 -22l-3 -5h-4l-6 -5l-16 -4h-31l-16 4 l-28 15l-7 6v5h-2l-1 4l-5 6l-8 30l-2 18l2 16l3 3v4l16 28l6 6h5l4 6l16 2l7 3h7l2 3zM223 427h3l2 2l-1 3l-5 4l-2 -8zM241 426l-1 -2l2 -2h4l3 3l-1 3l-3 1zM-11 -81l-3 -6h5l1 4zM91 57v-4h4v4h-4z" glyph-name="exclamdown" horiz-adv-x="347" unicode=""/>
<glyph d="M392 667l1 -1l2 -17l-8 -30l-10 -30l11 -12l14 -7l20 -16l12 -12l13 -20l12 -28l-2 -31l2 -31l-3 -17l-5 -13l-3 -17h-2l-4 -24l-16 -23l-6 -7l-29 -4l-34 -4l-24 6l-12 11l2 16l10 18l2 15l6 15l2 20l3 2l2 14l-3 17l-9 10l-7 -1l-5 -4l-14 -28l-3 -10l-11 -20l-2 -19 h-2l-4 -10l-5 -2l-1 -6h-2v-4l-6 -5l-2 -24l-12 -26l-4 -8l-1 -8l-7 -14l-2 -8l-8 -12l-3 -11l-6 -6l-5 -23l-8 -15l-11 -30l-5 -14l-8 -14l-3 -16l-9 -23l-4 -6l-1 -7l2 -7l5 -6l8 -5l28 6l31 12l13 5l14 8l6 6l13 7l12 10l25 12h14l2 -5h4l5 -6l12 -7l10 -14l1 -9l-2 -8 l-8 -11l-10 -6l-25 -21l-17 -15h-4v-2h-5l-9 -7l-7 -1l-9 -4l-2 -4l-26 -13l-31 -9l-31 -10l-33 -2l-16 -2l-14 -7l-16 -18l-7 -32l-2 -7h-2l-3 -7l-11 -12l-13 -4l-11 1l-11 7l-1 6l-4 1l-1 13l3 12l2 1l4 16l16 29l-1 6l-4 7l-27 19l-22 22l-12 17l-4 2v5l-5 4l-8 30 l-2 29l1 36l1 16l4 14l2 30l7 31h2l4 27l3 2l3 10l8 15l8 21l1 9h2l11 23l3 4l1 7l14 30l5 6v4l6 5l3 7l6 5l9 17l7 5l1 7l22 23l22 25l14 14l6 2l11 13h4l5 5l7 1v2l27 17l11 9l24 8l31 9l17 4l13 8l8 13v3h2v4l12 29l6 14l18 14h17l8 -2zM246 456h-2l-4 -6l-15 -12 l-16 -24l-6 -6v-4l-5 -3v-4l-4 -2l-1 -6l-3 -2l-1 -4l-9 -12l-28 -58l-9 -19l-12 -30l-10 -30l-8 -29l-10 -30v-32l1 -27l8 -7h4l7 5l3 7h2v4l10 22l5 6l3 11l3 2l3 15l7 16l2 11l7 10l8 18l3 15l15 29l10 28l3 8l4 5l6 19h2v5h2l3 13l6 14v4h2l1 7l11 21l3 16l4 2l2 9l2 2 v5h2l2 13l-3 3zM46 143l-2 -2l1 -4l4 -3l-2 -7l1 -10l3 -1l1 16l5 5l1 4l-7 4zM403 466l1 -1v6l-9 3l1 -4zM69 277v-7h5l2 5zM62 74l1 1l-9 3l1 -5l2 -1zM372 504l-1 2l-7 -3l1 -3l7 2v2z" glyph-name="cent" horiz-adv-x="431" unicode=""/>
<glyph d="M283 109v-3l8 -12l7 -5l15 -4l30 -3l18 3l27 15l24 22l9 8l13 28l8 13l3 10l6 6l2 11l12 15l12 5l62 2l12 -3l8 -5v-17l-4 -21v-3h-2v-4l-6 -5l-7 -14l-3 -2l-2 -16l-12 -24h-2v-5h-2l-6 -13l-3 -3l-4 -10l-4 -2l-5 -10l-13 -10l-15 -18l-6 -1l-5 -8l-27 -16l-13 -8h-4 l-13 -6l-30 -6l-33 -4l-32 6l-2 3l-28 2l-2 2l-18 2l-2 3l-13 3l-15 6l-17 2l-15 -4l-24 -10v-2l-29 -4l-25 1l-32 12l-2 5l-6 1l-20 26l-8 24l3 6l1 13l14 25l9 13l9 9l24 12l30 5l35 -2l15 -3l13 10l6 7l1 5h3v5h2v4l6 6l2 7l9 9l1 6h2v4h3v5h2l8 30l8 25l9 31l7 31l-7 6 l-9 2l-14 -3l-17 1l-6 2l-11 11l-2 29h2v5h2v4h3l3 8l6 1l4 6l14 3l16 1l16 4l11 10l10 28l6 32l7 25h2l4 16l3 2l10 30l1 6h2l1 8l3 6l3 2l2 7l12 13v5h2l4 11l5 5l4 11l5 2l2 7l9 9l1 5l27 26l13 12l7 2l10 8l11 9l20 6l6 6l12 3l4 5l27 4l32 -1h5l4 3l13 2l31 -6l32 -10 l7 -2l24 -22l5 -10l10 -13l5 -13l6 -30l2 -34l-2 -17l-7 -26l-5 -17l-7 -15l-10 -10l-12 -8l-13 -3l-34 -2h-17l-15 5l-7 6l-4 12l6 31l1 6h2l4 15l1 17l2 4v8l-13 19h-7l-2 3l-13 2l-18 -2l-15 -5l-4 -5h-5l-2 -4l-13 -8l-9 -12l-21 -21l-2 -7l-6 -6l-9 -32l-3 -2l-2 -12 l-6 -12l-10 -31l-5 -25l-2 -18l1 -7l6 -9h4l7 -4l13 3l32 2l34 -2l7 -2l10 -10v-17l-4 -15l-5 -11l-15 -12l-29 -4l-34 3h-18l-14 -3l-13 -9l-1 -6l-3 -2l-6 -14l-8 -33l-10 -30l-4 -15h-2v-4h-3l-7 -18l-6 -5l-8 -13l-5 -5l-5 -15l-7 -10v-4l-7 -5l-1 -6l-11 -10zM338 285 l2 -1l8 12l1 9l-10 5l-8 -5l-5 1l-8 8h-3l5 -15l11 -11zM206 91v3l-23 5l-9 -3v-6l17 -3h12l8 -6l2 3zM331 345l2 1v10l-4 7l-7 5l-3 -9l2 -8l6 -6h4zM206 59v-3l5 -1l8 2l1 4l-7 6zM610 627l2 -1l4 11l-2 5h-7l1 -13zM232 91l-1 -1l-7 2l1 -5h15l5 -2l-3 8l-3 1zM151 68 l-1 -1l4 -8l10 6l1 4zM195 44v-2l7 1l2 3v5h-5l-3 -2zM324 450v-3l4 1l5 13l-7 -3zM371 509v-9l8 1l-2 6zM369 545v-2l5 -2l3 3l1 5l-7 -1zM301 385v-3h7l-1 7l-3 2zM163 44v-4h11v4h-11zM333 415v-2h5l2 7h-5zM152 56v-7h4l3 4zM367 493v-5h4v5h-4z" glyph-name="sterling" horiz-adv-x="664" unicode=""/>
<glyph d="M409 530l2 -1l15 8l22 22l24 20l7 2l8 -1l1 -4h5l2 -4l14 -9l1 -6l10 -8v-4l3 -6l1 -10l-2 -8l-22 -24l-12 -11l-10 -13l-3 -13l3 -17l13 -27l4 -9l2 -12h3l1 -30l-1 -33l-8 -31l-10 -31l-5 -9l-2 -9l1 -7l20 -25l23 -23l5 -13v-7l-6 -13l-18 -20l-6 -1l-5 -6l-7 -3 l-9 -1l-7 2l-12 10l-22 24l-17 11l-14 4l-11 -3l-17 -10l-32 -9l-31 -4l-33 1l-29 5l-24 9l-14 5l-17 3l-8 -3l-9 -9h-5l-24 -25l-9 -8l-7 -3h-7l-16 7l-21 22l-8 13l-1 9l7 14l22 24l11 11l8 13l-1 15l-6 16l-4 6l-7 27l-6 32v30l6 30l10 31l8 22v10l-7 14l-22 23l-11 13 l-7 13v15l8 13l19 17l9 3l4 5l16 -2l7 -5l2 -4l7 -3l21 -23l13 -10l7 -3l15 2l16 8l14 4v2l31 5l12 3l30 -1h12l8 2l2 -2h7v-3l31 -6l12 -7zM283 453l-1 -1h-7l-13 -7h-5l-1 -3l-7 -2l-25 -19l-8 -12l-1 -6l-6 -10l-5 -14l-2 -18l2 -18l11 -30l6 -11l11 -14l23 -18l24 -11 l33 -2l16 4l27 14l17 11l16 18l9 29l3 16l-4 34l-2 8l-3 4v5l-5 4l-8 15l-12 12l-28 17l-17 6l-21 2l-2 -2zM173 279v-2l2 -3l7 -2l7 4l-1 7l-4 2l-8 -1zM190 258l-1 1l-1 2l-4 -1l-4 -5l9 -5h9l-2 6zM196 464l-2 -1l-4 -4l8 -5l8 3v7h-10z" glyph-name="currency" horiz-adv-x="587" unicode=""/>
<glyph d="M410 472l-1 -2l6 -10l7 -3l9 -1l7 -3h12l3 -2l8 -12v-10l-13 -27l-10 -12l-11 -4l-16 -1l-35 3l-16 -1l-12 -3l-23 -23v-8l3 -6l8 -5h34l28 -1v-2h4l8 -8l-1 -16l-11 -32l-7 -8l-11 -4l-35 2h-66l-18 -8l-9 -15l-12 -30l-9 -27l-14 -30l-6 -12l-9 -30l-11 -30l-12 -29 l-4 -5l-11 -30l-2 -8l-5 -3l-9 -11l-13 -5l-31 -3l-17 2l-33 -2l-12 9v4l-2 2l-1 7l10 28h2v4h2l8 28l14 28l4 10l13 19l4 28l3 3l6 22l5 5v7l3 3l1 6l8 12l11 32l-4 11l-10 5l-38 1l-35 2l-13 7l-4 5l-2 8l8 23v5l5 2l2 7l12 10l31 2l35 -2h16l10 2l12 10l3 15l-1 8l-7 9 l-12 2h-19l-12 2h-18l-11 7l-5 7l-1 13l8 14l5 13l13 12l31 -2l3 2l17 1l18 14l5 15l-2 31l2 34l5 32l1 33l2 31l2 20l2 2v25l2 2v7l10 12l8 6h32l32 -2l12 -1l5 -7l9 -7l1 -16l-4 -33l-3 -6v-33l-1 -16l-3 -6l-2 -29l-3 -10l-3 -32l-2 -32l1 -8l2 -3l9 -2l4 2l17 24l17 29 l3 2l1 4l8 8l2 7l7 4l2 7l7 4l2 7l5 5l7 14l14 20l18 27l9 12l1 6l5 2l2 7l9 9l17 25l8 9l7 2l3 4l14 3h31l31 2l21 -6l10 -11v-12l-8 -15l-21 -27l-22 -24v-4l-6 -5l-9 -15l-6 -5l-17 -26l-6 -11l-4 -2l-4 -7l-7 -5l-3 -7l-10 -7l-4 -10l-19 -28l-14 -18zM289 394v-3l7 3 l4 15l-18 9l-4 -6l9 -12zM233 452l1 -2l5 1l9 10h-2l-1 14h-4l-8 -13v-10zM248 314v-3l11 -2l3 7l-1 9l-2 2h-4l-3 -7l-3 -2zM243 390l1 -2l7 3l4 18l-7 -4l-3 -4zM306 404l-1 -2l2 -3l9 -3l6 4l-1 4l-11 3zM217 307l2 -2l4 1l5 10l-4 2l-4 -1l-4 -6zM201 341h2l2 3l-1 9 l-2 3l-4 1v-10zM350 466l2 -1l5 10l-6 4h-3v-9zM206 419l-1 -1l2 -7l9 2v5l-4 2zM270 404l-2 -4l9 -7l2 3l-4 7zM203 244h2v4l-3 2h-6l1 -4zM176 241l-3 -6h7v6h-4zM380 493l-1 2l-2 1l-4 -5l2 -2l4 1z" glyph-name="yen" horiz-adv-x="499" unicode=""/>
<glyph d="M210 -123l-1 -1l-17 -2l-16 3l-13 7l-2 6v32l-3 30l1 33l3 33l-5 32l4 31v33l-4 11l3 32v63l2 31l-2 30l2 2v9h2l2 5l12 9l29 -2v-2l7 -5l3 -5l4 -33l-3 -32l3 -32v-64l-3 -32l3 -31l-3 -33l2 -31l1 -31v-66l-1 -11l-6 -14zM210 836h2l-2 -3l7 -3l5 -14l2 -16l-4 -33 l-2 -31l1 -32l2 -31l-3 -32v-32l2 -15l-4 -32l5 -20l-4 -13l-2 -2l-1 -22l3 -2l3 -31l1 -16l2 -3l-8 -29l-1 -7l-12 -10l-7 -2l-17 4l-9 6l-7 13l-2 13v32l2 33l-2 31v32l-3 32l5 31l-5 31l4 32v3l5 7v7l3 8l-3 9l-4 5l-2 31v57l10 11l16 6z" glyph-name="brokenbar" horiz-adv-x="374" unicode=""/>
<glyph d="M381 541v3l-4 8l-13 7l-17 3l-15 -4l-25 -20l-11 -17l-5 -15l-1 -18l2 -15l12 -17v-5l5 -2l2 -7l25 -22l11 -10l13 -8l21 -24l15 -14l1 -6l5 -2v-4l5 -4l2 -8l7 -14l7 -28l2 -32l-7 -32l-5 -14l-6 -9l-5 -13l-24 -24l-24 -19l-6 -6l-10 -4l-6 -5l-15 -5l-17 -14l-5 -16 v-5h-2l-3 -17l-6 -13l-8 -10l-2 -6l-5 -6l-1 -4l-22 -21l-18 -17l-5 -1v-2l-15 -6l-7 -5l-31 -7l-31 1l-32 8l-16 2l-11 6l-7 8l-12 5l-17 15v5l-10 11l-2 7l-5 6l-9 27l-1 31l2 15l2 2l8 29l8 14l23 13l6 5l15 2l6 3h16l14 -6l25 -23l1 -7l3 -3l2 -14l-3 -16l-6 -16 l-17 -21l-4 -8v-8l10 -9l15 -3l26 4l14 9l9 9l10 28l2 18l-1 19l-5 17l-5 3v4l-24 23l-24 19l-24 22l-14 13v5l-4 2l-3 7l-4 2v5l-6 6l-5 12h-2l-8 30l-1 33l1 16l9 30l6 14l9 13l22 22l25 22l15 6l3 3l21 6l15 18l6 31l13 28l4 8l5 5l1 4l22 23h3l5 7h4l12 11h4l5 5l14 6 l32 6l35 -2l31 -5l15 -4l25 -17l17 -13l11 -21l4 -16l9 -15l4 -14l1 -30l-3 -18l-4 -5l-6 -15l-18 -24l-30 -12l-17 -2l-15 2l-15 6l-11 12l-4 2l-4 12l-3 18l2 16l3 8l4 5l1 7l4 6l7 5l1 7l5 4zM207 410h-7l-11 -6l-19 -27l-4 -11v-26h2l3 -13h2v-5h2v-4l19 -22l25 -23 l24 -20l26 -25l11 -11l13 -2l14 5l13 13l10 18l4 16l-3 27l-7 16l-21 25l-8 4l-25 21l-20 17l-5 9l-6 4v5l-22 16l-8 2zM138 351l-1 -2l10 -5l3 1l-2 7l-4 2zM226 465l-1 -3l5 -2l4 5l-3 2zM144 306l-1 2l-1 1l-5 -6z" glyph-name="section" horiz-adv-x="531" unicode=""/>
<glyph d="M129 719h3l3 2l16 -1l18 -8l2 -4h4l9 -14l5 -2l1 -6l5 -2l1 -6l4 -2v-7l3 -2l-4 -32l-16 -29l-12 -9l-2 -5l-6 -1l-3 -3l-11 -2l-6 -3h-13l-6 3l-10 1l-10 4l-6 6h-4l-19 25l-7 15l-1 17l6 15l3 2l5 22l11 12l11 7l14 5zM296 716l2 1l2 2h15l15 -3l22 -8l9 -12l7 -6l3 -6 l1 -8l3 -2l1 -12l3 -9l-1 -15l-6 -16l-21 -24l-6 -1l-2 -5h-5l-2 -4l-11 -2l-5 -3l-22 2v3l-20 3l-3 6l-7 3l-11 12l-2 10l-4 5l-7 26l5 27l8 14l24 17z" glyph-name="dieresis" horiz-adv-x="385" unicode=""/>
<glyph d="M122 55l-1 2l-21 24l-9 12l-4 2l-1 6l-9 12l-9 28l-12 29l-2 14l-3 7l-3 29l3 15l-2 17l3 32l2 13l2 2l1 13l10 28l7 18v5l14 24l17 25l14 21l2 7l9 7l8 14l13 10l18 21l6 1l8 10h4l2 5l26 17l12 8l5 6h5l2 5l6 1l5 5l7 1v2h5v2h4l27 11l29 13l31 3l30 4l33 1l33 -4l8 -1 l2 -2l30 -3l30 -13l10 -2l26 -19l6 -1l4 -6l4 -1l22 -23l4 -2l2 -7l9 -9l3 -6l6 -5l2 -7l14 -14l2 -7l5 -5l3 -17l10 -28v-2h3l3 -32l3 -31l-2 -32l-2 -31l-2 -3l-3 -16h-2l-7 -27l-2 -2l-4 -15l-15 -27l-9 -13l-6 -15l-5 -2l-15 -26l-13 -12l-2 -6l-23 -22l-23 -23l-12 -11 l-25 -16l-9 -4l-5 -5h-4l-14 -9h-4l-7 -5l-14 -4l-15 -7h-5v-2h-4l-13 -5l-29 -7l-28 -6l-34 -3l-32 3l-23 4l-2 3l-31 8l-26 7l-2 3l-11 4l-2 5l-7 1l-9 8l-7 2l-25 20zM420 523h-38l-30 -4l-27 -2l-6 -6l-7 -1l-18 -14l-8 -1l-12 -8l-19 -10l-7 -1l-4 -7l-7 -2l-16 -14h-4 l-15 -20l-25 -23l-6 -11l-6 -5l-9 -12l-4 -11l-6 -6l-4 -11h-2v-5l-5 -4l-1 -7l-10 -26l-7 -19v-7l-2 -3l-2 -30l-1 -16l4 -33l3 -12v-8l10 -32l6 -14l8 -12l22 -23l4 -8h5l2 -4l19 -14l24 -12l13 -4v-2l15 -3l15 -6l32 -2l17 -2l31 6l14 1l31 10l29 12l29 14l13 7l5 6l14 8 l24 21l21 25l22 24l10 12l14 30l5 7l1 7l3 2l8 28l6 15l7 31l1 15l-4 32l-2 32l-4 14l-14 20l-6 15l-8 11v4l-23 22l-24 18l-8 3v3h-4l-7 5l-29 10l-33 8l-10 2zM406 313l-4 2l-2 17l10 30l2 7l-1 11l-3 6l-6 6l-15 2l-7 -2l-26 -21l-20 -20v-4h-2l-2 -7l-5 -2v-5h-2l-2 -9 l-5 -4l-9 -29l-6 -14l-7 -32l-3 -23l-2 -2l1 -17l6 -14l11 -10l13 -4h13l17 4l14 6l14 9l6 6l6 1l21 24l15 9l15 2l7 -2l10 -11l2 -7l-1 -14h-2v-5h-3l-7 -13l-24 -23l-7 -7l-7 -2l-2 -4l-14 -8l-5 -5l-29 -11l-27 -7l-36 -1l-16 1l-26 11l-24 22v4l-3 2l-1 5l-8 11l-6 25 v16l-3 11l3 23l2 2l7 32l7 30l8 20l8 10v4l4 2v4l6 5l3 9l5 7l1 7l6 4l6 12l24 23l13 15h4l12 10l9 3l6 5l16 4l2 3l14 2l2 2l29 2l33 -8l6 -3l12 -2l4 -7l12 -12l7 -20l4 -5l3 -14l1 -34l-2 -8l-3 -4l-2 -16l-7 -12l-11 -10l-8 -3h-9l-8 4z" glyph-name="copyright" horiz-adv-x="704" unicode=""/>
<glyph d="M469 696l2 -2l-2 -16l-13 -29l-12 -30l-10 -31l-11 -30v-4l-10 -21l-6 -6v-5h-2v-4h-2l-1 -6l-10 -26l-15 -29l-2 -12l-2 -2l-4 -20l-3 -3l-3 -30v-17l10 -11l8 -3l16 1l15 -3l2 -5h4l10 -13l1 -7l-3 -9l-12 -11l-14 -7l-31 -7l-6 -3l-17 -2l-16 1l-2 2h-8l-15 10l-7 1 l-11 11l-3 8l-13 14l-9 6h-4l-22 -15l-5 -7l-6 -2l-8 -8l-8 -2l-12 -7l-30 -9l-14 -2l-33 7l-12 5l-13 11l-13 17l-2 6l-3 3v5l-2 1l-7 30v16l6 32l5 32l7 27l12 29l2 15l9 25l7 20l8 8l2 9l5 3v4l4 5l9 25h3v4h2l1 8l20 23l21 23l10 12l7 2l2 5l7 2l2 4l11 5l3 5l12 4l33 5 h15l25 -4l13 -7l22 -24l17 -16l8 -1l2 -3l23 7l1 2l5 1l7 5l29 11h15zM291 647h-2l-8 -3l-25 -21l-10 -6v-4l-4 -2l-16 -27l-4 -6l-3 -1l-2 -9h-2v-5h-3l-5 -15l-12 -26l-11 -21l-7 -21l-5 -30v-2h-3v-16l-5 -15l2 -17l7 -13l5 -5l15 -6l17 2l7 3l10 11l6 1l24 23l7 9l1 4h2 l2 7l6 4v4l3 1v5l5 4l10 29l12 30l12 27l12 32l10 29v7l-6 16l-10 12l-11 9l-14 4zM353 457v2l-17 2l-5 -4l-1 -5h9l5 2l7 -9l6 -2l2 4zM281 385l2 -1l1 2l12 -2v10l2 4l-6 3l-9 1l1 -2l-4 -12zM327 440l-1 -2l4 -1l6 -5l5 2v4l-6 5h-4zM364 516v-3h9l-1 5l-3 2z" glyph-name="ordfeminine" horiz-adv-x="466" unicode=""/>
<glyph d="M676 449l1 -2l-2 -17l-12 -30l-12 -25l-8 -14l-6 -6l-2 -6l-5 -5l-22 -11l-6 -1v-2l-25 -16l-23 -16l-6 -3l-2 -4l-15 -10l-6 -1l-7 -5l-2 -4l-6 -1l-10 -12l-4 -8l1 -8l17 -26l21 -23l2 -7l7 -5l2 -6l8 -12l2 -11l-4 -26h-2v-5h-2l-9 -25l-12 -13l-6 -3l-6 1l-13 10 l-11 12l-6 1l-21 23l-21 24l-15 16v3l-20 23l-21 21l-2 7l-12 9l-8 15l-1 6l12 31l2 7l3 3l1 6l5 2l2 7l26 17l21 14l10 3l27 15l27 17l14 9l7 1l13 8l9 8l7 2l4 5h4l5 5l10 2l6 6l12 3l5 6l6 1l10 10l13 9l31 13l8 -2zM398 458l2 1l7 2l14 -9l3 -13l-5 -19l-3 -2l-3 -12 l-6 -6l-9 -30l-2 -7l-23 -22h-4v-2l-7 -3l-2 -4l-26 -14l-10 -8l-7 -2l-12 -11l-6 -1v-3l-7 -2l-5 -6l-4 -1l-4 -5l-12 -4l-3 -3l-6 -1v-3l-11 -10l-3 -8l4 -14l19 -24l18 -25l19 -29l1 -14l-6 -25l-3 -2v-7h-2l-2 -11l-5 -3v-4l-13 -8l-9 -1l-11 3l-23 24l-20 24l-23 21 l-3 7l-23 22l-12 12l-19 23l-10 14l-6 16v8l6 18l7 11l3 12l4 2l12 16h4v2h5v2h4l21 13l23 13l22 17l26 12l29 16l13 6l1 4l6 1l2 4h5v3l7 1l8 8l12 5v2h4l6 5l6 1v3h4v2l7 1l4 6h5l17 12zM183 283v-3l-7 -4l-4 -8l3 -1l8 8l1 -2l9 1l2 4l-7 15zM437 228l-9 -9l-3 -7h-4 l2 -5l2 2l9 1l5 4l1 10zM455 286v-2l10 -4l6 2l-2 5l-7 6zM180 236l1 -2l4 1l5 6l-14 9v-5zM222 304v-2l3 -2l10 2v5h-9zM217 201l2 -1l3 3l-2 8l-3 1v-11z" glyph-name="guillemotleft" horiz-adv-x="776" unicode=""/>
<glyph d="M418 94l-2 -2l-31 4l-16 -1l-7 2l-2 -2l-16 2l-12 9l1 18l8 29l8 14l1 7l3 2l1 6l3 3l9 30l1 2l-3 8l-9 9l-34 -1h-25l-2 2h-9l-2 -2l-29 3l-33 -2l-16 -1l-16 2l-31 -2l-31 -1l-31 2l-30 -2l-3 -1l-14 5l-7 8v14l12 32l4 15h3v5h2l1 7l14 14l6 2l2 3l13 4h10l14 -4h17 l30 4l30 1l32 -1l34 -1h67l33 1h32l30 -1l31 -2l30 3l15 -3l7 -4l5 -14l-5 -14l-4 -2l-5 -11l-5 -31l-2 -2v-4l-5 -6l-2 -8l-8 -13l-11 -31l-3 -3l-1 -7l-7 -15l-3 -12h-2l-16 -28l-4 -20l-4 -8zM242 282v-4h15l7 -2l3 8l-3 5h-2l-1 -3l-16 -2zM387 263v-3l4 1l5 10l-3 2h-9 zM154 296l-1 -2l6 -4l7 4l1 4l-7 2zM291 275l1 -2l4 1l2 3v6l-7 -4v-4zM182 294l-1 -2l2 -2l6 4l-1 3l-3 1z" glyph-name="logicalnot" horiz-adv-x="592" unicode=""/>
<glyph d="M388 356l-1 -1l-8 -1l-27 -18l-9 -7l-23 -10l-9 -4l-8 -1l-4 -3l-34 -4l-30 -4l-33 3l-15 3l-2 3l-14 4l-30 13l-6 2l-4 6l-7 3l-5 6l-7 3l-21 20l-2 7l-15 26l-3 3l-10 27l-3 20l-2 2l2 32v31l5 23l7 9l7 21l7 23l10 11l4 10l22 23l11 12l8 13l24 19l27 18l6 5l25 8l3 3 l15 4l3 3l29 6l18 3l3 2l32 -2l28 -3l17 -3l17 -9l5 -5h7l4 -5h5l5 -6l7 -3l2 -3h4l7 -9h4l20 -26l8 -10l2 -7l4 -2v-5l6 -6l3 -16l8 -27l4 -11l-3 -33l-2 -30l-1 -8l-8 -26l-11 -30l-6 -13l-4 -2l-16 -24l-9 -12l-14 -14l-6 -2l-22 -23zM356 397l1 1l14 10l23 24l18 24l2 7 l9 14v4l9 14v4l9 14l4 16v11l-2 3v9l-4 27l-8 30l-4 2v4l-13 18l-1 6l-12 9l-3 6h-5l-6 9l-8 1l-18 11l-24 3v3l-30 2l-31 -6l-27 -7l-14 -5l-6 -4l-10 -3l-11 -9l-7 -2l-5 -7l-4 -1l-6 -7l-8 -3l-4 -7l-21 -18l-1 -6l-7 -5l-2 -7l-10 -12l-14 -29l-2 -2l-2 -14l-5 -11 l-4 -30l3 -33l8 -28l5 -4l1 -8l5 -4v-4l5 -3v-4l23 -23l20 -11l22 -8l33 -4l33 2l14 6l6 5l-1 31l-1 16l6 33v22l-6 10l-9 -1l-10 -11l-1 -6l-3 -3l-1 -6l-3 -2l-12 -30l-10 -11l-7 -4l-23 5l-6 6l-3 7l8 31l9 26l3 2l9 30l-2 15l-7 1l-22 -7l-5 1l-11 12l-3 17l2 17l8 24h2 l1 6l3 2l3 6l17 17l8 3l12 12l11 6l33 8h31l25 -7l13 -6l22 -15l11 -13l8 -19l-3 -33l-2 -16l-5 -13l-16 -19l-13 -9l-9 -14l-1 -8l5 -22l2 -15l-4 -31l1 -8l9 -8l4 -1zM324 548l1 1l5 29l-9 15l-11 9l-26 5l-30 -11l-6 -1l-4 -6l-5 -1l-9 -9l-2 -9h-2v-5h-2v-4h-3l1 -11 l5 -4l7 -1l3 3l2 8l5 5l1 7l19 20l7 3h13l8 -5h4l7 -14l1 -8l-6 -15l7 -13l9 1z" glyph-name="registered" horiz-adv-x="420" unicode=""/>
<glyph d="M195 685l1 -2l14 5l16 3l33 -4l5 -2l17 3h32l6 2l32 -5l8 -2l2 -4l4 -2l2 -12l-4 -18l-7 -7l-3 -8l-6 -1l-2 -4h-5l-2 -3l-31 -4l-31 -2l-31 4h-9l-2 -2l-7 2l-31 -2l-23 5l-16 -3l-32 3l-17 -2l-13 2l-7 3l-6 6l-2 14l15 29l11 9l31 3l32 4l12 -6z" glyph-name="macron" horiz-adv-x="370" unicode=""/>
<glyph d="M228 730h2l3 2l32 -2l32 -8l15 -5l26 -17l24 -22l1 -6l5 -8l5 -4l12 -26l4 -5l5 -33l3 -14v-15l-6 -20l-3 -28l-17 -26l-21 -23l-2 -4l-24 -16l-22 -14l-24 -6l-34 -6l-31 5l-12 2v2l-6 1l-10 6h-4v3h-5v2l-16 4l-2 3h-2l-5 6l-4 1l-12 10l-20 26l-16 27l-6 28l-1 31 l-1 13l2 19l4 19l4 10l7 9v4l21 24l17 18l7 4l4 5l8 2l7 5l6 1l26 14zM221 647l-2 -1l-16 -7l-4 -6h-5l-2 -7l-7 -5l-8 -12v-5l-5 -14l-3 -16l4 -18l5 -14h3v-4l24 -21l16 -8l15 -5l17 1l13 3l15 1l6 5l4 1l7 12l3 9l8 13l5 15l2 18l-1 16l-5 17l-7 5l-2 5l-15 14l-24 12 h-25l-2 -2z" glyph-name="degree" horiz-adv-x="319" unicode=""/>
<glyph d="M515 366l1 -1l5 -6l2 -14l-10 -32l-8 -22l-5 -5l-2 -7l-11 -6l-2 -4l-12 -3h-27l-3 2l-13 -3l-68 4l-15 -1l-12 -4l-14 -10l-8 -13l-4 -15l-3 -4l-1 -6h-2v-5h-2v-4l-4 -5l-9 -23l-5 -4v-4l-16 -12l-16 -2l-14 -4h-33l-17 5l-7 4l-4 10l3 17l6 18h3v4l7 14l7 26l-2 7 l-11 7l-34 2h-32l-15 -1l-11 -3l-12 3l-15 1l-16 12v16l12 29l3 3l1 6l16 21l2 7l12 10l16 2l31 -2h17l16 3l32 -2l28 1l9 7l4 1l16 25l3 10l3 3l4 10l1 11l5 7l2 16l15 17l11 4l34 3h20l15 -2l13 -8l6 -7v-12l-9 -36l-3 -2l-11 -21l-2 -7l1 -8l5 -7l13 -5h33l33 2l32 -4 l17 -1zM422 97l1 -1l3 -7l-9 -27l-3 -18l-5 -7l-6 -23l-11 -11l-13 -3l-33 -1l-32 -1l-33 1l-32 1h-31l-15 -1l-16 2l-31 -2l-64 2l-31 -1h-32l-32 1h-24l-16 11v15l5 15l5 8l3 12l3 2l3 7l2 16l17 15l11 3l35 -2h18l15 3l16 -3l32 2l32 -2l31 2l30 -1l33 -1l30 -2l16 -1 l31 5h79zM150 73h-8v-2l7 -4l3 -4l-1 -3l7 -5l-2 -8l5 -3l4 6l2 16l-4 1l-9 11h-3l1 -2zM87 59l-3 1v-14l4 2l14 -2v8l6 1v5l-4 5l-7 1l-1 -4zM299 307v-1l-2 -8l4 -3l7 13l4 12l-9 2zM265 252h2v4l5 11l-3 6h-7v-17zM321 334h3l2 4l-3 6l-8 3l1 -12zM228 313v-2h7l2 3l-1 4 l-5 4zM371 318v-2h8l3 2v4l-3 2l-4 -1zM249 340v-9l4 1l3 11h-4zM347 297l4 -2l2 3v5l-3 3l-3 -1v-8zM247 311v-2l8 2l3 6l-5 3l1 -3zM136 44v-2l7 4l1 5l-4 2zM208 296l2 -1l5 11l-2 3h-3l1 -5zM353 328l2 -1l-2 8l-7 3l3 -7zM199 44h2v9l-4 -1l-2 -3zM214 333l-1 -2l6 -2 v4l-4 3zM256 306v-4h4v4h-4z" glyph-name="plusminus" horiz-adv-x="594" unicode=""/>
<glyph d="M238 387l1 -1v-3l4 -6l1 -9l-2 -3v-16l-2 -11l-5 -4l-1 -6l-17 -12h-30l-32 -5h-17l-14 4h-16l-32 -4l-32 1l-33 2l-14 2l-7 3l-7 6l-2 14l1 9l16 28l7 18l24 20l29 17l14 13l7 2l4 6l7 2l2 4l7 3l2 4l25 18l12 6l6 6l7 2l22 21l10 13l22 23l12 13l8 12l7 15l10 14l6 13 l2 14l-6 25l-11 12l-13 4l-15 -2v-2l-11 -5l-12 -11l-9 -13l-10 -31l-9 -22l-10 -9h-35l-23 3l-7 6l-3 16l2 16l12 29l1 7l13 20l2 7l20 23l12 12l6 1l2 5l8 1l4 5h4l5 5l31 8l31 2h16l31 -7l9 -1v-2l6 -2v-3h5l2 -4h5l20 -24l7 -10l2 -29l-2 -12l2 -2l-4 -17l2 -4l-5 -31 l-4 -14l-6 -14l-10 -13l-3 -7l-24 -23l-4 -7l-8 -6l-2 -7l-18 -18l-2 -7l-13 -10l-6 -2l-4 -6l-7 -2l-4 -6l-7 -3l-23 -24l-2 -3l-7 -2l-1 -4l-6 -3l-10 -10l-1 -6l3 -7l5 -4l12 -2l18 2l8 3l18 -1zM287 673v-2l4 -6h9l3 6h-7v9l-7 -3zM285 639v-2l6 3v6h-4z" glyph-name="twosuperior" horiz-adv-x="334" unicode=""/>
<glyph d="M256 541l-2 -1l1 -8l7 -15l3 -2v-5h3l2 -11l2 -2l7 -29l-1 -18l-4 -14l-3 -3l-7 -29l-5 -14l-7 -4l-13 -28l-9 -10l-24 -17l-7 -3l-2 -3l-15 -7l-32 -5l-30 -9h-15l-33 7l-29 13l-15 12v4l-7 5l-1 6l-8 13l-5 16l-2 33l2 16l3 6l2 16l4 10l12 13l29 5l19 -1l10 -4l6 -5 l3 -15v-16l-6 -30l1 -13l14 -20l23 -3l14 6l27 18l9 8l2 7l9 9v4h3v6l3 5l3 19v17l-6 15l-7 9l-9 6l-9 2l-3 3l-16 1l-14 12l-2 6l5 24l5 4l1 6l17 15l32 5l14 5l25 19l11 13l8 14l-1 32l-4 7l-11 8h-17l-8 -3l-6 -5l-7 -2l-9 -13l-7 -6v-4l-16 -27l-13 -10l-14 -2l-32 2 l-8 2l-6 6l-4 8l9 30l2 12l3 6l9 9l2 7l9 7l21 22l29 18l14 5l33 3l30 5l14 -1l25 -9v-2l27 -16l5 -13l3 -3l3 -12l14 -22l-6 -48l-5 -6l-1 -7l-5 -6l-1 -6l-5 -2v-4l-10 -12l-28 -19l-7 -1l-5 -7h-4zM207 528h2l-1 8l-4 4l-2 -6zM220 406v-7h4v7h-4zM227 420v-5h4v5h-4z " glyph-name="threesuperior" horiz-adv-x="336" unicode=""/>
<glyph d="M188 580l-1 -2h-18l-29 -5l-13 6l-7 4l-4 7l-1 8l3 9l21 23l8 13l22 19l1 6l17 19v5l20 21l5 1l3 4l14 4l32 -1l27 3l26 -5l8 -13v-7l-8 -14l-24 -22l-26 -21l-23 -18l-15 -18l-13 -8h-4l-4 -6z" glyph-name="acute" horiz-adv-x="370" unicode=""/>
<glyph d="M222 509l2 -1v-17l-8 -22l-8 -10l-2 -14l-4 -9l-2 -16l-15 -29l-11 -28l-12 -29l-2 -8l-9 -12l-1 -7l-5 -5l-4 -22l-3 -3l-4 -11l-3 -2l-4 -7l-1 -7l-9 -25l-7 -16l-3 -15l-3 -3l-2 -9h-2v-4h-2v-5h-3l-4 -16l-3 -2l-7 -29l-4 -30l5 -9l11 -10l8 -1l10 2l23 13l10 4 l16 13l2 7l21 24l11 12l14 24l9 8l4 11l7 8l3 10l7 9l2 7l5 4l1 7l16 27l1 7l4 7l3 2l8 30l8 22l8 15l8 22l2 1l6 26l14 30l4 15l5 5l9 21l14 30l9 12l9 6l18 5l31 -2l32 1l7 -2l11 -11l2 -15l-10 -26l-5 -6l-2 -7l-5 -5l-4 -22l-3 -2l-11 -29l-13 -28l-11 -29l-3 -10h-2 l-2 -12l-3 -1l-8 -28l-7 -9l-22 -58l-13 -30l-4 -15l-12 -24l-5 -15l-6 -32l1 -23l9 -14l6 -1v-2h4l2 -2l14 2v2h5v2l14 8l8 8h5l2 4h5l6 9l6 1l22 24l6 5l3 7l12 10v4l20 26l11 14l2 7l9 9v4l6 5l15 24l1 8l6 5l8 13l16 13h9l13 -8l11 -13l3 -6l-1 -16l-4 -5l-4 -12l-9 -17 l-3 -2l-9 -17l-5 -2l-3 -8l-7 -5l-1 -4l-6 -5v-4l-5 -7l-2 -8l-5 -6l-4 -2l-9 -13l-9 -7v-5l-4 -2v-5l-7 -4l-2 -7l-24 -22l-12 -10l-6 -10l-19 -17l-7 -2l-2 -4h-5v-3l-6 -1l-30 -14l-5 -5h-4l-3 -5l-13 -4l-31 -3l-17 -1l-31 5l-13 6l-14 10l-11 12l-3 7l-9 9l-6 15l-5 6 l-12 3l-23 -22l-12 -10l-2 -4l-6 -1l-1 -4l-6 -1l-11 -8l-16 -8l-13 -4v-3h-5v-2l-16 -4l-33 -2l-23 -1l-20 -17l-5 -19l-4 -1l-10 -31l-11 -29l-10 -23l-8 -27l-3 -2l-1 -6l-3 -3v-7l-9 -12l-3 -1l-5 -6l-32 1l-35 -3l-16 1l-11 3l-8 9l-3 13l4 16l11 26l7 16v5h2l9 25 l9 14l3 10l2 1l10 31l1 7l9 11l3 10l5 6l7 30l5 15l3 1v4h2l1 6l13 30l11 30l14 29l7 14l4 16l6 11l3 16l3 2l6 14l5 7l9 30l2 10h2v5h3l1 6l7 12l8 27h2v5h2v4h2v5h3v4h2v5h2v4h2v5h3v4l9 30l2 7h2v4h3l4 16h2l9 28l8 17l1 7l5 7v4h2v5h3v4l4 7v5h2l16 20l13 4h32l31 3 l12 -2zM245 114h2l2 4v8l-8 9l-8 2l-2 -4l2 -11l6 -6zM-4 67v-2l-13 -3l-3 -4l2 -1l2 -6l14 2l-1 5l5 13l-5 -1zM275 186l1 -1l5 -6l2 3l-2 3l2 4l-6 5l-4 7l-3 2l-2 -4l3 -8zM18 92v-3l14 5v5l-7 6zM-41 -4v-2l4 -2l8 1l4 8l-3 2l-8 -1zM40 158l-1 -1l6 -10l5 -1v14z M319 274l-2 -1l3 -7l8 -2l3 2l-1 5zM12 120l2 1l-3 7l-3 2h-6l1 -4l6 -6h3zM-15 34l2 -1l2 4l-4 6l-5 1l2 -8zM51 179l1 -1l-2 8l-5 5l-2 -3l4 -7zM263 96h-2l-1 -2l2 -3l8 1v6zM331 325v-7h7v7h-7zM59 232v-2h5l2 7h-5zM1 42l-1 -2l4 -2l5 2v2l-3 2zM7 96v-2h4l3 7h-5z M285 189v-2h4l4 5l-3 2zM344 309l-2 -4l5 -3l2 5zM-54 -55v-5h7l-1 3zM251 196v-5h5v5h-5zM56 231l1 1l-3 1l-2 7l-2 1l-2 -3zM286 167l2 -1l2 3l-1 3l-4 1zM-6 88l2 -1v2h2l-1 4l-4 1zM-20 85v-5h4v5h-4zM263 123l-2 -4l6 -2l-1 4zM-51 -41l1 -1l-1 5l-3 2l1 -5z" glyph-name="mu" horiz-adv-x="522" unicode=""/>
</font>
</defs>
</svg>
